<?xml version="1.0" encoding="UTF-8"?>
<svg id="Ebene_2" data-name="Ebene 2" xmlns="http://www.w3.org/2000/svg" viewBox="0 0 261 100.88">
  <defs>
    <style>
      .cls-1 {
        fill: #cd1427;
      }

      .cls-2 {
        fill: #cc1526;
      }

      .cls-3 {
        fill: #35393a;
      }
    </style>
  </defs>
  <g id="Ebene_1-2" data-name="Ebene 1">
    <g>
      <polygon class="cls-2" points="112.32 14.2 115.46 31.19 118.62 32.69 120.6 29.81 115.41 15.15 112.32 14.2 112.32 14.2"/>
      <path class="cls-2" d="m119.55,16.41l3.36,12.53c.72,2.68,7.22,3.27,14.52,1.32,7.3-1.96,12.64-5.72,11.92-8.4l-3.08-11.48-17.21,8.93-9.51-2.9h0Z"/>
      <polygon class="cls-2" points="128.59 17.51 154.37 4.12 131.79 0 109.44 11.68 128.59 17.51 128.59 17.51"/>
    </g>
    <g>
      <path class="cls-3" d="m.96,56.78v7.68h-.96v-16.32h.96v7.68h1.97l7.78-7.54.14-.14h1.37l-.84.82-7.56,7.34,7.56,7.34.84.82h-1.37l-.14-.14-7.78-7.54H.96Z"/>
      <path class="cls-3" d="m17.23,64.46h-1.06l.31-.67,6.72-15.36.12-.29h.62l.12.29,6.72,15.36.31.67h-1.06l-.12-.29-6.29-14.35-6.29,14.35-.12.29Z"/>
      <path class="cls-3" d="m46.2,57.21c.99,1.12,1.98,3.33,2.98,6.62l.19.62h-1.01l-.1-.34c-.7-2.27-1.35-3.95-1.94-5.04-.51-.91-1.2-1.68-2.06-2.3h-6.1v7.68h-.96v-8.16l.02-7.66v-.48h.48l6.67-.02c1.18,0,2.23.34,3.14,1.03,1.12.88,1.68,1.98,1.68,3.31,0,.69-.18,1.34-.53,1.97-.67,1.14-1.7,1.86-3.07,2.18.21.18.41.37.6.58Zm-1.8-1.39c.86,0,1.65-.23,2.35-.7.99-.67,1.49-1.55,1.49-2.64,0-.74-.26-1.41-.77-2.02-.77-.91-1.8-1.37-3.1-1.37h-6.22v6.74h2.88l.02-.02h3.34Z"/>
      <path class="cls-3" d="m65.52,57.21c.99,1.12,1.98,3.33,2.98,6.62l.19.62h-1.01l-.1-.34c-.7-2.27-1.35-3.95-1.94-5.04-.51-.91-1.2-1.68-2.06-2.3h-6.1v7.68h-.96v-8.16l.02-7.66v-.48h.48l6.67-.02c1.18,0,2.23.34,3.14,1.03,1.12.88,1.68,1.98,1.68,3.31,0,.69-.18,1.34-.53,1.97-.67,1.14-1.7,1.86-3.07,2.18.21.18.41.37.6.58Zm-1.8-1.39c.86,0,1.65-.23,2.35-.7.99-.67,1.49-1.55,1.49-2.64,0-.74-.26-1.41-.77-2.02-.77-.91-1.8-1.37-3.1-1.37h-6.22v6.74h2.88l.02-.02h3.34Z"/>
      <path class="cls-3" d="m75.98,48.14h.96v16.32h-.96v-16.32Z"/>
      <path class="cls-3" d="m96.6,48.14v.96h-10.56v6.72h7.73v.96h-7.73v6.72h10.56v.96h-11.52v-16.32h11.52Z"/>
      <path class="cls-3" d="m112.92,57.21c.99,1.12,1.98,3.33,2.98,6.62l.19.62h-1.01l-.1-.34c-.7-2.27-1.35-3.95-1.94-5.04-.51-.91-1.2-1.68-2.06-2.3h-6.1v7.68h-.96v-8.16l.02-7.66v-.48h.48l6.67-.02c1.18,0,2.23.34,3.14,1.03,1.12.88,1.68,1.98,1.68,3.31,0,.69-.18,1.34-.53,1.97-.67,1.14-1.7,1.86-3.07,2.18.21.18.41.37.6.58Zm-1.8-1.39c.86,0,1.65-.23,2.35-.7.99-.67,1.49-1.55,1.49-2.64,0-.74-.26-1.41-.77-2.02-.77-.91-1.8-1.37-3.1-1.37h-6.22v6.74h2.88l.02-.02h3.34Z"/>
      <path class="cls-3" d="m134.76,48.14v.96h-10.56v6.72h7.73v.96h-7.73v6.72h10.56v.96h-11.52v-16.32h11.52Z"/>
      <path class="cls-3" d="m141.74,48.14h1.92v16.32h-1.92v-16.32Z"/>
      <path class="cls-3" d="m153.24,64.46h-1.92v-16.32h1.46l.29.41,8.3,11.9.02-11.35v-.96h1.92v.96l-.02,14.4v.96h-1.46l-.29-.41-8.3-11.9v12.31Z"/>
      <path class="cls-3" d="m179.33,52.7c0-.56-.2-1.06-.6-1.51-.69-.75-1.62-1.13-2.81-1.13-.69,0-1.34.16-1.94.48-.98.51-1.46,1.23-1.46,2.16,0,.16.04.33.12.5.27.53,1.18,1.09,2.71,1.68,1.9.75,3.05,1.22,3.43,1.39,1.94.98,2.9,2.18,2.9,3.62-.02,1.02-.45,1.97-1.3,2.83-1.17,1.15-2.66,1.73-4.46,1.73-1.57,0-2.92-.44-4.06-1.32-1.14-.91-1.7-1.99-1.7-3.24h1.92c.02.56.26,1.07.72,1.54.78.74,1.82,1.1,3.12,1.1.82,0,1.58-.18,2.28-.53,1.04-.53,1.56-1.23,1.56-2.11,0-.18-.05-.35-.14-.53-.27-.54-1.18-1.12-2.74-1.73-1.89-.74-3.02-1.19-3.38-1.37-1.94-.96-2.9-2.15-2.9-3.58,0-1.04.38-1.98,1.15-2.83,1.06-1.15,2.45-1.73,4.18-1.73,1.38,0,2.58.4,3.6,1.2,1.15.91,1.73,2.03,1.73,3.36h-1.92Z"/>
      <path class="cls-3" d="m198.12,48.14h.96v1.92h-5.26v14.4h-1.92v-14.4h-5.3v-1.92h11.52Z"/>
      <path class="cls-3" d="m205.1,48.14h1.92v16.32h-1.92v-16.32Z"/>
      <path class="cls-3" d="m224.28,48.14h.96v1.92h-5.26v14.4h-1.92v-14.4h-5.3v-1.92h11.52Z"/>
      <path class="cls-3" d="m231.14,48.16h1.94l-.02.96-.02,9.89c0,.78.26,1.5.79,2.14.77.93,1.78,1.39,3.05,1.39.86,0,1.65-.25,2.35-.74.99-.7,1.49-1.63,1.49-2.78v-9.91l.02-.94h1.94l-.02.96-.02,9.89c0,1.34-.48,2.54-1.44,3.6-1.15,1.23-2.59,1.85-4.32,1.85-1.5,0-2.82-.5-3.94-1.49-1.22-1.07-1.82-2.39-1.82-3.96v-9.91l.02-.94Z"/>
      <path class="cls-3" d="m260.04,48.14h.96v1.92h-5.26v14.4h-1.92v-14.4h-5.3v-1.92h11.52Z"/>
    </g>
    <g>
      <path class="cls-1" d="m75.21,94.96c-.05,0-.12.03-.2.03-.05,0-.1-.03-.15-.05-.15-.08-.3-.1-.45-.12-.02-.03-.1-.03-.12-.03,0,.05.05.05.1.17l-.1-.05c-1.4-.57-2.52-1.65-3.45-2.82l-.7-.92-.12-.08c-.27-.38-.58-.75-.67-1-.03-.08-.08-.08-.08-.08-.25.82-.9,3.12-1.17,4.67-.02.17-.05.33-.05.45v.1c0,.12.02.2.15.22-.1.08-.1.12-.2.17,0,0-.35.18-.4.25l-.75-.1s-.05.03-.08.03-.1-.2-.15-.2c-.02.05-.05.1-.1.1-.03,0-.1-.02-.18-.08-.07.05-.15.08-.2.08-.2,0-.25-.27-.25-.6v-.17c.02-.48.12-1.03.15-1.15.65-4.42,3.85-13.02,4.57-15.67.05-.17.1-.4.1-.62l.02-.15s-.02-.05-.02-.1c0-.17.27-.4.42-.42.1-.1.33-.1.45-.1.22,0,.87.33,1.02.42.27.15.35.35.35.65,0,1.3-1.9,6.55-2.45,7.97,2.4-1.7,4.4-3.32,6.65-5.15l.98-.78c.2-.15.57-.55.87-.72.05-.03.1-.03.12-.03.15,0,.2.1.2.25-.08.3-.23.55-.23.85-.15.43-.45.75-.62,1.1-.62.85-1.07,1.22-1.87,1.85-1.75,1.42-3.77,2.95-5.35,4.1l-.7.52c-.12.1-.3.2-.42.33v.17c.92,1.9,2.75,4.07,4.42,5.82.35.35.65.5.8.92-.05-.03-.1-.05-.15-.05Zm-9,.38l.02-.08s-.02-.05-.02-.07v-.1s-.07.23-.07.33c.02-.03.07-.08.07-.08Zm.3-1.85c-.05.05-.08.1-.08.17,0,0,0,.03.02.08,0,.05-.02.12-.02.1,0-.08-.1-.1-.1-.2-.02.05-.05.08-.05.12v.15s0,.05-.05.1c0,0,.08.02.08.1.02.03.02.05.02.1l-.02.27c.08-.08.12-.15.15-.2.05-.07.05-.57.05-.8Zm.05-.77s-.02-.1-.05-.15c.02.03.02.05.02.08,0,.05-.02.1-.05.15-.02.1-.05.1-.05.15.08-.08.12-.15.12-.22Zm.1-.05c-.08.08-.1.15-.1.22,0,.05.02.1.02.12l-.07.08c-.03.1-.08.27-.08.38,0-.05.05-.15.08-.23l.05.23c0-.1.07-.62.07-.62l.03-.17Zm1.07-4.85l-.23.7c.05-.12.2-.4.2-.47l.03-.22Zm2.72-.53c0-.08-.02-.08-.07-.08,0,0-.12.08-.18.08-.02,0-.07,0-.12.12.12-.03.27-.03.38-.12Zm0-.17c.1,0,.15.03.23.03l-.05-.08-.07-.03c.05-.08.1-.08.12-.12-.02,0-.27.08-.4.12,0,.05.12.08.17.08Zm.42.08s-.02,0-.07.02c-.08,0-.15.12-.23.17-.17,0-.17.1-.2.2.07-.08.15-.12.22-.12.02,0,.12-.15.2-.15.02-.03.07-.1.07-.12Zm.18-.3s-.2.1-.27.17c.15,0,.25-.05.25-.05l-.07-.03c.02-.08.05-.05.1-.1Zm.32-.1c.1-.05.17-.12.35-.17.07,0,.07-.08.17-.17l-.08-.03-.1.12.02-.12c-.08,0-.17.12-.17.2l-.1.05s-.02,0-.08.05l-.02.08Zm2.37,7.07s-.08-.1-.08-.12l.08.05c0-.07,0-.1-.05-.12l-.25-.05c-.05-.05-.1-.07-.1-.15-.17,0-.57-.23-.67-.33.12.12.27.2.35.33l-.02.08c-.02-.08-.1-.1-.1-.1-.12,0-.15,0-.15.03,0,0,.15.17.27.22,0,.08.05.1.05.1l.07-.02s.05-.05.08-.05c.1,0,.25.1.32.12l.08.02c-.1-.15-.27-.22-.3-.32.12.15.3.17.42.32Zm-.95-.75c.07,0,.1.03.27.12l.02-.07c-.08,0-.2-.15-.27-.15l-.02.1Zm.4.12s.07-.02.1-.02.05.02.05.05l.02-.1h-.12s-.07,0-.1.02c0,.05.03.05.05.05Zm.2.6h-.12s.1.17.12.17c.05,0,.1-.05.15-.1-.02,0-.1-.07-.15-.07Zm.45-.03s.02.08.07.12c.1,0,.12-.03.15-.05-.05,0-.12-.05-.2-.15,0,.03-.02.05-.02.08Zm.32.35c0,.05.02.08.05.08.1.08.28.15.4.2-.05-.05-.27-.3-.32-.33-.08-.02-.02-.15-.1-.17.02.03.02.08.02.15,0,.02-.02.05-.05.07Zm2.67-11.82c-.07.05-.12.05-.15.12h.1c0,.1-.05.1-.05.15.03,0,.23-.17.3-.25l-.2-.02Z"/>
      <path class="cls-1" d="m85.09,86.96l-.1.8.2-.27-.02.17-.07.12.12-.05.05.2-.02.2-.7,1.12c-.4.65-1.8,2.85-2.7,3.65-.22.2-.5.38-.8.47-.05.03-.17.03-.2.03-.08,0-.38-.03-.48-.03-.15,0-.27-.12-.45-.2-.55-.2-.88-.85-.88-1.47v-.22c0-.83.12-1.5.27-2.17-.62.97-1.77,3.15-2.85,3.27-.08,0-.5-.28-.6-.33-.38-.2-.55-.1-.77-.8,0,0-.02-.08-.05-.12v-.2c-.02-.05-.05-.08-.05-.12,0-.1.08-.23.08-.38v-.23c0-.12,0-.17.07-.22v-.33c.3-1.67,2.52-4.95,4.25-4.95.25,0,.77.3,1.12.38.12-.15.33-.7.73-.73l.2.1h.1c.38,0,.85.38.85.55-.02.25-.1.77-.25,1.05-.43.67-1.38,4.95-1.38,6.15.05.2.08.2.08.2.9-.43,3.52-4.62,4.25-5.65Zm-9.55,2.12c.1-.03.17-.25.2-.35-.1.07-.15.22-.2.35Zm.2-.35l.02-.2c-.05,0-.02.1-.1.15.02,0,.05.03.08.05Zm3.97-2.25c-.4.05-1.22.97-1.87,1.97-.47.7-.95,1.77-1.17,2.45-.05.12-.05.23-.05.33l-.07.22s.07-.02.12-.08c.07-.1.02,0,1.12-1.7.7-1.07,1.62-2.55,2.17-3.22-.07,0-.2.03-.25.03Zm.7,3.7c.07,0,.1-.03.1-.15,0-.02,0-.05-.1-.1v.25Zm.2.83s0-.1.02-.12l-.02-.23c-.02.12-.02.2-.1.28.05.05.08.08.1.08Zm.2-.38c-.1.35-.08.67-.12,1.02,0,.05-.02.1-.02.15v.12c.1-1.25.65-3.67,1.07-4.9-.23.22-.75,2.5-.8,3.02-.03.17-.12.25-.12.42v.15Zm-.03-.42l-.05-.15s0,.03,0,.1c0,.05-.02.12-.05.15s-.02.1-.02.12,0,.08.02.1c0-.15.05-.2.1-.32Zm-.07-1.2l.07-.08c.05-.08.05-.15.05-.2,0-.03.05-.05.05-.08s-.02-.05-.02-.08c-.08.12-.08.22-.15.42Zm.1,1.02s-.05.1-.03.1.08-.1.1-.12c-.05,0-.05.02-.07.02Zm.15-2.17v-.23l-.12.48s-.02-.03.1-.03c0-.05.02-.17.02-.22Z"/>
      <path class="cls-1" d="m83.24,93.51c-.08,0-.08-.22-.08-.28s0-.07.02-.1c0-.08,0-.12.05-.28v-.45c.02-.08.05-.1.1-.12l.02-.35c.43-2.2,1.02-3.77,1.57-6.05.02-.12.1-.33.1-.53,0-.07.12-.17.12-.2.07-.1.17-.15.32-.18.05,0,.5.18.73.2.12,0,.35.12.38.28.15.15.17.3.17.5v.3c0,.38-.02.38-.08.77.62-.82,2.02-1.8,2.8-1.8.2,0,.38.12.45.28,0,.03.02.08.02.1,0,.05-.02.05-.08.05-.12.05-.27.08-.87.4-.1,0-.15.05-.15.1l-.2.18c-.07,0-.17.07-.17.15l-.57.62c-.08.1-.2.17-.23.22-.15.12-.2.25-.33.38,0,0,0,.05-.07.05-.02.08-.1.15-.1.23-.07.05-.12.17-.12.22-.05.05-.1.05-.1.1,0,0,0,.03-.02.1l-.07.05s-.05.08-.05.12c.02.03-.12.05-.12.08,0,.05-.02.1-.02.15-.07.05-.12.23-.12.28-.1.12-.2.2-.35.47,0-.02-.05-.08-.05-.05,0,.05,0,.08.02.08,0,.07-.02.07-.07.07,0,.05-.02.1-.02.12v.1c-.03.12-.05.02-.05.15-.07,0-.07.05-.12.12,0-.07,0-.1.03-.1,0-.05.02-.1.02-.1,0,.02-.05-.05-.08-.05,0,0-.02.03.02-.07,0-.05.03-.1.03-.12.05-.05.05-.08.05-.12-.08,0-.17.27-.2.3,0,0-.05.15-.05.2-.05,0-.05.07-.05.12-.02.07-.12.3-.12.35,0,.02.07-.22.17-.28.02-.12.05-.2.08-.2,0-.05,0-.12.05-.12,0,0-.02.22-.05.32l.1-.07c-.02.1-.07.12-.12.15v.12s0,.08-.07.08c-.02.12-.05.17-.08.17s-.02-.1-.02-.1c-.12.05-.17.15-.17.27l-.02.15c.07-.15.07-.23.07-.28.08,0,.08.03.08.05,0,0,0,.08-.08.15,0,.03-.02.05-.02.08s.02.05.05.05c0,0-.02.08-.05.05l-.17.3c0,.08,0,.15-.05.2v.17c-.07.08-.07.15-.1.22,0,0-.03.38-.1.38l-.05.25c0,.05-.1.38-.07.38,0,0,.05-.17.07-.2.05,0,.1-.3.1-.32,0,0,.08-.25.08-.3.02-.08.07-.23.1-.3,0-.08.05-.15.05-.2,0-.08.07-.12.07-.17,0-.08.08-.15.1-.2,0-.08.02-.12.05-.2,0-.05.07-.12.1-.15l-.02.17c0,.1-.07.2-.07.22-.03.03-.08.17-.08.2.02.02.02.05.02.08,0,.05-.02.07-.02.1l-.08-.05c0,.08-.05.1-.07.12.05.05.05.08.05.12,0,.02.1-.17.18-.25,0,.05,0,.12-.08.2-.02.07-.02.12-.02.12-.08.05-.08.08-.08.1s0,.08-.02.1l-.15.33v.22s.05-.05.05-.07c-.02-.03-.02-.05-.02-.08,0-.05.02-.1.02-.12.02,0,.05,0,.08-.03,0,.03.02.1.02.15s-.02.08-.02.08c0,0,0,.07.07.07,0-.07,0-.15.08-.15,0,.08-.08.15-.08.2l-.02.2s-.17.33-.17.38c-.02-.05-.05-.08-.05-.1l-.08.1v-.17s-.05.05-.08.05c0,0,0-.1.03-.12,0,0,0-.05.05-.05,0,0,.02-.1.05-.15.05-.02.08-.02.08-.05,0-.08-.25.23-.25.25,0,.08,0,.12-.07.17,0,.08,0,.15-.08.23.02-.03-.08.15-.15.17-.02.02-.08.08-.12.08h-.15c-.05-.08-.12-.08-.18-.12,0,0-.15,0-.2-.05-.1,0-.72-.05-.72-.15Zm.97-.6s-.08.02-.08.1c-.05,0-.07.08-.07.1s.02.05.05.08c0,.08,0,.12-.05.12.02.03.05.12.05.12.02,0,.08-.12.08-.17,0-.1.02-.12.05-.17-.02.05-.05.02-.1.05,0-.1.02-.1.1-.15,0-.05,0-.07-.02-.07Zm.27-.25c-.08,0-.12,0-.12.12,0-.03.02-.05.05-.05.08,0,.08-.05.08-.08Zm.05-2.02s-.1.02-.1.07c-.02.03.08.03.08.03l.02-.1Zm.55.57c0,.1-.02.17-.02.3,0-.05.12-.4.12-.4-.02,0-.07.03-.07.03,0,.02-.03.05-.03.07Zm1.75-3.35s.03-.15.03-.2c-.03,0-.05.15-.08.17l-.1.1.15-.08Zm.23-.03l.12-.08s-.07,0-.07-.05c0,.05-.03.05-.05.12Zm.18-1.12c-.05,0-.1.1-.1.1,0,0,.17-.15.22-.17-.1,0-.12.02-.12.07Zm.9-.45c-.1.02-.27.22-.3.32.1-.1.2-.17.3-.32Z"/>
      <path class="cls-1" d="m91.84,88.91c-.07.17-.27.52-.3.55-.07.15-.07.27-.17.45l-.12.23c-.33.9-.8,2.6-.97,3.52,0,.08-.03.15-.05.2,0,.15-.17.25-.3.25-.12-.05-.15-.05-.15-.05-.05,0-.1.05-.23.05-.07,0-.6-.12-.75-.17,0-.05-.03-.05-.03-.1l-.22-.1c-.08,0-.15-.08-.15-.12v-.1s.02-.05.02-.08c0-.05-.05-.12-.05-.17.4-2.27,1.42-5.5,1.97-8.02,0-.02.05-.12.05-.15l.02-.17c0-.08.1-.15.12-.25,0-.15.27-.17.4-.17.05,0,.52.2.57.2.2,0,.25.05.42.23l.1.12s.05,0,.05.07c.05.05.1.2.1.35v.2c-.05.45-.07.65-.15,1.03.6-.67,2.12-1.9,3-1.9.15,0,.35.32.35.35-.05.03-.6.35-.6.3,0-.02.02-.08.05-.08-.08,0-.1.1-.12.15-.08.08-.1.05-.32.25-.05.02-.23.2-.23.17,0,0,.02-.03.02-.08.08-.08.2-.22.17-.2l-.1.05c-.08.07-.12.12-.23.17-.02.05-.1.08-.15.15-.33.28-.42.35-.42.4,0,0-.12.1-.12.12s-.08.1-.12.1l-.58.8c-.07.05-.22.17-.22.23,0,0,.02,0,.07-.03-.02.08-.1.12-.17.2-.05.02-.05.1-.05.12-.03.07-.12.1-.15.25-.28.38-.7,1.07-.85,1.65,0,0,.08-.1.08-.15.05,0,.05-.08.05-.12.05-.05.25-.55.38-.72.15-.3.42-.67.47-.77l.12-.17c.4-.55.98-1.45,1.77-2.03,0,0-.08.18-.1.15-.6.47-1.72,2.07-2.2,2.85Zm-2.15,1.67s-.1.03-.1.08c-.03.03.07.03.07.03l.02-.1Zm-.05,3.22s-.02.08-.05.1c0,0,.15-.05.17-.1v-.1l-.12.1Zm.2-.47l.05-.1c-.08,0-.17.08-.23.1-.02.05-.05.12-.05.15.02.03.15-.12.22-.15Zm.18-.53l.12-.38s-.05-.05-.08-.05c-.02.15-.05.28-.05.42Zm.22.05l.05-.12s.02-.03.02-.1c-.08.03-.1.17-.15.25,0,.12-.08.1-.15.22v.1s.05-.1.05-.1c.1-.12.17-.12.17-.25Zm.58-2.2s-.05-.08-.05-.08c-.02,0-.07.18-.1.18,0,.02-.05.07-.08.25.02-.05.12-.2.17-.23.03-.02.03-.1.05-.12Zm-.2.42c0,.1-.02.17-.02.28l.12-.38s-.08.03-.08.03c0,.02-.02.05-.02.07Zm1.4-3.85c-.05,0-.1.08-.1.1l-.08.23s0,.07.03.07.02-.02.05-.07c.02-.08.05-.18.08-.18.02-.05.02-.12.02-.15Zm-.02.58c0-.05.02-.15.02-.2-.02,0-.05.15-.08.17l-.1.1.15-.07Zm.2-.03l.12-.08s-.08,0-.08-.05c0,.05-.02.05-.05.12Zm.2-1.12c-.05,0-.1.1-.1.1,0,0,.17-.15.22-.18-.1,0-.12.03-.12.08Zm.9-.45c-.1.02-.27.22-.3.32.1-.1.2-.17.3-.32Z"/>
      <path class="cls-1" d="m99.89,88.63c.18-.25.48-.6.48-.6.02,0,.1-.12.1-.08,0,.08-.1.2-.1.22l-2.02,2.83c-.48.65-1.87,2.32-2.82,2.32,0,0-.45,0-.5-.12-.12,0-.3-.17-.45-.23-.65-.3-.75-1.22-.75-1.95,0-1.92,1.2-3.65,1.8-5.35.05-.17.15-.25.35-.25.07,0,.17.1.23.1.65.2.92.37.92,1.05v.1c-.03.52-.5,1.6-.8,2.37l-.08.17c-.3.85-.52,1.62-.62,2.35l-.02.23c0,.12.02.6.05.6.07,0,.15-.03.2-.05.95-.58,3.5-4.27,4.37-5.42,0,.02-.05.25-.12.45l.07-.1-.02.17-.25.48c.12-.15.23-.28.3-.33l-.1.45s.07-.07.1-.07l-.3.65Zm-5.25.55s-.05-.08-.08-.08c0,.03-.07.1-.07.15.05,0,.07,0,.07.03s-.02.05-.02.1c.05-.1.1-.15.1-.2Zm.05.2c-.07,0-.12.1-.15.17.02.03.08.05.08.05.02,0,.15-.15.15-.2-.02,0-.05-.03-.08-.03Zm.58,1.17v-.12s0-.08.02-.1c-.05.02-.1.07-.1.17,0,.02-.05.1-.05.1,0,.03.02.03.1.03.03,0,.03-.03.03-.08Zm-.03.6s-.02.17-.02.25c.05-.05.08-.08.08-.12.02-.38.02-.4.02-.47l-.08.05v.3Zm.15-.2c.1-.1.15-.3.12-.27-.05,0-.05-.15-.08-.1,0,.03,0,.28-.05.38Zm.17-.92s-.1.03-.1.05c-.02.02-.05.07-.05.1.07,0,.15-.08.15-.15Zm-.02.3s.05-.08.07-.12c-.07,0-.07.02-.1.05.02,0,.02.05.02.08Zm1,2.42c-.07.05-.07.03-.12.08-.07.02-.32.17-.32.22,0,0,.23-.12.27-.15.08-.03.17-.15.17-.15Zm1.67-8.62c-.12.38-.25.42-.45.6-.17.17-.45.22-.65.22-.08,0-.12,0-.23-.03-.23-.1-.4-.12-.48-.3-.12-.2-.15-.38-.15-.5,0-.7.95-.57,1.05-.65.35,0,.9.33.9.65Zm-1.02,7.72l-.15.1s-.05.1-.08.17c.18-.15.35-.32.35-.42,0-.02-.02-.08-.02-.1-.02.02-.1.05-.08.08,0,.02,0,.15-.02.17Zm.35-.62s-.08.05-.1.05c0,.05-.05.08-.05.12,0,.03.05-.03.05-.08.05-.02.08-.08.1-.1Zm.15.15l.15-.22-.1.05-.05.17Zm.2-.42s.03.12.03.12c.02.03.1-.25.17-.3-.1.05-.2.1-.2.17Z"/>
      <path class="cls-1" d="m100.74,92.93c.85,0,2.77-2.37,3.4-3.15.72-.95,1.47-2,2-2.6l-.03.25c.03-.05.08-.1.12-.15.02-.03-.02.17-.05.3l.1-.15s.1.17.1.22c.1.05.03.17.12.17.05,0-.4.72-.45.78l-.6.85c-.75,1.05-3.05,4.35-4.85,4.35-1.35,0-2.27-1.42-2.27-2.75,0-.15.02-.33.02-.48.15-2.02,1.62-5.25,3.7-5.77.5.05,2.02.6,2.02,1.28v.12c-.05,1.67-1.6,2.72-2.82,2.72h-.3s-.12.08-.15.1c-.15.35-.55,1.87-.55,2.85v.28c.02.4.22.77.47.77Zm-1.02-1.2v.22s.12-.02.12-.02c0-.05,0-.12-.12-.2Zm.2-.23c.05.18.05.2.05.2.05,0,.05-.2.05-.33-.05.08-.1.1-.1.12Zm.25-.3c.07-.7.35-1.65.55-2.25-.05.1-.12.27-.15.38l-.12.32s.05-.05.05-.05c0,0-.02.12-.05.15-.02,0-.1.2-.1.27,0,0-.02.08-.05.08s-.05,0-.08.05l.08-.32c.05-.2.27-.88.27-.88-.02,0-.08.08-.08.08-.15.47-.32.97-.35,1.52l.07-.4s.05.05.05.12c0,.05-.03.17-.03.17,0,0-.07.45-.07.75Zm1.12-3.52s-.15-.05-.15-.05c-.02,0-.07.08-.1.08l.08.12s.02-.15.17-.15Zm.12.05l-.12.22c.75-.17,1.62-1.12,1.62-1.82,0-.08-.07-.05-.1-.1-.52.4-.88.75-1.4,1.7Zm0-.28s-.07-.05-.07-.05v.12s.07-.05.07-.08Zm3.72,2.2s-.05.03-.05.05.17-.08.17-.15c-.1,0-.1.03-.1.03,0,.05-.02.07-.02.07Z"/>
      <path class="cls-1" d="m104.37,93.51c-.08,0-.08-.22-.08-.28s0-.07.02-.1c0-.08,0-.12.05-.28v-.45c.02-.08.05-.1.1-.12l.02-.35c.43-2.2,1.02-3.77,1.57-6.05.02-.12.1-.33.1-.53,0-.07.12-.17.12-.2.07-.1.17-.15.32-.18.05,0,.5.18.73.2.12,0,.35.12.38.28.15.15.17.3.17.5v.3c0,.38-.02.38-.08.77.62-.82,2.02-1.8,2.8-1.8.2,0,.38.12.45.28,0,.03.02.08.02.1,0,.05-.02.05-.08.05-.12.05-.27.08-.87.4-.1,0-.15.05-.15.1l-.2.18c-.07,0-.17.07-.17.15l-.57.62c-.08.1-.2.17-.23.22-.15.12-.2.25-.33.38,0,0,0,.05-.07.05-.02.08-.1.15-.1.23-.07.05-.12.17-.12.22-.05.05-.1.05-.1.1,0,0,0,.03-.02.1l-.07.05s-.05.08-.05.12c.02.03-.12.05-.12.08,0,.05-.02.1-.02.15-.07.05-.12.23-.12.28-.1.12-.2.2-.35.47,0-.02-.05-.08-.05-.05,0,.05,0,.08.02.08,0,.07-.02.07-.07.07,0,.05-.02.1-.02.12v.1c-.03.12-.05.02-.05.15-.07,0-.07.05-.12.12,0-.07,0-.1.03-.1,0-.05.02-.1.02-.1,0,.02-.05-.05-.08-.05,0,0-.02.03.02-.07,0-.05.03-.1.03-.12.05-.05.05-.08.05-.12-.08,0-.17.27-.2.3,0,0-.05.15-.05.2-.05,0-.05.07-.05.12-.02.07-.12.3-.12.35,0,.02.07-.22.17-.28.02-.12.05-.2.08-.2,0-.05,0-.12.05-.12,0,0-.02.22-.05.32l.1-.07c-.02.1-.07.12-.12.15v.12s0,.08-.07.08c-.02.12-.05.17-.08.17s-.02-.1-.02-.1c-.12.05-.17.15-.17.27l-.02.15c.07-.15.07-.23.07-.28.08,0,.08.03.08.05,0,0,0,.08-.08.15,0,.03-.02.05-.02.08s.02.05.05.05c0,0-.02.08-.05.05l-.17.3c0,.08,0,.15-.05.2v.17c-.07.08-.07.15-.1.22,0,0-.03.38-.1.38l-.05.25c0,.05-.1.38-.07.38,0,0,.05-.17.07-.2.05,0,.1-.3.1-.32,0,0,.08-.25.08-.3.02-.08.07-.23.1-.3,0-.08.05-.15.05-.2,0-.08.07-.12.07-.17,0-.08.08-.15.1-.2,0-.08.02-.12.05-.2,0-.05.07-.12.1-.15l-.02.17c0,.1-.07.2-.07.22-.03.03-.08.17-.08.2.02.02.02.05.02.08,0,.05-.02.07-.02.1l-.08-.05c0,.08-.05.1-.07.12.05.05.05.08.05.12,0,.02.1-.17.18-.25,0,.05,0,.12-.08.2-.02.07-.02.12-.02.12-.08.05-.08.08-.08.1s0,.08-.02.1l-.15.33v.22s.05-.05.05-.07c-.02-.03-.02-.05-.02-.08,0-.05.02-.1.02-.12.02,0,.05,0,.08-.03,0,.03.02.1.02.15s-.02.08-.02.08c0,0,0,.07.07.07,0-.07,0-.15.08-.15,0,.08-.08.15-.08.2l-.02.2s-.17.33-.17.38c-.02-.05-.05-.08-.05-.1l-.08.1v-.17s-.05.05-.08.05c0,0,0-.1.03-.12,0,0,0-.05.05-.05,0,0,.02-.1.05-.15.05-.02.08-.02.08-.05,0-.08-.25.23-.25.25,0,.08,0,.12-.07.17,0,.08,0,.15-.08.23.02-.03-.08.15-.15.17-.02.02-.08.08-.12.08h-.15c-.05-.08-.12-.08-.18-.12,0,0-.15,0-.2-.05-.1,0-.72-.05-.72-.15Zm.97-.6s-.08.02-.08.1c-.05,0-.07.08-.07.1s.02.05.05.08c0,.08,0,.12-.05.12.02.03.05.12.05.12.02,0,.08-.12.08-.17,0-.1.02-.12.05-.17-.02.05-.05.02-.1.05,0-.1.02-.1.1-.15,0-.05,0-.07-.02-.07Zm.27-.25c-.08,0-.12,0-.12.12,0-.03.02-.05.05-.05.08,0,.08-.05.08-.08Zm.05-2.02s-.1.02-.1.07c-.02.03.08.03.08.03l.02-.1Zm.55.57c0,.1-.02.17-.02.3,0-.05.12-.4.12-.4-.02,0-.07.03-.07.03,0,.02-.03.05-.03.07Zm1.75-3.35s.03-.15.03-.2c-.03,0-.05.15-.08.17l-.1.1.15-.08Zm.23-.03l.12-.08s-.07,0-.07-.05c0,.05-.03.05-.05.12Zm.18-1.12c-.05,0-.1.1-.1.1,0,0,.17-.15.22-.17-.1,0-.12.02-.12.07Zm.9-.45c-.1.02-.27.22-.3.32.1-.1.2-.17.3-.32Z"/>
      <path class="cls-1" d="m118.01,87.66c.05,0,.1.03.1.03-.02.05-.05.2-.05.22.02,0-.25.72-.95,1.65,0-.02-.05-.05-.05-.08-.02.08-.12.12-.12.12.02,0,.05,0,.05.08,0,.15-.12.2-.18.3-.2.35-.75,1.03-.75.95,0-.05-.05-.12-.08-.12-.05.08-.07,0-.1.12.05,0,.05.05.1.05l-.05.08c0,.12-.48.17-.48.5l.12-.12c0-.05.02-.1.27-.23-.6.78-1.45,1.7-1.92,2.05-.02,0,0-.15-.08-.15,0,.03-.12.18-.23.23.08,0,.12-.05.18-.05l-.12.12.07-.05c-.12.1-.87.9-1.87.9-1.35,0-2.17-1.58-2.17-2.72,0-.92.38-2.57.9-3.65.95-1.92,2.45-3.37,3.3-3.4h.15c.3,0,1.85.52,1.85,1.3v.2l-.03.12c-.2,1.3-1.65,2.7-3.4,2.7-.3.5-.85,2.38-.85,3.55,0,.55.1.97.37,1h.1c.95,0,3.7-3.52,4.8-5.02l.17-.22c.48-.65.62-.92.77-1.12l-.02.33h.17l-.1.17.15-.05s.05,0,.07.02l-.12.2Zm-8.05,4.75c0,.12.15.35.15.33,0-.1-.15-.5-.15-.43v.1Zm1.1-4.72v.1c.08,0,.1-.08.12-.15-.07,0-.07.05-.12.05Zm.1,4.2c0,.17.05.4.1.4v-.15c0-.1-.03-.15-.05-.15,0,.05-.05-.03-.05-.1Zm.23.08s.05.15.05.2c-.02.05-.02.08-.02.12v.12c0,.25.05.7.15.7,0-.02-.08-.55-.08-.82-.02-.45-.05-.45-.05-.45,0,.03-.05.08-.05.12Zm.12-.22l.07-.45-.05-.1c-.05,0-.08.42-.08.42.02.08.02.1.05.12Zm.05-.97s.02,0,.02.12l.12-.35v-.22c-.05.12-.15.27-.17.33.02,0,.02.05.02.12Zm3.3-5.1c-.45.05-1.38,1.12-1.97,2.22.62-.07,1.85-1.3,1.97-2.22Zm-1.05,7.67s-.02.02-.05.02l.05-.02Zm.52-.6l-.2.2c.05,0,.18-.15.23-.17,0-.05.1-.15.15-.2-.02,0-.05.03-.12.05-.02.02-.05.07-.05.12Zm.77-.8s.02-.03.02-.08-.05.08-.1.1l.08-.02c-.1.12-.08.12-.08.12.08,0,.23-.27.25-.32-.08.02-.12.15-.17.2Zm2.57-3.97l.1-.2-.05-.05c-.15.25-.17.28-.15.28s.08,0,.1-.03Z"/>
      <path class="cls-1" d="m117.51,91.31c.12.07.33.07.45.12.07.05.17.22.17.25.05.12.05.22.05.32,0,.28-.07.58-.22.78-.05.07-.12.12-.2.17l-.45.22c-.08.03-.17.03-.2.03-.42,0-.82-.35-.82-.83.05-.62.38-1,1.05-1l.17-.07Z"/>
      <path class="cls-1" d="m125.64,88.23h.02l-.23.57s-.05.08-.05.1c-.02.02-.05.07-.05.12v.1c-.08.17-.48,1.32-.48,1.92,0,.1,0,.17.02.22.02.08.05.12.08.12.35,0,2.8-1.77,3.7-2.5l1.65-1.33c1.32-1.05,3.37-2.67,4.25-2.97.07-.15.22-.2.38-.2.12,0,.67-.03.75-.03.2,0,.4.17.62.4.12.1.23.38.23.65,0,.15-.05.33-.05.45,0,.1-.15,1.1-.15,1.1,1.27-.58,1.9-.72,2.5-.85.18-.05.43-.08.62-.08.3,0,.53.08.55.22,0,.1.15.3.15.33,0,.05-.08.1-.15.12-1.05.2-3.07,1.2-3.92,1.85-.97,3.85-1.9,5.8-4,8.85l-.25.12c.08,0,.08.03.08.05l-.1.1c-.1,0-.02.2-.17.2l-.15.1c-.03.3-.08.2-.23.35,0-.08.08-.08.08-.15-.08.07-.23.15-.3.32,0,.03.05.08.05.1,0,.05-.02.1-.1.1-.05,0-.1-.05-.15-.05-.02,0-.05.02-.05.1,0,.05.03.1.03.1-.08,0-.12-.05-.12-.08-.03.1-.08.17-.15.17.05.05.1.05.12.05s.05,0,.08.03c.02,0-.2.15-.3.25-.25.3-.7.6-.85.6-.07,0-.37.17-.47.22.12,0,.17.05.17.08,0,.05-.12.1-.2.1l-.18.05-.1-.05s-.05.03-.05.05c-.02,0-.07.05-.1.07-.05,0-.08.03-.1.03-.08,0-.2-.17-.27-.17,0,0,0,.08-.08.12.08,0,.08-.05.12-.05s.08.12.1.15c-.1.23-.3.23-.48.23-.05,0-.25.15-.3.15-.1,0-.05-.15-.12-.15-.02.1-.08.12-.12.12h-.25l-.42-.07c-.1-.03-.17-.08-.27-.12l-.23-.15s-.15-.02-.17-.05c-.05-.05-.45-.33-.5-.4,0-.05-.17-.12-.17-.2-.02-.05-.02-.12-.02-.2s0-.12.02-.2c.08-1.65,1.62-4.15,2.47-5.27,1.9-2.57,4.4-4.95,6.27-6.22.2-.55.43-1.85.43-2.1-.12.12-.15.2-.33.28-.05,0-.18.1-.23.17l-.18.1c-.02.08-.12.12-.12.12l-.1.1s-.1.05-.1.1c-.02.03-.08.05-.2.05-.05,0-.05.1-.1.15l-.18.2c-.07.02-.12.02-.15.07-.05.1-.27.2-.27.2-.05.03-.4.33-.4.35.05,0,.15-.05.17-.05,0,.03,0,.05-.05.08-.02.05-.15.05-.15.12-.08.05-.1.12-.2.12-.17.12-.3.27-.45.38-.12.17-1.07.9-1.17.92-2.25,1.75-4.4,3.17-5.3,3.17s-1.97-1.05-2.02-1.75v-.23c0-1.92,1.1-4.42,2.07-5.8.1-.12.17-.2.17-.2,0,0,.08.02.12.15,0-.07-.05-.25-.05-.27.1-.15.2-.3.3-.4.02-.07.08-.02.17-.15,0,0,0-.1-.02-.1-.02-.02.05-.05.05-.07s.1-.05.1-.12c.08-.08.1-.23.18-.23.02,0-.03.08-.03.1.08,0,.08-.08.18-.18-.05,0-.08.03-.08.05,0-.08.05-.1.1-.1s.1.03.15.03.12-.03.12-.12c0,0-.15,0-.12.03-.08,0-.2.05-.17.02.57-.9,4.5-5.4,7.82-5.4,1.25,0,3.52,1.07,3.6,2.52-.02.33-.37.92-.8,1.05-.02,0-.05.02-.07.02-.05,0-.12.03-.2.03-.1,0-.2-.03-.25-.33v-.12c0-.12,0-.3-.08-.52-.02-.03-.02-.08-.02-.28-.23-.67-.9-.88-1.12-.88-1.12,0-3.07,1-5.1,2.9-1.3,1.22-2.6,2.82-3.75,4.77-.08,0-.1.02-.1.08s.02.1.02.12c-.2.27-.42.72-.6,1.1Zm-.77,1.2s0-.1-.02-.1c0,.15-.12.27-.15.25-.05.07-.1.17-.1.3.08,0,.08-.03.08-.05l.2-.4Zm-.08,1.22c-.02.1-.05.12-.05.12-.02,0-.05-.1-.1-.1v.17s0,.05-.02.08c.1,0,.08.1.1.15,0-.25.12-.22.15-.57,0-.03-.08-.1-.08-.1v.25Zm-.05-2.12c.12,0,.15,0,.15-.05-.1,0-.12-.05-.15-.08v.12Zm.17-.6s-.07.05-.07.05c0-.05-.02.07-.05.12.05,0,.1.07.1.1l.02-.27Zm.1,1.02c-.07,0-.12,0-.12.02s.02.05.02.08l.1-.1Zm.15-1.38s-.02-.08-.02-.1c-.02,0-.05.05-.12.12.05,0,.1-.03.15-.03Zm0-.6l.08.08c.1,0,.1-.08.1-.08h-.18Zm.08,1.97c0-.1,0-.17-.02-.17-.05,0-.05.05-.05.07,0,.05.02.08.08.1Zm.92-4.72s.05.05.07.05.05,0,.05-.05h-.12Zm4.25,9.25c-1.45,1.8-2.72,3.72-3.42,5.25-.05-.08-.05-.1-.05-.15-.03.05-.1.1-.1.15,0,.03-.05.1-.05.12l.1.05c-.15.33-.17.53-.2.72v.15s.15.12.17.12l.42-.1c2.82-1.4,5.35-6.75,6.3-9.5l.08-.25-1.4,1.32-.05.15-.7.72c-.1.08-.17.2-.25.25l-.23.23s-.02.1-.02.12c-.07.12-.2.15-.25.23l-.35.4Zm-3.55-10.65c0,.05.02.08.02.1.02-.03.05.02.05-.15-.05,0-.08.03-.08.05Zm.25-.3s.02.08.05.08.02-.03.1-.08h-.15Zm1.77,16.85c.08,0,.15-.07.2-.1-.1,0-.1-.1-.1-.1-.08.1-.15.1-.17.17.02.02.05.02.07.02Zm.05.7s.02-.08.05-.08h-.12l.08.08Zm.8-.88s-.2.2-.2.2c.02,0,.27-.1.3-.12-.05,0-.1-.1-.1-.08Zm1-10.55c.08-.1.1-.15.1-.15.02,0-.18.12-.25.15-.08.02-.1.1-.1.15l.25-.15Zm0,8.1c-.1.08-.15.1-.17.1-.02.03-.02.08-.02.1,0,0,.07,0,.07-.1,0,0,.12,0,.12-.1Zm.82,1.02c-.12.08-.1.1-.15.18.02,0,.15,0,.15-.18Zm0-7.22s.08.1.08.1c.02,0,.07-.05.07-.05-.05,0-.15-.08-.15-.05Zm.73-3.72s.05,0,.1-.05c-.17,0-.35.1-.52.33.17-.03.42-.28.42-.28Zm.2,3.32c.08-.1.08-.12.08-.12,0-.05-.05-.05-.05-.05l-.02.17Zm1-4.12c-.15,0-.35.2-.35.18,0,.02,0,.1.02.1.02-.03.08-.1.1-.1.08-.08.15-.08.23-.18Zm-.15,3.75s.1-.02.1-.02c0-.17-.1-.25-.07-.25-.08.05-.1.08-.1.12,0,.02,0,.05.02.1l.05-.15v.2Zm.25-.7s-.07,0-.07.1c.02.03.05.03.07.03.08,0,.15-.17.15-.2-.03,0,.17-.27.15-.33-.05.12-.27.4-.3.4Z"/>
      <path class="cls-1" d="m139.51,92.93c.85,0,2.77-2.37,3.4-3.15.73-.95,1.47-2,2-2.6l-.03.25c.03-.05.08-.1.12-.15.03-.03-.02.17-.05.3l.1-.15s.1.17.1.22c.1.05.02.17.12.17.05,0-.4.72-.45.78l-.6.85c-.75,1.05-3.05,4.35-4.85,4.35-1.35,0-2.28-1.42-2.28-2.75,0-.15.03-.33.03-.48.15-2.02,1.62-5.25,3.7-5.77.5.05,2.02.6,2.02,1.28v.12c-.05,1.67-1.6,2.72-2.82,2.72h-.3s-.12.08-.15.1c-.15.35-.55,1.87-.55,2.85v.28c.03.4.23.77.48.77Zm-1.03-1.2v.22s.12-.02.12-.02c0-.05,0-.12-.12-.2Zm.2-.23c.05.18.05.2.05.2.05,0,.05-.2.05-.33-.05.08-.1.1-.1.12Zm.25-.3c.08-.7.35-1.65.55-2.25-.05.1-.12.27-.15.38l-.12.32s.05-.05.05-.05c0,0-.03.12-.05.15-.02,0-.1.2-.1.27,0,0-.03.08-.05.08s-.05,0-.08.05l.08-.32c.05-.2.27-.88.27-.88-.02,0-.07.08-.07.08-.15.47-.33.97-.35,1.52l.08-.4s.05.05.05.12c0,.05-.02.17-.02.17,0,0-.08.45-.08.75Zm1.12-3.52s-.15-.05-.15-.05c-.03,0-.08.08-.1.08l.07.12s.03-.15.18-.15Zm.12.05l-.12.22c.75-.17,1.62-1.12,1.62-1.82,0-.08-.08-.05-.1-.1-.53.4-.88.75-1.4,1.7Zm0-.28s-.08-.05-.08-.05v.12s.08-.05.08-.08Zm3.72,2.2s-.05.03-.05.05.17-.08.17-.15c-.1,0-.1.03-.1.03,0,.05-.03.07-.03.07Z"/>
      <path class="cls-1" d="m143.56,92.36c.02-.15.6-.6.72-.67-.12.15-.5.45-.5.55.1-.12.42-.4.45-.42.08,0,.02-.03.08-.03,0-.03.05-.1.05-.1,0-.03,0-.05.02-.08l.08-.08c.2-.17.8-.6.97-.72l-.2-.45c-.53-1.07-.92-2.15-.92-3.27,0-1.82,2-3.22,3.5-3.22.05,0,.45.1.45.1l.78.33c.55,0,1.02,1.12,1.02,1.5,0,.45-.32.92-.57,1.15h-.1s-.12.2-.33.2-.25-.03-.27-.03c-.05,0-.28-.08-.3-.08-.12-.05-.28-.12-.28-.2,0-.12.35-1.02.35-1.5-.03-.17-.08-.17-.12-.17h-.1c-.95,0-2.15.7-2.15,1.82,0,.83.7,2.22.97,2.8,1.25-.77,3.37-1.87,4.15-2.57,0,.12-.5.55-.62.58.2,0,.12-.05.53-.3-.15.2-.33.3-.33.33l-.15.15c-.08.08.38-.27.4-.27s.1-.03.12,0c-.23.1-.12.17-.4.4.23,0,.4-.15.45-.22-.03.17-.25.35-.47.5,0,.07,0,.17.1.12,0,.12-.58.47-1.02.75l-2.4,1.47c.1.28.15.45.2.9.03.12.03.22.03.35,0,1.72-1.77,2.85-3.12,2.85l-.33-.05c-.67-.05-1.25-.75-1.25-1.25,0-.33.05-.45.23-.7.08-.12.3-.32.3-.45Zm.75,1.32c.77-.05,1.7-.95,1.4-1.77-.65.45-1.6,1.32-1.6,1.55,0,.05-.2.1-.17.15.1.08.25.08.38.08Zm1.32-6.3c-.02.05-.08.08-.08.12,0,.03.05.05.08.08v-.2Zm.95,2.25s.02.15.05.25l.12.12-.17-.38Zm.2,3.67s-.05.1-.05.12c0,0,.03.03.05.1v-.23Zm.28-3.5c-.08-.1-.2-.35-.28-.5.05.17.12.47.2.55l.08-.05Zm-.2,2.52s.08.08.1.08c.02-.03.05-.15.05-.17l-.15.1Zm.17.65c-.05.08-.12.23-.12.33.08-.12.08-.17.08-.2l.05-.12Zm.15.45s.05-.02.08-.1c.05-.05.05-.15.05-.17-.05.1-.15.27-.12.27Zm.17-2.62c.17.52.2.95.2,1.5-.03.23-.08.45-.15.6l-.02.12c.12-.23.25-.65.25-1.1,0-.3-.05-.75-.2-1.17l-.08.05Z"/>
      <path class="cls-1" d="m156.06,82.53c-.55,0-1.1.03-1.65.08-.32,1.02-.72,2.12-1.1,3.05l-.02-.1.65-1.8c-.08.1-.65,1.45-1.2,3.07-.03.05-.08.15-.08.33l-.08.22s-.03.05-.03.1l-.07.1c-.05.05-.08.15-.08.23v.1l-.22.83c-.23.85-.6,2.4-.6,3.22v.28l.1-.85c.1-.67.27-1.5.47-2.3.03-.03.03-.05.03-.08.02-.03.02-.05.02-.08l.05-.15c.23-.92.48-1.7.6-1.97.02-.15.1-.42.2-.58l.08-.1v-.23s.12-.07.15-.07c-.8,2.22-1.53,4.52-1.58,6.62,0,.12.03.22.12.22.03,0,.08,0,.12-.02,1.1-.6,3.42-3.62,4.6-5.15l.28-.35c.08-.08.1-.17.15-.22.02-.03.05-.08.12-.08l-.1.2s.12-.03.2-.15c0,.03-.03.05-.03.1-.02.1-.08.22-.12.32l.2-.25s0,.08,0,.1c-.05.1-.1.2-.17.3l.22-.23v.25c-.02.05-.02.12-.12.15l-.02.2c-.03.17-.28.5-.35.65l-1.3,1.85c-.22.33-1.52,1.95-1.9,2.12-.12.22-.25.3-.42.45,0,.08-.08.08-.08.08-.17.15-.37.25-.55.38-.17.08-.2.15-.4.2-.1.02-.22.12-.4.12-.1,0-.4-.05-.47-.12-.05,0-.27-.05-.3-.08-.08,0-.58-.3-.67-.38-.03-.03-.08-.05-.08-.08-.1-.05-.1-.15-.15-.17l-.1-.22s-.02-.08-.02-.1c-.03-.15-.05-.2-.05-.38v-.15c0-.08-.05-.15-.05-.22,0-.03,0-.05.03-.08,0,0-.03-.08-.03-.1,0,0,.03-.12.05-.15v-.12s0-.1.03-.15c-.05-.05-.08-.07-.08-.1.03-.12.08-.2.08-.28l.03-.32s-.03-.05-.03-.08c0,0,0-.03.03-.1,0-.18.05-.43.12-.58.02-.05.02-.08.05-.22,0-.12.02-.2.05-.28.05-.08.08-.22.08-.35v-.12c.02-.12.12-.28.15-.4.45-1.82,1.17-3.72,1.92-5.55-1.15.15-2.2.33-2.97.38h-.47c-.52,0-1.38-.1-1.57-.7-.03-.08-.05-.17-.05-.33,0-.08.02-.15.07-.22,0-.05.12-.08.17-.08,0,0,0,.02.08.05.12.03.35.05.65.05.72,0,1.85-.08,2.57-.15.82-.1,1.47-.15,2.02-.2l.8-2.1.17-.38s.1-.08.15-.08c.07,0,.35.15.45.15.4,0,.45.33.48.67.02.1.15.22.15.25v.12c-.05.38-.12.8-.25,1.05l-.05.2h1.1c1.17.02,2.05.32,2.27.57-.02.15-.15.1-.15.15,0,.02,0,.12.05.15-.03.03-.3.1-.35.2-.1,0-.25-.03-.78-.05-.27-.03-.52-.03-.82-.03Zm-3.15,10.45s-.7.53-1,.6c.22,0,.97-.48,1-.6Zm2.5-2.7s-.12.15-.12.2c-.02.08-.08.17-.22.17-.03,0-.05.03-.08.05l-.1.2s-.05.1-.08.1,0,.07-.05.07l-.1.08c-.02.08-.05.12-.12.17l-.1.12s-.17.17-.2.25c.03,0,.23-.2.23-.22l.2-.2c.03-.1.15-.15.2-.22,0,0,.03-.05.03-.08,0-.05.07-.15.1-.17.1,0,.15-.05.2-.12.05-.05.08-.12.15-.17l.2-.25.2-.33s-.1.05-.1.08c-.02.08,0,.1-.12.15,0,.03-.1.08-.17.15l.08-.03Zm.62-1.17c.15-.05.33-.27.33-.3.02-.05.05-.15.02-.12l-.35.42Zm1.42-6.75h.1s-.02-.08-.05-.08c-.03.05-.05.08-.05.08Z"/>
      <path class="cls-1" d="m165.06,86.96l-.1.8.2-.27-.02.17-.08.12.12-.05.05.2-.03.2-.7,1.12c-.4.65-1.8,2.85-2.7,3.65-.23.2-.5.38-.8.47-.05.03-.18.03-.2.03-.08,0-.38-.03-.47-.03-.15,0-.28-.12-.45-.2-.55-.2-.88-.85-.88-1.47v-.22c0-.83.12-1.5.28-2.17-.62.97-1.77,3.15-2.85,3.27-.08,0-.5-.28-.6-.33-.38-.2-.55-.1-.78-.8,0,0-.02-.08-.05-.12v-.2c-.02-.05-.05-.08-.05-.12,0-.1.08-.23.08-.38v-.23c0-.12,0-.17.08-.22v-.33c.3-1.67,2.52-4.95,4.25-4.95.25,0,.78.3,1.12.38.12-.15.33-.7.72-.73l.2.1h.1c.37,0,.85.38.85.55-.03.25-.1.77-.25,1.05-.42.67-1.38,4.95-1.38,6.15.05.2.08.2.08.2.9-.43,3.52-4.62,4.25-5.65Zm-9.55,2.12c.1-.03.17-.25.2-.35-.1.07-.15.22-.2.35Zm.2-.35l.02-.2s-.02.1-.1.15c.03,0,.05.03.08.05Zm3.97-2.25c-.4.05-1.22.97-1.87,1.97-.48.7-.95,1.77-1.17,2.45-.05.12-.05.23-.05.33l-.08.22s.08-.02.12-.08c.08-.1.02,0,1.12-1.7.7-1.07,1.62-2.55,2.17-3.22-.08,0-.2.03-.25.03Zm.7,3.7c.08,0,.1-.03.1-.15,0-.02,0-.05-.1-.1v.25Zm.2.83s0-.1.02-.12l-.02-.23c-.03.12-.03.2-.1.28.05.05.08.08.1.08Zm.2-.38c-.1.35-.07.67-.12,1.02,0,.05-.02.1-.02.15v.12c.1-1.25.65-3.67,1.07-4.9-.22.22-.75,2.5-.8,3.02-.02.17-.12.25-.12.42v.15Zm-.02-.42l-.05-.15s0,.03,0,.1c0,.05-.03.12-.05.15-.02.03-.02.1-.02.12s0,.08.02.1c0-.15.05-.2.1-.32Zm-.08-1.2l.08-.08c.05-.08.05-.15.05-.2,0-.03.05-.05.05-.08s-.03-.05-.03-.08c-.07.12-.07.22-.15.42Zm.1,1.02s-.05.1-.02.1.07-.1.1-.12c-.05,0-.05.02-.08.02Zm.15-2.17v-.23l-.12.48s-.03-.03.1-.03c0-.05.03-.17.03-.22Z"/>
      <path class="cls-1" d="m170.09,87.61l.08.38.15-.23s-.02.15-.02.15c0,.03-.05.12-.12.25l.12.17s.12-.12.12-.08c0,.03-.05.12-.23.42-.17.25-.47.8-.77.88.05.03.08.05.12.05.03-.05.05-.1.1-.1-.77,1.25-2.8,4.35-4.07,4.8-.23.05-.1.12-.43.12-.05,0-.12,0-.2-.05-.15-.12-.58-.25-.72-.4-.5-.47-.48-1.3-.53-1.5,0-.08.03-.15.08-.25,0,.05,0,.1.02.15.05-.08.05-.17.05-.27-.03,0-.08,0-.1.02-.02-.08-.05-.08-.05-.15s.03-.12.03-.3v-.15c.02-.2,0-.35.07-.67,0,0-.07-.1-.07-.17-.03.05-.03.08-.03.1-.05.35-.08.62-.08,1.03v.47c.03.55.12,1.2.38,1.55-.3,0-.47-.98-.5-1.7v-.3c0-1.1.38-2.3.65-3.2.67-2.22,2.1-5.82,3.07-8.85.08-.12.17-.2.32-.2.08,0,.12.05.15.12.5.17.8.58.8,1.03.05.07.05.15.05.22,0,.1,0,.17-.02.25-.42,1.9-.83,3.07-1.5,5.02-.6,1.65-1.77,4.92-1.77,6.77v.1c.05.18,0,.3.1.3.03,0,.08-.03.12-.05,1.38-1.05,3.85-4.92,4.45-5.67.1-.15.15-.25.3-.28l-.12.2Zm-6.25,5.3s0,.05.02.07l.05-.12c0-.07-.02-.15-.02-.22l-.05.28Zm.25-3.65s.02.1.05.12c0-.08.05-.17.05-.28-.05.03-.1.08-.1.15Zm.1-.38s0,.08.03.08c.05-.05.05-.1.05-.15-.05,0-.08.03-.08.08Zm.25-.75c-.1.15-.12.33-.17.53l.1-.05s.03-.1.03-.1l.05-.38Zm.52,4.42c.05-.15.05-.32.05-.52l-.1.42v.4l.05.08v-.38Zm.25-2.1s.05-.05.05-.07v-.1s.03-.17.05-.25c-.05.05-.08.08-.12.08,0,.08.02.17.02.35Zm.12-1.02s-.08.03-.08.1l.03.1.05-.2Zm.03-.08h.17l-.05-.07.05-.15s.05-.08.05-.15c-.08.03-.08.1-.1.18,0,0-.05.17-.12.2Zm.85,4.22l-.2.2s.17-.15.23-.17c0-.05.1-.15.15-.2-.02,0-.05.02-.12.05-.02.02-.05.08-.05.12Zm.65-1.38s.08-.05.1-.05c0-.05.05-.08.05-.12,0-.03-.05.02-.05.08-.05.02-.08.07-.1.1Z"/>
      <path class="cls-1" d="m169.01,82.36c.03-.17.1-.27.23-.27.02,0,.05.02.1.05.12.05.23.05.33.05h.17c.1,0,.17-.03.3-.03.45-.07.97-.12,1.52-.2.35-.83.67-1.65.95-2.42l.17-.38s.1-.08.15-.08c.07,0,.35.15.45.15.4,0,.45.33.48.67.02.1.15.22.15.25v.12c-.05.38-.12.8-.25,1.05l-.12.47c.17-.03.38-.03.55-.03.58,0,1.12.05,1.72.15.23.05.58.17.67.4l.05.1c0,.08-.03.2-.03.3.03,0,.1.12.15.15-.05,0-.22-.05-.27-.05h-.4c-.12,0-.25-.02-.42-.05h-.4c-.17,0-.4.03-.6.03-.42.05-.92.08-1.4.15-.3.92-.65,1.88-.97,2.7l-.02-.1.65-1.8c-.08.1-.65,1.45-1.2,3.07-.03.05-.08.15-.08.33l-.08.22s-.03.05-.03.1l-.07.1c-.05.05-.08.15-.08.23v.1l-.22.83c-.23.85-.6,2.4-.6,3.22v.28l.1-.85c.1-.67.27-1.5.47-2.3.03-.03.03-.05.03-.08.02-.03.02-.05.02-.08l.05-.15c.23-.92.48-1.7.6-1.97.02-.15.1-.42.2-.58l.08-.1v-.23s.12-.07.15-.07c-.8,2.22-1.53,4.52-1.58,6.62,0,.12.03.22.12.22.03,0,.08,0,.12-.02,1.1-.6,3.42-3.62,4.6-5.15l.28-.35c.08-.08.1-.17.15-.22.02-.03.05-.08.12-.08l-.1.2s.12-.03.2-.15c0,.03-.03.05-.03.1-.02.1-.08.22-.12.32l.2-.25s0,.08,0,.1c-.05.1-.1.2-.17.3l.22-.23v.25c-.02.05-.02.12-.12.15l-.02.2c-.03.17-.28.5-.35.65l-1.3,1.85c-.22.33-1.52,1.95-1.9,2.12-.12.22-.25.3-.42.45,0,.08-.08.08-.08.08-.17.15-.37.25-.55.38-.17.08-.2.15-.4.2-.1.02-.22.12-.4.12-.1,0-.4-.05-.47-.12-.05,0-.27-.05-.3-.08-.08,0-.58-.3-.67-.38-.03-.03-.08-.05-.08-.08-.1-.05-.1-.15-.15-.17l-.1-.22s-.02-.08-.02-.1c-.03-.15-.05-.2-.05-.38v-.15c0-.08-.05-.15-.05-.22,0-.03,0-.05.03-.08,0,0-.03-.08-.03-.1,0,0,.03-.12.05-.15v-.12s0-.1.03-.15c-.05-.05-.08-.07-.08-.1.03-.12.08-.2.08-.28l.03-.32s-.03-.05-.03-.08c0,0,0-.03.03-.1,0-.18.05-.43.12-.58.02-.05.02-.08.05-.22,0-.12.02-.2.05-.28.05-.08.08-.22.08-.35v-.12c.02-.12.12-.28.15-.4.4-1.67,1.08-3.42,1.75-5.1h-.17c-.28.08-.55.08-.85.1-.33,0-1.1-.27-1.1-1.02Zm2.88,10.62s-.7.53-1,.6c.22,0,.97-.48,1-.6Zm2.5-2.7s-.12.15-.12.2c-.02.08-.08.17-.22.17-.03,0-.05.03-.08.05l-.1.2s-.05.1-.08.1,0,.07-.05.07l-.1.08c-.02.08-.05.12-.12.17l-.1.12s-.17.17-.2.25c.03,0,.23-.2.23-.22l.2-.2c.03-.1.15-.15.2-.22,0,0,.03-.05.03-.08,0-.05.07-.15.1-.17.1,0,.15-.05.2-.12.05-.05.08-.12.15-.17l.2-.25.2-.33s-.1.05-.1.08c-.02.08,0,.1-.12.15,0,.03-.1.08-.17.15l.08-.03Zm.62-1.17c.15-.05.33-.27.33-.3.02-.05.05-.15.02-.12l-.35.42Z"/>
      <path class="cls-1" d="m176.46,92.93c.85,0,2.77-2.37,3.4-3.15.73-.95,1.47-2,2-2.6l-.03.25c.03-.05.08-.1.12-.15.03-.03-.02.17-.05.3l.1-.15s.1.17.1.22c.1.05.02.17.12.17.05,0-.4.72-.45.78l-.6.85c-.75,1.05-3.05,4.35-4.85,4.35-1.35,0-2.27-1.42-2.27-2.75,0-.15.02-.33.02-.48.15-2.02,1.62-5.25,3.7-5.77.5.05,2.02.6,2.02,1.28v.12c-.05,1.67-1.6,2.72-2.82,2.72h-.3s-.12.08-.15.1c-.15.35-.55,1.87-.55,2.85v.28c.03.4.23.77.48.77Zm-1.03-1.2v.22s.12-.02.12-.02c0-.05,0-.12-.12-.2Zm.2-.23c.05.18.05.2.05.2.05,0,.05-.2.05-.33-.05.08-.1.1-.1.12Zm.25-.3c.08-.7.35-1.65.55-2.25-.05.1-.12.27-.15.38l-.12.32s.05-.05.05-.05c0,0-.03.12-.05.15-.02,0-.1.2-.1.27,0,0-.03.08-.05.08s-.05,0-.08.05l.08-.32c.05-.2.27-.88.27-.88-.02,0-.07.08-.07.08-.15.47-.33.97-.35,1.52l.08-.4s.05.05.05.12c0,.05-.02.17-.02.17,0,0-.08.45-.08.75Zm1.12-3.52s-.15-.05-.15-.05c-.03,0-.08.08-.1.08l.07.12s.03-.15.18-.15Zm.12.05l-.12.22c.75-.17,1.62-1.12,1.62-1.82,0-.08-.08-.05-.1-.1-.53.4-.88.75-1.4,1.7Zm0-.28s-.08-.05-.08-.05v.12s.08-.05.08-.08Zm3.72,2.2s-.05.03-.05.05.17-.08.17-.15c-.1,0-.1.03-.1.03,0,.05-.03.07-.03.07Z"/>
      <path class="cls-1" d="m190.66,87.23s0,.22-.05.42l.02-.05.1.22.22-.27-.35.55c.1-.08.22-.17.35-.3v.22l-.7,1.22-.35.47s-.12.15-.12.15c0-.03.08-.12.08-.23,0-.02-.17.2-.17.25s.05.03.05.05-.03.07-.08.15c-.1.17-.25.2-.25.2,0,.05,0,.08-.02.08,0,.1-.15.22-.15.22t.03.03s.2-.23.22-.23c-.52.78-1.08,1.55-1.67,2.27-.72.92-1.3,1.3-1.72,1.38-.3,0-.62-.08-.9-.17-.62-.38-.72-.75-.75-1.22v-.42c0-.05,0-.12.03-.18v-.15c0-.17.02-.3.05-.42,0-.1.25-1,.3-1.17.33-1.02.92-2.75,1-3.35l.02-.4s0-.08-.02-.08c-.42.17-1.77,1.77-3.07,4.22-.3.53-.3.9-.65,1.47,0,.08-.05.15-.08.23-.12.3-.37.33-.65.33-.33-.08-.92-.68-1-.65-.07,0-.15-.03-.17-.1-.02-.05-.12-.08-.12-.12s.03-.1.05-.17c.67-2.47,1.4-5.3,1.67-6.52.03-.08.08-.23.22-.23.12,0,.78.28.85.33.12.1.4.35.42.5.02.17,0,.22.05.45v.12c0,.35-.1.87-.28,1.52.58-.97,1.5-2.08,2.17-2.38.22-.15.4-.2.65-.2.62.25,1.5.5,1.62,1.2.08.22.08.47.08.75,0,.62-.42,2.02-.6,2.57-.3.97-.85,2.42-.9,3.25,0,.12,0,.15.03.15.45,0,4.15-5.42,4.55-5.97Zm-9.85,3.17s.03-.1.03-.17c0-.02-.08.03-.08.03,0,0,.05.1.05.15Zm.47-.8s-.05-.05-.05-.1c-.03.05-.03.1-.08.15.08-.02.1-.05.12-.05Zm4.47,3.07s.07.12.07.12c0,.05-.07.17-.07.3l.07-.05s.03-.08.03-.08c0-.07,0-.17.02-.27,0-.05.03-.08.03-.1.03,0,.03-.08.03-.12.02-.08.02-.18.1-.25v-.12s-.08.02-.1.1c0,.05,0,.12-.03.12,0,0-.08.08-.08.05,0-.08.08-.27.08-.3s.03-.05.03-.12c0,0,.05,0,.05-.1.05,0,.05-.1.05-.12,0,.02.05-.05.05-.08,0,0,.1-.08.08-.08,0-.05-.05-.05-.08-.05l-.05-.15v.12h-.1s0,.05.02.08c-.02,0-.1.08-.1.1l.1-.03s-.1.08-.1.15c0,.05,0,.07-.05.1,0,.03.02.1.02.1,0,.05-.07.05-.07.08v.35s.07.08.07.1-.07.1-.07.15Zm.27-.67s.03,0,.03-.05l.02-.12c-.05.08-.05.12-.05.17Zm.15-1.1l-.08-.05s.05.1.1.1c.03,0,.05-.02.08-.05,0-.08.03-.2.03-.2-.03,0-.05.03-.05.05-.02.02-.07.07-.07.15Zm.2-1.57c-.02.08-.07.15-.07.22.02-.12.17-.33.22-.38-.1.03-.12.1-.15.15Zm.4-.38s-.1.25-.12.3c0,.03.12-.17.12-.17.02,0,.05-.03.05-.12v-.1s-.05.08-.05.1Zm1.2,3.22s-.05.08-.05.12l-.2.2c.05,0,.18-.15.23-.17,0-.05.1-.15.15-.2-.02,0-.05.03-.12.05Zm.58-.75s.03-.03.03-.08-.05.08-.1.1l.08-.02c-.1.12-.08.12-.08.12.08,0,.23-.28.25-.33-.08.02-.12.15-.17.2Zm.45-.5s.07-.12.15-.2c-.2.2-.35.2-.35.42,0,0,.03-.02.2-.22Zm1.17-1.77l-.1.12.12-.05.08-.22s-.1.12-.1.15Z"/>
      <path class="cls-1" d="m189.19,91.63s.05,0,.08-.02c.02-.03.12-.12.22-.1.05,0,.1.03.15.05h.15c.15.02.15.05.2.07h.15c.38.1.62.38.6.7-.03.2-.05.4-.15.52-.27.25-.47.38-.85.38-.62-.2-1.02-.05-.97-.97.05-.25.17-.65.42-.62Zm3.9-11.6c.47.05.85.12,1.27.38.05,0,.1.05.1.08-.02.2-.02.35-.08.52l-.52,1.5c-.58,1.55-1.12,3.2-1.57,4.8l-.28.62-.17.62s-.08.05-.1.1l-.05.38s-.02-.03,0-.12c0-.03-.05.02-.07.05l-.15.42s-.05-.05-.03-.08c0-.05.05-.1.05-.17v-.15c-.03.12-.05.25-.1.33-.12.15-.1.12-.17.35-.03-.07-.03-.12-.03-.17,0,.05-.05.1-.05.12-.02.08-.05.17-.1.28-.05-.05-.08-.1-.08-.15,0,0-.6.15-.67.23-.03,0-.05,0-.05-.08,0,.02-.03.05-.03.08-.02.07-.08.12-.15.2,0-.05,0-.1-.03-.1-.05,0-.12.33-.12.35-.02,0-.05-.02-.05-.05,0-.05-.05-.1-.03-.22-.05.08-.1.15-.15.22v-.1l.02-.33c.08-.22.05-.42.12-.65v-.1c.08-.55.23-1.12.35-1.6.27-1.25.52-2.27.92-3.3l1.32-3.67c.08-.33.12-.48.42-.58h.23Z"/>
    </g>
  </g>
</svg>