<?xml version="1.0" encoding="utf-8"?>
<!-- Generator: Adobe Illustrator 15.1.0, SVG Export Plug-In . SVG Version: 6.00 Build 0)  -->
<!DOCTYPE svg PUBLIC "-//W3C//DTD SVG 1.1//EN" "http://www.w3.org/Graphics/SVG/1.1/DTD/svg11.dtd">
<svg version="1.1" id="Ebene_1" xmlns="http://www.w3.org/2000/svg" xmlns:xlink="http://www.w3.org/1999/xlink" x="0px" y="0px"
	 width="231px" height="171px" viewBox="0 0 231 171" enable-background="new 0 0 231 171" xml:space="preserve">
<g>
	<line fill="#E30613" stroke="#9D9D9C" stroke-width="0.5" stroke-miterlimit="10" x1="60.633" y1="0.035" x2="60.633" y2="1.767"/>
	<linearGradient id="SVGID_1_" gradientUnits="userSpaceOnUse" x1="60.4995" y1="0.1719" x2="62.229" y2="0.1719">
		<stop  offset="0" style="stop-color:#FFFFFF"/>
		<stop  offset="1" style="stop-color:#000000"/>
	</linearGradient>
	
		<line fill="url(#SVGID_1_)" stroke="#9D9D9C" stroke-width="0.5" stroke-miterlimit="10" x1="62.229" y1="0.172" x2="60.5" y2="0.172"/>
	<g>
		<linearGradient id="SVGID_2_" gradientUnits="userSpaceOnUse" x1="117.3594" y1="0.9233" x2="117.3594" y2="0.9233">
			<stop  offset="0" style="stop-color:#FFFFFF"/>
			<stop  offset="1" style="stop-color:#000000"/>
		</linearGradient>
		
			<line fill="url(#SVGID_2_)" stroke="#9D9D9C" stroke-width="0.5" stroke-miterlimit="10" x1="117.359" y1="0.08" x2="117.359" y2="1.767"/>
		<linearGradient id="SVGID_3_" gradientUnits="userSpaceOnUse" x1="115.7637" y1="0.1719" x2="118.9551" y2="0.1719">
			<stop  offset="0" style="stop-color:#FFFFFF"/>
			<stop  offset="1" style="stop-color:#000000"/>
		</linearGradient>
		
			<line fill="url(#SVGID_3_)" stroke="#9D9D9C" stroke-width="0.5" stroke-miterlimit="10" x1="118.955" y1="0.172" x2="115.764" y2="0.172"/>
	</g>
	<g>
		<linearGradient id="SVGID_4_" gradientUnits="userSpaceOnUse" x1="174.0869" y1="0.9189" x2="174.0869" y2="0.9189">
			<stop  offset="0" style="stop-color:#FFFFFF"/>
			<stop  offset="1" style="stop-color:#000000"/>
		</linearGradient>
		
			<line fill="url(#SVGID_4_)" stroke="#9D9D9C" stroke-width="0.5" stroke-miterlimit="10" x1="174.087" y1="0.071" x2="174.087" y2="1.767"/>
		<linearGradient id="SVGID_5_" gradientUnits="userSpaceOnUse" x1="172.4902" y1="0.1719" x2="175.6836" y2="0.1719">
			<stop  offset="0" style="stop-color:#FFFFFF"/>
			<stop  offset="1" style="stop-color:#000000"/>
		</linearGradient>
		
			<line fill="url(#SVGID_5_)" stroke="#9D9D9C" stroke-width="0.5" stroke-miterlimit="10" x1="175.684" y1="0.172" x2="172.49" y2="0.172"/>
	</g>
	<linearGradient id="SVGID_6_" gradientUnits="userSpaceOnUse" x1="60.6328" y1="56.9761" x2="60.6328" y2="56.9761">
		<stop  offset="0" style="stop-color:#FFFFFF"/>
		<stop  offset="1" style="stop-color:#000000"/>
	</linearGradient>
	
		<line fill="url(#SVGID_6_)" stroke="#9D9D9C" stroke-width="0.5" stroke-miterlimit="10" x1="60.633" y1="55.381" x2="60.633" y2="58.571"/>
	<linearGradient id="SVGID_7_" gradientUnits="userSpaceOnUse" x1="60.6328" y1="56.9751" x2="62.228" y2="56.9751">
		<stop  offset="0" style="stop-color:#FFFFFF"/>
		<stop  offset="1" style="stop-color:#000000"/>
	</linearGradient>
	
		<line fill="url(#SVGID_7_)" stroke="#9D9D9C" stroke-width="0.5" stroke-miterlimit="10" x1="62.228" y1="56.975" x2="60.633" y2="56.975"/>
	<linearGradient id="SVGID_8_" gradientUnits="userSpaceOnUse" x1="60.6328" y1="113.627" x2="60.6328" y2="113.627">
		<stop  offset="0" style="stop-color:#FFFFFF"/>
		<stop  offset="1" style="stop-color:#000000"/>
	</linearGradient>
	
		<line fill="url(#SVGID_8_)" stroke="#9D9D9C" stroke-width="0.5" stroke-miterlimit="10" x1="60.633" y1="112.031" x2="60.633" y2="115.222"/>
	<linearGradient id="SVGID_9_" gradientUnits="userSpaceOnUse" x1="60.5879" y1="113.625" x2="62.228" y2="113.625">
		<stop  offset="0" style="stop-color:#FFFFFF"/>
		<stop  offset="1" style="stop-color:#000000"/>
	</linearGradient>
	
		<line fill="url(#SVGID_9_)" stroke="#9D9D9C" stroke-width="0.5" stroke-miterlimit="10" x1="62.228" y1="113.625" x2="60.588" y2="113.625"/>
	<g>
		<linearGradient id="SVGID_10_" gradientUnits="userSpaceOnUse" x1="230.7432" y1="0.897" x2="230.7432" y2="0.897">
			<stop  offset="0" style="stop-color:#FFFFFF"/>
			<stop  offset="1" style="stop-color:#000000"/>
		</linearGradient>
		
			<line fill="url(#SVGID_10_)" stroke="#9D9D9C" stroke-width="0.5" stroke-miterlimit="10" x1="230.743" y1="0.027" x2="230.743" y2="1.767"/>
		<linearGradient id="SVGID_11_" gradientUnits="userSpaceOnUse" x1="229.1475" y1="0.1719" x2="230.8135" y2="0.1719">
			<stop  offset="0" style="stop-color:#FFFFFF"/>
			<stop  offset="1" style="stop-color:#000000"/>
		</linearGradient>
		
			<line fill="url(#SVGID_11_)" stroke="#9D9D9C" stroke-width="0.5" stroke-miterlimit="10" x1="230.813" y1="0.172" x2="229.147" y2="0.172"/>
	</g>
	<g>
		<line fill="none" stroke="#9D9D9C" stroke-width="0.5" stroke-miterlimit="10" x1="60.633" y1="26.94" x2="60.633" y2="30.131"/>
		<line fill="none" stroke="#9D9D9C" stroke-width="0.5" stroke-miterlimit="10" x1="62.229" y1="28.535" x2="60.526" y2="28.535"/>
	</g>
	<g>
		<linearGradient id="SVGID_12_" gradientUnits="userSpaceOnUse" x1="230.7432" y1="28.5352" x2="230.7432" y2="28.5352">
			<stop  offset="0" style="stop-color:#FFFFFF"/>
			<stop  offset="1" style="stop-color:#000000"/>
		</linearGradient>
		
			<line fill="url(#SVGID_12_)" stroke="#9D9D9C" stroke-width="0.5" stroke-miterlimit="10" x1="230.743" y1="26.94" x2="230.743" y2="30.131"/>
		<linearGradient id="SVGID_13_" gradientUnits="userSpaceOnUse" x1="229.1475" y1="28.5347" x2="230.7432" y2="28.5347">
			<stop  offset="0" style="stop-color:#FFFFFF"/>
			<stop  offset="1" style="stop-color:#000000"/>
		</linearGradient>
		
			<line fill="url(#SVGID_13_)" stroke="#9D9D9C" stroke-width="0.5" stroke-miterlimit="10" x1="230.743" y1="28.535" x2="229.147" y2="28.535"/>
	</g>
	<g>
		<linearGradient id="SVGID_14_" gradientUnits="userSpaceOnUse" x1="60.6328" y1="169.5938" x2="60.6328" y2="169.5938">
			<stop  offset="0" style="stop-color:#FFFFFF"/>
			<stop  offset="1" style="stop-color:#000000"/>
		</linearGradient>
		
			<line fill="url(#SVGID_14_)" stroke="#9D9D9C" stroke-width="0.5" stroke-miterlimit="10" x1="60.633" y1="168.759" x2="60.633" y2="170.429"/>
		<linearGradient id="SVGID_15_" gradientUnits="userSpaceOnUse" x1="60.4995" y1="170.3525" x2="62.228" y2="170.3525">
			<stop  offset="0" style="stop-color:#FFFFFF"/>
			<stop  offset="1" style="stop-color:#000000"/>
		</linearGradient>
		
			<line fill="url(#SVGID_15_)" stroke="#9D9D9C" stroke-width="0.5" stroke-miterlimit="10" x1="62.228" y1="170.353" x2="60.5" y2="170.353"/>
	</g>
	<g>
		<linearGradient id="SVGID_16_" gradientUnits="userSpaceOnUse" x1="117.3594" y1="169.5557" x2="117.3594" y2="169.5557">
			<stop  offset="0" style="stop-color:#FFFFFF"/>
			<stop  offset="1" style="stop-color:#000000"/>
		</linearGradient>
		
			<line fill="url(#SVGID_16_)" stroke="#9D9D9C" stroke-width="0.5" stroke-miterlimit="10" x1="117.359" y1="168.759" x2="117.359" y2="170.353"/>
		<linearGradient id="SVGID_17_" gradientUnits="userSpaceOnUse" x1="115.7637" y1="170.3525" x2="118.9551" y2="170.3525">
			<stop  offset="0" style="stop-color:#FFFFFF"/>
			<stop  offset="1" style="stop-color:#000000"/>
		</linearGradient>
		
			<line fill="url(#SVGID_17_)" stroke="#9D9D9C" stroke-width="0.5" stroke-miterlimit="10" x1="118.955" y1="170.353" x2="115.764" y2="170.353"/>
	</g>
	<g>
		<linearGradient id="SVGID_18_" gradientUnits="userSpaceOnUse" x1="174.0869" y1="169.5371" x2="174.0869" y2="169.5371">
			<stop  offset="0" style="stop-color:#FFFFFF"/>
			<stop  offset="1" style="stop-color:#000000"/>
		</linearGradient>
		
			<line fill="url(#SVGID_18_)" stroke="#9D9D9C" stroke-width="0.5" stroke-miterlimit="10" x1="174.087" y1="168.759" x2="174.087" y2="170.315"/>
		<linearGradient id="SVGID_19_" gradientUnits="userSpaceOnUse" x1="172.4902" y1="170.3525" x2="175.6836" y2="170.3525">
			<stop  offset="0" style="stop-color:#FFFFFF"/>
			<stop  offset="1" style="stop-color:#000000"/>
		</linearGradient>
		
			<line fill="url(#SVGID_19_)" stroke="#9D9D9C" stroke-width="0.5" stroke-miterlimit="10" x1="175.684" y1="170.353" x2="172.49" y2="170.353"/>
	</g>
	<g>
		<linearGradient id="SVGID_20_" gradientUnits="userSpaceOnUse" x1="230.7432" y1="169.6211" x2="230.7432" y2="169.6211">
			<stop  offset="0" style="stop-color:#FFFFFF"/>
			<stop  offset="1" style="stop-color:#000000"/>
		</linearGradient>
		
			<line fill="url(#SVGID_20_)" stroke="#9D9D9C" stroke-width="0.5" stroke-miterlimit="10" x1="230.743" y1="168.759" x2="230.743" y2="170.483"/>
		<linearGradient id="SVGID_21_" gradientUnits="userSpaceOnUse" x1="229.1475" y1="170.3525" x2="230.8135" y2="170.3525">
			<stop  offset="0" style="stop-color:#FFFFFF"/>
			<stop  offset="1" style="stop-color:#000000"/>
		</linearGradient>
		
			<line fill="url(#SVGID_21_)" stroke="#9D9D9C" stroke-width="0.5" stroke-miterlimit="10" x1="230.813" y1="170.353" x2="229.147" y2="170.353"/>
	</g>
	<g>
		<linearGradient id="SVGID_22_" gradientUnits="userSpaceOnUse" x1="60.6328" y1="85.2617" x2="60.6328" y2="85.2617">
			<stop  offset="0" style="stop-color:#FFFFFF"/>
			<stop  offset="1" style="stop-color:#000000"/>
		</linearGradient>
		
			<line fill="url(#SVGID_22_)" stroke="#9D9D9C" stroke-width="0.5" stroke-miterlimit="10" x1="60.633" y1="83.666" x2="60.633" y2="86.857"/>
		<linearGradient id="SVGID_23_" gradientUnits="userSpaceOnUse" x1="60.5796" y1="85.2627" x2="62.228" y2="85.2627">
			<stop  offset="0" style="stop-color:#FFFFFF"/>
			<stop  offset="1" style="stop-color:#000000"/>
		</linearGradient>
		
			<line fill="url(#SVGID_23_)" stroke="#9D9D9C" stroke-width="0.5" stroke-miterlimit="10" x1="62.228" y1="85.263" x2="60.58" y2="85.263"/>
	</g>
	<g>
		<linearGradient id="SVGID_24_" gradientUnits="userSpaceOnUse" x1="230.7432" y1="85.2617" x2="230.7432" y2="85.2617">
			<stop  offset="0" style="stop-color:#FFFFFF"/>
			<stop  offset="1" style="stop-color:#000000"/>
		</linearGradient>
		
			<line fill="url(#SVGID_24_)" stroke="#9D9D9C" stroke-width="0.5" stroke-miterlimit="10" x1="230.743" y1="83.666" x2="230.743" y2="86.857"/>
		<linearGradient id="SVGID_25_" gradientUnits="userSpaceOnUse" x1="229.1475" y1="85.2627" x2="230.7432" y2="85.2627">
			<stop  offset="0" style="stop-color:#FFFFFF"/>
			<stop  offset="1" style="stop-color:#000000"/>
		</linearGradient>
		
			<line fill="url(#SVGID_25_)" stroke="#9D9D9C" stroke-width="0.5" stroke-miterlimit="10" x1="230.743" y1="85.263" x2="229.147" y2="85.263"/>
	</g>
	<g>
		<linearGradient id="SVGID_26_" gradientUnits="userSpaceOnUse" x1="60.6328" y1="141.9902" x2="60.6328" y2="141.9902">
			<stop  offset="0" style="stop-color:#FFFFFF"/>
			<stop  offset="1" style="stop-color:#000000"/>
		</linearGradient>
		
			<line fill="url(#SVGID_26_)" stroke="#9D9D9C" stroke-width="0.5" stroke-miterlimit="10" x1="60.633" y1="140.394" x2="60.633" y2="143.587"/>
		<linearGradient id="SVGID_27_" gradientUnits="userSpaceOnUse" x1="60.5171" y1="141.9902" x2="62.228" y2="141.9902">
			<stop  offset="0" style="stop-color:#FFFFFF"/>
			<stop  offset="1" style="stop-color:#000000"/>
		</linearGradient>
		
			<line fill="url(#SVGID_27_)" stroke="#9D9D9C" stroke-width="0.5" stroke-miterlimit="10" x1="62.228" y1="141.99" x2="60.517" y2="141.99"/>
	</g>
	<linearGradient id="SVGID_28_" gradientUnits="userSpaceOnUse" x1="88.9961" y1="0.9365" x2="88.9961" y2="0.9365">
		<stop  offset="0" style="stop-color:#FFFFFF"/>
		<stop  offset="1" style="stop-color:#000000"/>
	</linearGradient>
	
		<line fill="url(#SVGID_28_)" stroke="#9D9D9C" stroke-width="0.5" stroke-miterlimit="10" x1="88.996" y1="0.106" x2="88.996" y2="1.767"/>
	<linearGradient id="SVGID_29_" gradientUnits="userSpaceOnUse" x1="87.4014" y1="0.1719" x2="90.5918" y2="0.1719">
		<stop  offset="0" style="stop-color:#FFFFFF"/>
		<stop  offset="1" style="stop-color:#000000"/>
	</linearGradient>
	
		<line fill="url(#SVGID_29_)" stroke="#9D9D9C" stroke-width="0.5" stroke-miterlimit="10" x1="90.592" y1="0.172" x2="87.401" y2="0.172"/>
	<g>
		<linearGradient id="SVGID_30_" gradientUnits="userSpaceOnUse" x1="88.9961" y1="169.5557" x2="88.9961" y2="169.5557">
			<stop  offset="0" style="stop-color:#FFFFFF"/>
			<stop  offset="1" style="stop-color:#000000"/>
		</linearGradient>
		
			<line fill="url(#SVGID_30_)" stroke="#9D9D9C" stroke-width="0.5" stroke-miterlimit="10" x1="88.996" y1="168.759" x2="88.996" y2="170.353"/>
		<linearGradient id="SVGID_31_" gradientUnits="userSpaceOnUse" x1="87.4014" y1="170.3525" x2="90.5918" y2="170.3525">
			<stop  offset="0" style="stop-color:#FFFFFF"/>
			<stop  offset="1" style="stop-color:#000000"/>
		</linearGradient>
		
			<line fill="url(#SVGID_31_)" stroke="#9D9D9C" stroke-width="0.5" stroke-miterlimit="10" x1="90.592" y1="170.353" x2="87.401" y2="170.353"/>
	</g>
	<linearGradient id="SVGID_32_" gradientUnits="userSpaceOnUse" x1="145.7227" y1="0.9233" x2="145.7227" y2="0.9233">
		<stop  offset="0" style="stop-color:#FFFFFF"/>
		<stop  offset="1" style="stop-color:#000000"/>
	</linearGradient>
	
		<line fill="url(#SVGID_32_)" stroke="#9D9D9C" stroke-width="0.5" stroke-miterlimit="10" x1="145.723" y1="0.08" x2="145.723" y2="1.767"/>
	<linearGradient id="SVGID_33_" gradientUnits="userSpaceOnUse" x1="144.1279" y1="0.1719" x2="147.3174" y2="0.1719">
		<stop  offset="0" style="stop-color:#FFFFFF"/>
		<stop  offset="1" style="stop-color:#000000"/>
	</linearGradient>
	
		<line fill="url(#SVGID_33_)" stroke="#9D9D9C" stroke-width="0.5" stroke-miterlimit="10" x1="147.317" y1="0.172" x2="144.128" y2="0.172"/>
	<g>
		<linearGradient id="SVGID_34_" gradientUnits="userSpaceOnUse" x1="145.7227" y1="169.582" x2="145.7227" y2="169.582">
			<stop  offset="0" style="stop-color:#FFFFFF"/>
			<stop  offset="1" style="stop-color:#000000"/>
		</linearGradient>
		
			<line fill="url(#SVGID_34_)" stroke="#9D9D9C" stroke-width="0.5" stroke-miterlimit="10" x1="145.723" y1="168.759" x2="145.723" y2="170.404"/>
		<linearGradient id="SVGID_35_" gradientUnits="userSpaceOnUse" x1="144.1279" y1="170.3525" x2="147.3174" y2="170.3525">
			<stop  offset="0" style="stop-color:#FFFFFF"/>
			<stop  offset="1" style="stop-color:#000000"/>
		</linearGradient>
		
			<line fill="url(#SVGID_35_)" stroke="#9D9D9C" stroke-width="0.5" stroke-miterlimit="10" x1="147.317" y1="170.353" x2="144.128" y2="170.353"/>
	</g>
	<linearGradient id="SVGID_36_" gradientUnits="userSpaceOnUse" x1="202.4502" y1="0.8838" x2="202.4502" y2="0.8838">
		<stop  offset="0" style="stop-color:#FFFFFF"/>
		<stop  offset="1" style="stop-color:#000000"/>
	</linearGradient>
	
		<line fill="url(#SVGID_36_)" stroke="#9D9D9C" stroke-width="0.5" stroke-miterlimit="10" x1="202.45" y1="0" x2="202.45" y2="1.767"/>
	<linearGradient id="SVGID_37_" gradientUnits="userSpaceOnUse" x1="200.8555" y1="0.1719" x2="204.0449" y2="0.1719">
		<stop  offset="0" style="stop-color:#FFFFFF"/>
		<stop  offset="1" style="stop-color:#000000"/>
	</linearGradient>
	
		<line fill="url(#SVGID_37_)" stroke="#9D9D9C" stroke-width="0.5" stroke-miterlimit="10" x1="204.045" y1="0.172" x2="200.855" y2="0.172"/>
	<g>
		<linearGradient id="SVGID_38_" gradientUnits="userSpaceOnUse" x1="202.4502" y1="169.5938" x2="202.4502" y2="169.5938">
			<stop  offset="0" style="stop-color:#FFFFFF"/>
			<stop  offset="1" style="stop-color:#000000"/>
		</linearGradient>
		
			<line fill="url(#SVGID_38_)" stroke="#9D9D9C" stroke-width="0.5" stroke-miterlimit="10" x1="202.45" y1="168.759" x2="202.45" y2="170.429"/>
		<linearGradient id="SVGID_39_" gradientUnits="userSpaceOnUse" x1="200.8555" y1="170.3525" x2="204.0449" y2="170.3525">
			<stop  offset="0" style="stop-color:#FFFFFF"/>
			<stop  offset="1" style="stop-color:#000000"/>
		</linearGradient>
		
			<line fill="url(#SVGID_39_)" stroke="#9D9D9C" stroke-width="0.5" stroke-miterlimit="10" x1="204.045" y1="170.353" x2="200.855" y2="170.353"/>
	</g>
	<g>
		<linearGradient id="SVGID_40_" gradientUnits="userSpaceOnUse" x1="230.7432" y1="141.9902" x2="230.7432" y2="141.9902">
			<stop  offset="0" style="stop-color:#FFFFFF"/>
			<stop  offset="1" style="stop-color:#000000"/>
		</linearGradient>
		
			<line fill="url(#SVGID_40_)" stroke="#9D9D9C" stroke-width="0.5" stroke-miterlimit="10" x1="230.743" y1="140.394" x2="230.743" y2="143.587"/>
		<linearGradient id="SVGID_41_" gradientUnits="userSpaceOnUse" x1="229.1475" y1="141.9902" x2="230.7432" y2="141.9902">
			<stop  offset="0" style="stop-color:#FFFFFF"/>
			<stop  offset="1" style="stop-color:#000000"/>
		</linearGradient>
		
			<line fill="url(#SVGID_41_)" stroke="#9D9D9C" stroke-width="0.5" stroke-miterlimit="10" x1="230.743" y1="141.99" x2="229.147" y2="141.99"/>
	</g>
	<g>
		<linearGradient id="SVGID_42_" gradientUnits="userSpaceOnUse" x1="230.7432" y1="56.9761" x2="230.7432" y2="56.9761">
			<stop  offset="0" style="stop-color:#FFFFFF"/>
			<stop  offset="1" style="stop-color:#000000"/>
		</linearGradient>
		
			<line fill="url(#SVGID_42_)" stroke="#9D9D9C" stroke-width="0.5" stroke-miterlimit="10" x1="230.743" y1="55.381" x2="230.743" y2="58.571"/>
		<linearGradient id="SVGID_43_" gradientUnits="userSpaceOnUse" x1="229.1475" y1="56.9751" x2="230.7432" y2="56.9751">
			<stop  offset="0" style="stop-color:#FFFFFF"/>
			<stop  offset="1" style="stop-color:#000000"/>
		</linearGradient>
		
			<line fill="url(#SVGID_43_)" stroke="#9D9D9C" stroke-width="0.5" stroke-miterlimit="10" x1="230.743" y1="56.975" x2="229.147" y2="56.975"/>
	</g>
	<g>
		<linearGradient id="SVGID_44_" gradientUnits="userSpaceOnUse" x1="230.7432" y1="113.627" x2="230.7432" y2="113.627">
			<stop  offset="0" style="stop-color:#FFFFFF"/>
			<stop  offset="1" style="stop-color:#000000"/>
		</linearGradient>
		
			<line fill="url(#SVGID_44_)" stroke="#9D9D9C" stroke-width="0.5" stroke-miterlimit="10" x1="230.743" y1="112.031" x2="230.743" y2="115.222"/>
		<linearGradient id="SVGID_45_" gradientUnits="userSpaceOnUse" x1="229.1475" y1="113.625" x2="230.7432" y2="113.625">
			<stop  offset="0" style="stop-color:#FFFFFF"/>
			<stop  offset="1" style="stop-color:#000000"/>
		</linearGradient>
		
			<line fill="url(#SVGID_45_)" stroke="#9D9D9C" stroke-width="0.5" stroke-miterlimit="10" x1="230.743" y1="113.625" x2="229.147" y2="113.625"/>
	</g>
	<g>
		<g>
			<path fill="#575756" d="M219.739,13.34c1.32,0.563,2.314,1.311,2.983,2.243c0.669,0.933,1.005,2.036,1.005,3.31
				c0,1.865-0.595,3.368-1.78,4.508c-1.187,1.14-2.758,1.71-4.716,1.71c-1.598,0-2.936-0.409-4.017-1.227
				c-1.078-0.816-1.811-1.978-2.188-3.482l2.188-1.08c0.296,1.228,0.783,2.158,1.462,2.79c0.679,0.633,1.529,0.949,2.555,0.949
				c1.21,0,2.189-0.349,2.938-1.046c0.746-0.697,1.121-1.604,1.121-2.722c0-0.904-0.261-1.691-0.782-2.361
				c-0.522-0.669-1.31-1.235-2.363-1.697l-2.464-1.053c-1.348-0.563-2.352-1.288-3.013-2.174c-0.659-0.887-0.99-1.949-0.99-3.186
				c0-1.44,0.535-2.631,1.607-3.573c1.07-0.942,2.438-1.413,4.1-1.413c1.219,0,2.272,0.259,3.163,0.775
				c0.892,0.517,1.585,1.279,2.086,2.286l-1.994,1.273c-0.452-0.785-0.96-1.368-1.524-1.751c-0.563-0.383-1.201-0.575-1.911-0.575
				c-0.905,0-1.646,0.277-2.224,0.831c-0.577,0.554-0.866,1.261-0.866,2.119c0,0.72,0.223,1.343,0.667,1.87
				c0.442,0.526,1.13,0.993,2.063,1.398L219.739,13.34z"/>
		</g>
		<g>
			<path fill="#575756" d="M182.476,24.6V4.324h10.691v2.203h-8.282v5.817h8.282v2.243h-8.282v7.77h8.282V24.6H182.476z"/>
		</g>
		<g>
			<path fill="#575756" d="M158.139,24.6V4.324h2.41V24.6H158.139z"/>
		</g>
		<g>
			<path fill="#575756" d="M131.405,25.389l-6.302-14.57l-2.549,13.78h-2.353l4.112-21.079l7.091,16.771l7.092-16.771l4.111,21.079
				h-2.354l-2.576-13.78L131.405,25.389z"/>
		</g>
	</g>
	<g>
		<path fill="#575756" d="M207.937,52.88V31.802l14.833,16.204V32.604h2.299V53.67l-14.832-16.025V52.88H207.937z"/>
	</g>
	<g>
		<path fill="#575756" d="M188.728,31.802l9.224,21.078h-2.618l-2.631-6.218h-7.921l-2.631,6.218h-2.618L188.728,31.802z
			 M188.728,37.133l-3.227,7.464h6.453L188.728,37.133z"/>
	</g>
	<g>
		<path fill="#575756" d="M159.929,53.67l-8.572-21.066h2.617l5.955,15.511l5.929-15.511h2.603L159.929,53.67z"/>
	</g>
	<g>
		<path fill="#575756" d="M211.906,81.528V61.251h4.765c1.357,0,2.352,0.077,2.986,0.229c0.632,0.153,1.188,0.413,1.669,0.783
			c0.599,0.47,1.066,1.101,1.397,1.89c0.333,0.79,0.499,1.665,0.499,2.626c0,1.661-0.464,2.924-1.393,3.787
			c-0.927,0.863-2.287,1.295-4.077,1.295h-0.431l7.743,9.667h-3.061l-7.397-9.667h-0.346v9.667H211.906z M214.262,63.288v6.786
			h1.842c1.884,0,3.143-0.241,3.781-0.726c0.638-0.485,0.956-1.333,0.956-2.541c0-1.303-0.328-2.213-0.983-2.735
			c-0.655-0.521-1.907-0.783-3.754-0.783H214.262z"/>
	</g>
	<g>
		<path fill="#575756" d="M183.828,81.528V61.251h10.691v2.203h-8.282v5.817h8.282v2.244h-8.282v7.769h8.282v2.244H183.828z"/>
	</g>
	<g>
		<path fill="#575756" d="M152.25,81.528V61.251h3.892c2.88,0,4.909,0.146,6.087,0.438c1.177,0.29,2.208,0.777,3.095,1.459
			c1.163,0.896,2.046,2.042,2.646,3.437c0.601,1.393,0.9,3,0.9,4.818c0,1.81-0.297,3.41-0.895,4.799
			c-0.594,1.39-1.479,2.532-2.651,3.429c-0.887,0.683-1.896,1.17-3.025,1.459c-1.131,0.292-2.893,0.438-5.284,0.438h-0.872H152.25z
			 M154.688,79.255h1.535c2.494,0,4.22-0.108,5.181-0.326c0.96-0.216,1.759-0.586,2.396-1.114c0.831-0.692,1.464-1.586,1.897-2.68
			c0.435-1.094,0.652-2.347,0.652-3.76c0-1.422-0.216-2.67-0.645-3.747c-0.431-1.075-1.064-1.964-1.905-2.666
			c-0.637-0.534-1.446-0.916-2.431-1.142c-0.982-0.225-2.698-0.339-5.146-0.339h-1.535V79.255z"/>
	</g>
	<g>
		<path fill="#575756" d="M211.313,109.692V89.414h10.691v2.203h-8.282v5.815h8.282v2.245h-8.282v7.768h8.282v2.247H211.313z"/>
	</g>
	<g>
		<path fill="#575756" d="M180.235,109.692V89.414h2.409v7.798h10.775v-7.798h2.451v20.278h-2.451V99.512h-10.775v10.181H180.235z"
			/>
	</g>
	<g>
		<path fill="#575756" d="M171.176,99.594c0,1.45-0.269,2.817-0.804,4.101c-0.534,1.282-1.316,2.422-2.343,3.42
			c-1.023,0.998-2.204,1.767-3.54,2.306c-1.335,0.541-2.719,0.812-4.149,0.812c-1.432,0-2.812-0.271-4.138-0.812
			c-1.325-0.539-2.501-1.308-3.526-2.306c-1.035-1.006-1.823-2.151-2.364-3.435c-0.54-1.283-0.811-2.646-0.811-4.086
			c0-1.449,0.271-2.817,0.811-4.104c0.541-1.289,1.329-2.437,2.364-3.444c1.015-0.986,2.188-1.748,3.519-2.284
			c1.331-0.534,2.714-0.804,4.146-0.804c1.44,0,2.828,0.27,4.163,0.804c1.336,0.536,2.51,1.298,3.526,2.284
			c1.026,0.999,1.809,2.142,2.343,3.43C170.907,96.762,171.176,98.136,171.176,99.594z M160.34,107.96
			c1.108,0,2.163-0.21,3.166-0.631c1.004-0.42,1.906-1.032,2.71-1.835c0.795-0.793,1.4-1.694,1.816-2.699
			c0.415-1.008,0.623-2.075,0.623-3.201c0-1.136-0.211-2.215-0.631-3.239c-0.419-1.025-1.023-1.93-1.809-2.716
			c-0.794-0.793-1.692-1.399-2.696-1.814c-1.002-0.416-2.063-0.622-3.18-0.622c-1.129,0-2.196,0.206-3.202,0.622
			c-1.008,0.415-1.9,1.021-2.676,1.814c-0.795,0.804-1.4,1.714-1.815,2.729c-0.416,1.017-0.624,2.091-0.624,3.227
			c0,1.126,0.206,2.188,0.616,3.185c0.41,0.998,1.02,1.903,1.823,2.716c0.813,0.813,1.717,1.427,2.71,1.843
			C158.165,107.752,159.221,107.96,160.34,107.96z"/>
	</g>
	<g>
		<path fill="#575756" d="M126.06,109.692V89.414h4.764c1.358,0,2.354,0.077,2.986,0.229c0.632,0.151,1.188,0.412,1.668,0.782
			c0.601,0.471,1.067,1.1,1.4,1.892c0.332,0.787,0.497,1.664,0.497,2.622c0,1.664-0.463,2.926-1.392,3.789s-2.287,1.296-4.078,1.296
			h-0.43l7.742,9.668h-3.062l-7.395-9.668h-0.347v9.668H126.06z M128.415,91.45v6.786h1.842c1.884,0,3.144-0.242,3.782-0.726
			c0.636-0.484,0.954-1.333,0.954-2.543c0-1.301-0.328-2.214-0.983-2.734s-1.907-0.783-3.753-0.783H128.415z"/>
	</g>
	<g>
		<path fill="#575756" d="M211.313,138.055V117.78h10.691v2.2h-8.282v5.818h8.282v2.243h-8.282v7.77h8.282v2.243H211.313z"/>
	</g>
	<g>
		<path fill="#575756" d="M185.907,138.055V117.78h2.411v17.977h7.658v2.298H185.907z"/>
	</g>
	<g>
		<path fill="#575756" d="M152.049,117.78h2.438v12.616c0,2.049,0.435,3.555,1.308,4.515c0.872,0.96,2.241,1.439,4.107,1.439
			c1.862,0,3.231-0.479,4.104-1.439c0.872-0.96,1.309-2.466,1.309-4.515V117.78h2.452v12.616c0,2.742-0.653,4.793-1.959,6.155
			c-1.307,1.363-3.276,2.042-5.906,2.042c-2.624,0-4.588-0.679-5.893-2.042c-1.309-1.362-1.961-3.413-1.961-6.155V117.78z"/>
	</g>
	<g>
		<path fill="#575756" d="M123.131,138.055V117.78h2.409v7.797h10.774v-7.797h2.45v20.274h-2.45v-10.18H125.54v10.18H123.131z"/>
	</g>
	<g>
		<path fill="#575756" d="M111.823,122.627c-0.97-1.053-2.004-1.831-3.104-2.333c-1.099-0.505-2.312-0.756-3.642-0.756
			c-1.072,0-2.116,0.217-3.137,0.651c-1.021,0.433-1.905,1.039-2.651,1.813c-0.776,0.806-1.358,1.703-1.746,2.695
			c-0.388,0.992-0.582,2.088-0.582,3.29c0,0.939,0.115,1.81,0.346,2.603c0.231,0.793,0.577,1.524,1.039,2.188
			c0.813,1.154,1.813,2.042,2.999,2.666c1.187,0.624,2.467,0.935,3.843,0.935c1.292,0,2.492-0.266,3.601-0.803
			c1.108-0.535,2.119-1.332,3.034-2.395v3.197c-1.007,0.731-2.09,1.283-3.249,1.656c-1.16,0.373-2.357,0.56-3.594,0.56
			c-1.072,0-2.114-0.159-3.13-0.478c-1.015-0.318-1.967-0.78-2.852-1.393c-1.478-1.024-2.607-2.284-3.387-3.779
			c-0.78-1.497-1.171-3.14-1.171-4.93c0-1.562,0.261-2.982,0.783-4.26c0.522-1.278,1.318-2.438,2.39-3.483
			c1.033-0.997,2.178-1.743,3.433-2.235c1.256-0.494,2.627-0.74,4.114-0.74c1.172,0,2.309,0.176,3.408,0.531
			c1.098,0.356,2.183,0.907,3.255,1.655V122.627z"/>
	</g>
	<g>
		<path fill="#575756" d="M76.998,126.796c1.32,0.562,2.315,1.31,2.985,2.242c0.67,0.934,1.005,2.037,1.005,3.31
			c0,1.865-0.593,3.369-1.779,4.508c-1.187,1.142-2.759,1.711-4.716,1.711c-1.598,0-2.937-0.408-4.016-1.226
			c-1.082-0.815-1.81-1.977-2.188-3.483l2.188-1.08c0.295,1.229,0.782,2.159,1.459,2.791c0.679,0.634,1.532,0.949,2.556,0.949
			c1.209,0,2.188-0.349,2.936-1.047c0.749-0.696,1.122-1.604,1.122-2.72c0-0.905-0.261-1.694-0.782-2.363
			c-0.522-0.668-1.309-1.232-2.361-1.694l-2.466-1.055c-1.348-0.562-2.352-1.288-3.011-2.174c-0.662-0.888-0.991-1.945-0.991-3.185
			c0-1.439,0.536-2.631,1.606-3.572c1.07-0.942,2.438-1.412,4.099-1.412c1.22,0,2.275,0.258,3.166,0.775
			c0.89,0.517,1.586,1.278,2.084,2.284l-1.995,1.273c-0.453-0.782-0.96-1.367-1.523-1.753c-0.563-0.382-1.2-0.574-1.911-0.574
			c-0.905,0-1.646,0.278-2.223,0.83c-0.577,0.555-0.866,1.261-0.866,2.121c0,0.719,0.221,1.343,0.664,1.87
			c0.444,0.524,1.131,0.992,2.063,1.397L76.998,126.796z"/>
	</g>
	<g>
		<path fill="#575756" d="M207.484,165.822v-21.077l14.833,16.204v-15.4h2.298v21.063l-14.831-16.024v15.234H207.484z"/>
	</g>
	<g>
		<path fill="#575756" d="M184.085,165.822v-20.273h10.691v2.199h-8.283v5.819h8.283v2.242h-8.283v7.77h8.283v2.243H184.085z"/>
	</g>
	<g>
		<path fill="#575756" d="M152.818,165.822v-20.273h2.409v7.797h10.774v-7.797h2.45v20.273h-2.45v-10.18h-10.774v10.18H152.818z"/>
	</g>
	<g>
		<path fill="#575756" d="M140.149,150.394c-0.969-1.051-2.003-1.829-3.103-2.332c-1.098-0.504-2.313-0.756-3.64-0.756
			c-1.072,0-2.118,0.216-3.138,0.651c-1.021,0.433-1.905,1.04-2.653,1.813c-0.774,0.806-1.356,1.703-1.744,2.696
			c-0.389,0.991-0.581,2.088-0.581,3.288c0,0.943,0.114,1.811,0.345,2.604c0.231,0.793,0.578,1.523,1.039,2.188
			c0.812,1.153,1.812,2.041,2.999,2.666c1.188,0.624,2.467,0.935,3.842,0.935c1.293,0,2.495-0.266,3.603-0.804
			c1.107-0.534,2.118-1.333,3.031-2.394v3.197c-1.005,0.73-2.088,1.283-3.246,1.655c-1.159,0.373-2.357,0.56-3.594,0.56
			c-1.071,0-2.115-0.159-3.131-0.477c-1.016-0.319-1.966-0.781-2.854-1.393c-1.477-1.024-2.605-2.285-3.386-3.779
			c-0.779-1.497-1.17-3.141-1.17-4.932c0-1.562,0.26-2.98,0.783-4.259c0.521-1.277,1.317-2.439,2.387-3.482
			c1.035-0.998,2.182-1.743,3.436-2.235c1.256-0.496,2.627-0.742,4.113-0.742c1.174,0,2.309,0.177,3.407,0.533
			c1.1,0.354,2.183,0.907,3.254,1.655V150.394z"/>
	</g>
	<g>
		<path fill="#575756" d="M103.921,144.745l9.223,21.077h-2.617l-2.632-6.219h-7.922l-2.632,6.219h-2.617L103.921,144.745z
			 M103.921,150.076l-3.228,7.464h6.455L103.921,150.076z"/>
	</g>
	<g>
		<path fill="#575756" d="M75.841,144.745l9.223,21.077h-2.617l-2.631-6.219h-7.921l-2.631,6.219h-2.619L75.841,144.745z
			 M75.841,150.076l-3.226,7.464h6.452L75.841,150.076z"/>
	</g>
	<g>
		<path fill="#575756" d="M9.436,170.497H0.042v-2.492c0-1.472,0.776-2.561,2.313-2.561c0.954,0,1.757,0.465,2.084,1.375h0.027
			c0.312-1.293,1.116-1.811,2.423-1.811c1.853,0,2.546,1.309,2.546,2.996V170.497z M4.099,168.522c0-1.131-0.354-2.017-1.674-2.017
			c-1.211,0-1.497,0.845-1.497,1.867v1.062h3.171V168.522z M8.551,168.209c0-1.156-0.422-2.138-1.771-2.138
			c-1.197,0-1.796,0.885-1.796,2.017v1.347h3.567V168.209z"/>
		<path fill="#575756" d="M9.396,157.14c0.15,0.478,0.19,0.982,0.19,1.484c0,2.247-1.498,3.16-3.608,3.16
			c-1.688,0-3.173-0.626-3.173-2.533c0-1.497,1.022-2.261,2.465-2.261h0.313v3.73h0.382c1.416,0,2.844-0.707,2.844-2.301
			c0-0.45-0.067-0.842-0.176-1.28H9.396z M4.806,158.053c-0.721,0-1.225,0.531-1.225,1.24c0,0.776,0.503,1.211,1.225,1.359V158.053z
			"/>
		<path fill="#575756" d="M9.436,153.397H2.957v-0.927h1.251v-0.028c-0.94-0.407-1.404-1.129-1.404-2.162h0.995
			c0,1.673,1.553,2.19,2.956,2.19h2.682V153.397z"/>
		<path fill="#575756" d="M9.436,143.555H7.939v0.027c0.994,0.298,1.647,0.912,1.647,2.014c0,1.131-0.953,1.66-2.001,1.66H2.957
			v-0.925h3.593c0.722,0,2.111,0.11,2.111-0.952c0-1.295-2.015-1.824-3.036-1.824H2.957v-0.929h6.479V143.555z"/>
		<path fill="#575756" d="M9.436,138.108H3.732v1.09H2.957v-1.09H2.056c-1.36,0-2.056-0.763-2.056-2.125
			c0-0.366,0.042-0.734,0.124-1.102h0.831c-0.11,0.313-0.178,0.611-0.178,0.939c0,1.469,1.062,1.36,2.18,1.36v-1.864h0.775v1.864
			h5.704V138.108z"/>
		<path fill="#575756" d="M8.47,132.88c0.177-0.545,0.339-1.089,0.339-1.676c0-0.693-0.189-1.579-1.046-1.579
			c-0.654,0-0.913,0.696-1.171,1.171l-0.313,0.587c-0.395,0.761-0.763,1.471-1.757,1.471c-1.266,0-1.716-1.102-1.716-2.219
			c0-0.532,0.097-1.021,0.219-1.526h0.858c-0.177,0.478-0.3,1.021-0.3,1.511c0,0.506,0.217,1.309,0.844,1.309
			c0.532,0,0.791-0.791,1.022-1.171l0.326-0.545c0.477-0.803,0.803-1.512,1.852-1.512c1.458,0,1.96,1.116,1.96,2.41
			c0,0.598-0.096,1.186-0.272,1.77H8.47z"/>
		<path fill="#575756" d="M9.436,121.88l-3.458,2.52v0.027h3.458v0.925H0.042v-0.925h5.649v-0.027l-2.734-2.249v-1.128l2.871,2.327
			l3.608-2.613V121.88z"/>
		<path fill="#575756" d="M6.21,118.108c-1.743,0-3.406-0.626-3.406-2.641c0-2.029,1.663-2.671,3.406-2.671
			c1.769,0,3.376,0.642,3.376,2.671C9.586,117.482,7.966,118.108,6.21,118.108z M6.196,113.858c-1.05,0-2.615,0.262-2.615,1.609
			s1.58,1.579,2.615,1.579c1.034,0,2.613-0.231,2.613-1.579C8.809,114.104,7.245,113.858,6.196,113.858z"/>
		<path fill="#575756" d="M9.436,109.109H0.042v-0.926h9.394V109.109z"/>
		<path fill="#575756" d="M9.436,103.923H0.042v-0.928h9.394V103.923z"/>
		<path fill="#575756" d="M9.396,94.609c0.15,0.477,0.19,0.98,0.19,1.483c0,2.249-1.498,3.16-3.608,3.16
			c-1.688,0-3.173-0.627-3.173-2.533c0-1.497,1.022-2.26,2.465-2.26h0.313v3.729h0.382c1.416,0,2.844-0.707,2.844-2.3
			c0-0.45-0.067-0.844-0.176-1.28H9.396z M4.806,95.521c-0.721,0-1.225,0.531-1.225,1.239c0,0.776,0.503,1.212,1.225,1.361V95.521z"
			/>
		<path fill="#575756" d="M8.198,87.406v0.03c0.776,0.257,1.238,0.911,1.238,1.713c0,1.784-1.743,2.193-3.2,2.193
			c-1.401,0-3.432-0.437-3.432-2.219c0-0.776,0.45-1.472,1.214-1.688v-0.03H2.957V86.48h6.494c1.851,0,2.817,0.886,2.817,2.752
			c0,0.641-0.095,1.157-0.216,1.757h-0.939c0.258-0.533,0.38-1.036,0.38-1.622c0-1.496-0.775-1.961-2.15-1.961H8.198z M6.073,87.406
			c-0.899,0-2.492,0.369-2.492,1.526c0,1.198,1.824,1.347,2.669,1.347c0.844,0,2.41-0.162,2.41-1.32
			C8.66,87.775,6.999,87.406,6.073,87.406z"/>
		<path fill="#575756" d="M9.436,76.598H3.732v1.089H2.957v-1.089H2.056C0.696,76.598,0,75.836,0,74.474
			c0-0.368,0.042-0.736,0.124-1.103h0.831c-0.11,0.312-0.178,0.612-0.178,0.938c0,1.472,1.062,1.363,2.18,1.363v-1.865h0.775v1.865
			h5.704V76.598z"/>
		<path fill="#575756" d="M1.676,67.817H0.477v-1.226h1.199V67.817z M1.676,70.213H0.477v-1.225h1.199V70.213z M9.436,67.137H7.939
			v0.027c0.994,0.298,1.647,0.913,1.647,2.014c0,1.13-0.953,1.661-2.001,1.661H2.957v-0.925h3.593c0.722,0,2.111,0.108,2.111-0.953
			c0-1.295-2.015-1.825-3.036-1.825H2.957v-0.927h6.479V67.137z"/>
		<path fill="#575756" d="M9.436,62.072H2.957v-0.926h1.251V61.12c-0.94-0.41-1.404-1.131-1.404-2.166h0.995
			c0,1.673,1.553,2.192,2.956,2.192h2.682V62.072z"/>
		<path fill="#575756" d="M9.436,49.289H0.927v2.246H0.042V45.98h0.885v2.245h8.509V49.289z"/>
		<path fill="#575756" d="M9.396,39.049c0.15,0.476,0.19,0.98,0.19,1.484c0,2.247-1.498,3.159-3.608,3.159
			c-1.688,0-3.173-0.626-3.173-2.533c0-1.497,1.022-2.26,2.465-2.26h0.313v3.732h0.382c1.416,0,2.844-0.709,2.844-2.302
			c0-0.448-0.067-0.843-0.176-1.279H9.396z M4.806,39.962c-0.721,0-1.225,0.531-1.225,1.239c0,0.776,0.503,1.211,1.225,1.361V39.962
			z"/>
		<path fill="#575756" d="M9.408,31.085c0.124,0.449,0.178,0.872,0.178,1.348c0,2.232-1.361,3.335-3.54,3.335
			c-1.77,0-3.242-0.654-3.242-2.641c0-1.363,0.723-2.219,2.126-2.219v1.103c-0.763,0-1.349,0.341-1.349,1.157
			c0,1.186,1.294,1.539,2.26,1.539c1.675,0,2.968-0.736,2.968-2.573c0-0.369-0.027-0.722-0.134-1.048H9.408z"/>
		<path fill="#575756" d="M9.436,23.883H5.841c-0.721,0-2.109-0.123-2.109,0.953c0,1.294,2.029,1.838,3.036,1.838h2.668v0.926H0.042
			v-0.926h4.411v-0.027c-1.007-0.327-1.649-0.898-1.649-2.028c0-1.131,0.982-1.662,2.002-1.662h4.63V23.883z"/>
		<path fill="#575756" d="M9.436,15.17H5.841c-0.721,0-2.109-0.123-2.109,0.953c0,1.293,2.029,1.838,3.036,1.838h2.668v0.926H2.957
			v-0.926h1.497v-0.027c-1.007-0.327-1.649-0.898-1.649-2.029c0-1.13,0.982-1.661,2.002-1.661h4.63V15.17z"/>
		<path fill="#575756" d="M1.267,10.242H0.042V9.016h1.225V10.242z M9.436,10.092H2.957V9.166h6.479V10.092z"/>
		<path fill="#575756" d="M9.436,1.515L5.978,4.033v0.027h3.458v0.927H0.042V4.061h5.649V4.033L2.957,1.787v-1.13l2.871,2.329
			l3.608-2.615V1.515z"/>
		<path fill="#575756" d="M25.773,167.104H24.67v0.027c0.75,0.231,1.253,0.913,1.253,1.688c0,1.88-1.824,2.221-3.335,2.221
			c-1.402,0-3.445-0.423-3.445-2.205c0-0.858,0.409-1.43,1.212-1.704v-0.027h-3.976v-0.925h9.395V167.104z M22.562,167.104
			c-0.913,0-2.643,0.274-2.643,1.5c0,1.28,1.946,1.375,2.847,1.375c0.897,0,2.382-0.148,2.382-1.348
			C25.147,167.488,23.473,167.104,22.562,167.104z"/>
		<path fill="#575756" d="M25.733,158.08c0.15,0.477,0.19,0.979,0.19,1.483c0,2.246-1.497,3.158-3.608,3.158
			c-1.688,0-3.172-0.627-3.172-2.531c0-1.499,1.022-2.26,2.464-2.26h0.313v3.729h0.383c1.415,0,2.845-0.706,2.845-2.3
			c0-0.45-0.067-0.846-0.177-1.28H25.733z M21.144,158.992c-0.721,0-1.226,0.531-1.226,1.237c0,0.776,0.504,1.214,1.226,1.363
			V158.992z"/>
		<path fill="#575756" d="M25.773,154.515h-6.482v-0.928h1.253v-0.028c-0.939-0.407-1.402-1.129-1.402-2.162h0.995
			c0,1.673,1.552,2.19,2.954,2.19h2.683V154.515z"/>
		<path fill="#575756" d="M24.548,143.69c0.313-0.724,0.49-1.483,0.49-2.287c0-1.008-0.462-2.028-1.607-2.028
			c-1.047,0-1.416,0.76-1.892,1.566l-0.462,0.83c-0.572,1.034-1.076,2.029-2.438,2.029c-1.756,0-2.41-1.5-2.41-3.024
			c0-0.666,0.123-1.308,0.246-1.962h1.048c-0.258,0.642-0.409,1.362-0.409,2.058c0,0.899,0.409,1.769,1.43,1.769
			c0.871,0,1.308-0.912,1.676-1.566l0.475-0.869c0.626-1.104,1.17-1.989,2.588-1.989c1.975,0,2.641,1.594,2.641,3.309
			c0,0.749-0.122,1.458-0.286,2.166H24.548z"/>
		<path fill="#575756" d="M25.855,131.9c0.041,0.271,0.067,0.545,0.067,0.815c0,1.226-0.408,1.798-1.674,1.798h-4.18v1.062h-0.777
			v-1.062h-1.51l-0.586-0.925h2.096v-1.743h0.777v1.743h3.989c0.694,0,1.089-0.314,1.089-1.063c0-0.258-0.027-0.396-0.122-0.626
			H25.855z"/>
		<path fill="#575756" d="M18.013,126.045h-1.197v-1.227h1.197V126.045z M18.013,128.442h-1.197v-1.227h1.197V128.442z
			 M25.773,125.46h-0.857v0.027c0.681,0.354,1.007,1.266,1.007,1.987c0,1.131-0.709,1.743-1.81,1.743
			c-1.445,0-2.057-1.688-2.057-3.73H21.92c-0.967,0-2.001-0.055-2.001,1.227c0,0.775,0.258,1.21,1.034,1.32v1.034
			c-1.292-0.04-1.81-1.156-1.81-2.327c0-1.473,0.627-2.179,2.084-2.179h4.547V125.46z M22.833,126.032
			c0,0.816,0.34,2.123,1.375,2.123c0.545,0,0.94-0.367,0.94-0.912c0-0.626-0.423-1.253-1.007-1.511
			c-0.478-0.217-0.763-0.245-1.308-0.245V126.032z"/>
		<path fill="#575756" d="M25.773,117.211H24.67v0.026c0.75,0.231,1.253,0.914,1.253,1.689c0,1.879-1.824,2.218-3.335,2.218
			c-1.402,0-3.445-0.421-3.445-2.206c0-0.857,0.409-1.429,1.212-1.701v-0.026h-3.976v-0.928h9.395V117.211z M22.562,117.211
			c-0.913,0-2.643,0.271-2.643,1.497c0,1.28,1.946,1.374,2.847,1.374c0.897,0,2.382-0.148,2.382-1.348
			C25.147,117.591,23.473,117.211,22.562,117.211z"/>
		<path fill="#575756" d="M25.855,109.327c0.041,0.272,0.067,0.544,0.067,0.817c0,1.226-0.408,1.798-1.674,1.798h-4.18v1.061h-0.777
			v-1.061h-1.51l-0.586-0.928h2.096v-1.741h0.777v1.741h3.989c0.694,0,1.089-0.313,1.089-1.062c0-0.258-0.027-0.396-0.122-0.626
			H25.855z"/>
		<path fill="#575756" d="M25.733,101.921c0.15,0.476,0.19,0.98,0.19,1.483c0,2.246-1.497,3.158-3.608,3.158
			c-1.688,0-3.172-0.625-3.172-2.531c0-1.499,1.022-2.261,2.464-2.261h0.313v3.731h0.383c1.415,0,2.845-0.708,2.845-2.303
			c0-0.448-0.067-0.843-0.177-1.278H25.733z M21.144,102.833c-0.721,0-1.226,0.53-1.226,1.238c0,0.776,0.504,1.212,1.226,1.363
			V102.833z"/>
		<path fill="#575756" d="M25.773,93.766l-2.166,0.463c-1.305,0.285-2.014,0.517-2.014,2.014v0.982h4.179v1.062h-9.395v-2.329
			c0-1.537,0.585-2.994,2.368-2.994c1.375,0,2.029,0.652,2.357,1.904h0.027c0.326-1.238,0.952-1.401,2.068-1.618l2.573-0.546V93.766
			z M20.709,96.639c0-1.267-0.286-2.614-1.853-2.614c-1.565,0-1.592,1.199-1.592,2.409v0.791h3.445V96.639z"/>
		<path fill="#575756" d="M25.733,85.107c0.15,0.477,0.19,0.981,0.19,1.484c0,2.247-1.497,3.159-3.608,3.159
			c-1.688,0-3.172-0.626-3.172-2.533c0-1.497,1.022-2.26,2.464-2.26h0.313v3.732h0.383c1.415,0,2.845-0.708,2.845-2.302
			c0-0.449-0.067-0.843-0.177-1.28H25.733z M21.144,86.019c-0.721,0-1.226,0.532-1.226,1.241c0,0.774,0.504,1.21,1.226,1.359V86.019
			z"/>
		<path fill="#575756" d="M24.534,78.082v0.027c0.777,0.259,1.239,0.913,1.239,1.716c0,1.783-1.743,2.193-3.2,2.193
			c-1.402,0-3.431-0.437-3.431-2.22c0-0.776,0.45-1.47,1.212-1.689v-0.027h-1.063v-0.925h6.496c1.851,0,2.818,0.885,2.818,2.75
			c0,0.64-0.096,1.157-0.219,1.755h-0.939c0.259-0.529,0.382-1.034,0.382-1.618c0-1.5-0.776-1.962-2.15-1.962H24.534z M22.41,78.082
			c-0.897,0-2.491,0.369-2.491,1.526c0,1.197,1.825,1.348,2.669,1.348c0.844,0,2.41-0.163,2.41-1.32
			C24.998,78.45,23.337,78.082,22.41,78.082z"/>
		<path fill="#575756" d="M17.604,73.331h-1.225v-1.226h1.225V73.331z M25.773,73.181h-6.482v-0.925h6.482V73.181z"/>
		<path fill="#575756" d="M22.546,68.716c-1.743,0-3.404-0.627-3.404-2.641c0-2.029,1.661-2.669,3.404-2.669
			c1.77,0,3.376,0.64,3.376,2.669C25.923,68.089,24.304,68.716,22.546,68.716z M22.533,64.468c-1.048,0-2.614,0.258-2.614,1.607
			c0,1.348,1.579,1.58,2.614,1.58s2.615-0.232,2.615-1.58C25.147,64.712,23.581,64.468,22.533,64.468z"/>
		<path fill="#575756" d="M25.773,56.259h-3.595c-0.721,0-2.109-0.125-2.109,0.953c0,1.293,2.029,1.837,3.037,1.837h2.668v0.928
			h-6.482v-0.928h1.499v-0.026c-1.007-0.327-1.647-0.899-1.647-2.029s0.98-1.662,2.001-1.662h4.629V56.259z"/>
		<path fill="#575756" d="M25.773,40.888l-2.9,0.94v3.349l2.9,0.912v1.062l-9.395-2.996v-1.293l9.395-3.036V40.888z M17.345,43.489
			v0.027l4.643,1.375v-2.777L17.345,43.489z"/>
		<path fill="#575756" d="M25.773,33.645h-0.857v0.027c0.681,0.354,1.007,1.266,1.007,1.987c0,1.131-0.709,1.743-1.81,1.743
			c-1.445,0-2.057-1.688-2.057-3.73H21.92c-0.967,0-2.001-0.055-2.001,1.226c0,0.776,0.258,1.211,1.034,1.32v1.035
			c-1.292-0.041-1.81-1.158-1.81-2.327c0-1.472,0.627-2.18,2.084-2.18h4.547V33.645z M22.833,34.217c0,0.817,0.34,2.124,1.375,2.124
			c0.545,0,0.94-0.368,0.94-0.913c0-0.625-0.423-1.251-1.007-1.51c-0.478-0.217-0.763-0.245-1.308-0.245V34.217z"/>
		<path fill="#575756" d="M25.746,24.632c0.122,0.45,0.177,0.872,0.177,1.348c0,2.233-1.36,3.336-3.539,3.336
			c-1.771,0-3.241-0.654-3.241-2.642c0-1.362,0.721-2.219,2.125-2.219v1.103c-0.762,0-1.349,0.34-1.349,1.157
			c0,1.185,1.294,1.539,2.26,1.539c1.676,0,2.969-0.736,2.969-2.574c0-0.368-0.027-0.722-0.137-1.049H25.746z"/>
		<path fill="#575756" d="M25.773,17.607h-3.595c-0.721,0-2.109-0.123-2.109,0.953c0,1.293,2.029,1.838,3.037,1.838h2.668v0.925
			h-9.395v-0.925h4.411v-0.027c-1.007-0.327-1.647-0.899-1.647-2.029c0-1.13,0.98-1.662,2.001-1.662h4.629V17.607z"/>
		<path fill="#575756" d="M25.733,8.581c0.15,0.477,0.19,0.98,0.19,1.484c0,2.247-1.497,3.159-3.608,3.159
			c-1.688,0-3.172-0.627-3.172-2.533c0-1.498,1.022-2.261,2.464-2.261h0.313v3.731h0.383c1.415,0,2.845-0.708,2.845-2.3
			c0-0.45-0.067-0.845-0.177-1.281H25.733z M21.144,9.493c-0.721,0-1.226,0.532-1.226,1.239c0,0.777,0.504,1.212,1.226,1.362V9.493z
			"/>
		<path fill="#575756" d="M25.773,1.297h-3.595c-0.721,0-2.109-0.123-2.109,0.953c0,1.294,2.029,1.838,3.037,1.838h2.668v0.926
			h-6.482V4.089h1.499V4.062c-1.007-0.327-1.647-0.899-1.647-2.029c0-1.13,0.98-1.661,2.001-1.661h4.629V1.297z"/>
	</g>
	<g>
		<rect x="38.552" y="0.14" fill="#FEC700" width="3.364" height="56.835"/>
	</g>
	<g>
		<rect x="38.552" y="56.844" fill="#582857" width="3.364" height="56.835"/>
	</g>
	<g>
		<rect x="38.552" y="113.57" fill="#008781" width="3.364" height="56.837"/>
	</g>
	<g>
		<g>
			<linearGradient id="SVGID_46_" gradientUnits="userSpaceOnUse" x1="117.3594" y1="56.9756" x2="117.3594" y2="56.9756">
				<stop  offset="0" style="stop-color:#FFFFFF"/>
				<stop  offset="1" style="stop-color:#000000"/>
			</linearGradient>
			
				<line fill="url(#SVGID_46_)" stroke="#9D9D9C" stroke-width="0.5" stroke-miterlimit="10" x1="117.359" y1="55.38" x2="117.359" y2="58.571"/>
			<linearGradient id="SVGID_47_" gradientUnits="userSpaceOnUse" x1="115.7637" y1="56.9751" x2="118.9551" y2="56.9751">
				<stop  offset="0" style="stop-color:#FFFFFF"/>
				<stop  offset="1" style="stop-color:#000000"/>
			</linearGradient>
			
				<line fill="url(#SVGID_47_)" stroke="#9D9D9C" stroke-width="0.5" stroke-miterlimit="10" x1="118.955" y1="56.975" x2="115.764" y2="56.975"/>
		</g>
		<g>
			<linearGradient id="SVGID_48_" gradientUnits="userSpaceOnUse" x1="174.0869" y1="56.9756" x2="174.0869" y2="56.9756">
				<stop  offset="0" style="stop-color:#FFFFFF"/>
				<stop  offset="1" style="stop-color:#000000"/>
			</linearGradient>
			
				<line fill="url(#SVGID_48_)" stroke="#9D9D9C" stroke-width="0.5" stroke-miterlimit="10" x1="174.087" y1="55.38" x2="174.087" y2="58.571"/>
			<linearGradient id="SVGID_49_" gradientUnits="userSpaceOnUse" x1="172.4902" y1="56.9751" x2="175.6836" y2="56.9751">
				<stop  offset="0" style="stop-color:#FFFFFF"/>
				<stop  offset="1" style="stop-color:#000000"/>
			</linearGradient>
			
				<line fill="url(#SVGID_49_)" stroke="#9D9D9C" stroke-width="0.5" stroke-miterlimit="10" x1="175.684" y1="56.975" x2="172.49" y2="56.975"/>
		</g>
		<g>
			<linearGradient id="SVGID_50_" gradientUnits="userSpaceOnUse" x1="117.3594" y1="113.627" x2="117.3594" y2="113.627">
				<stop  offset="0" style="stop-color:#FFFFFF"/>
				<stop  offset="1" style="stop-color:#000000"/>
			</linearGradient>
			
				<line fill="url(#SVGID_50_)" stroke="#9D9D9C" stroke-width="0.5" stroke-miterlimit="10" x1="117.359" y1="112.031" x2="117.359" y2="115.222"/>
			<linearGradient id="SVGID_51_" gradientUnits="userSpaceOnUse" x1="115.7637" y1="113.625" x2="118.9551" y2="113.625">
				<stop  offset="0" style="stop-color:#FFFFFF"/>
				<stop  offset="1" style="stop-color:#000000"/>
			</linearGradient>
			
				<line fill="url(#SVGID_51_)" stroke="#9D9D9C" stroke-width="0.5" stroke-miterlimit="10" x1="118.955" y1="113.625" x2="115.764" y2="113.625"/>
		</g>
		<g>
			<linearGradient id="SVGID_52_" gradientUnits="userSpaceOnUse" x1="174.0869" y1="113.627" x2="174.0869" y2="113.627">
				<stop  offset="0" style="stop-color:#FFFFFF"/>
				<stop  offset="1" style="stop-color:#000000"/>
			</linearGradient>
			
				<line fill="url(#SVGID_52_)" stroke="#9D9D9C" stroke-width="0.5" stroke-miterlimit="10" x1="174.087" y1="112.031" x2="174.087" y2="115.222"/>
			<linearGradient id="SVGID_53_" gradientUnits="userSpaceOnUse" x1="172.4902" y1="113.625" x2="175.6836" y2="113.625">
				<stop  offset="0" style="stop-color:#FFFFFF"/>
				<stop  offset="1" style="stop-color:#000000"/>
			</linearGradient>
			
				<line fill="url(#SVGID_53_)" stroke="#9D9D9C" stroke-width="0.5" stroke-miterlimit="10" x1="175.684" y1="113.625" x2="172.49" y2="113.625"/>
		</g>
		<g>
			<linearGradient id="SVGID_54_" gradientUnits="userSpaceOnUse" x1="117.3594" y1="28.5352" x2="117.3594" y2="28.5352">
				<stop  offset="0" style="stop-color:#FFFFFF"/>
				<stop  offset="1" style="stop-color:#000000"/>
			</linearGradient>
			
				<line fill="url(#SVGID_54_)" stroke="#9D9D9C" stroke-width="0.5" stroke-miterlimit="10" x1="117.359" y1="26.94" x2="117.359" y2="30.131"/>
			<linearGradient id="SVGID_55_" gradientUnits="userSpaceOnUse" x1="115.7637" y1="28.5347" x2="118.9551" y2="28.5347">
				<stop  offset="0" style="stop-color:#FFFFFF"/>
				<stop  offset="1" style="stop-color:#000000"/>
			</linearGradient>
			
				<line fill="url(#SVGID_55_)" stroke="#9D9D9C" stroke-width="0.5" stroke-miterlimit="10" x1="118.955" y1="28.535" x2="115.764" y2="28.535"/>
		</g>
		<g>
			<linearGradient id="SVGID_56_" gradientUnits="userSpaceOnUse" x1="174.0869" y1="28.5352" x2="174.0869" y2="28.5352">
				<stop  offset="0" style="stop-color:#FFFFFF"/>
				<stop  offset="1" style="stop-color:#000000"/>
			</linearGradient>
			
				<line fill="url(#SVGID_56_)" stroke="#9D9D9C" stroke-width="0.5" stroke-miterlimit="10" x1="174.087" y1="26.94" x2="174.087" y2="30.131"/>
			<linearGradient id="SVGID_57_" gradientUnits="userSpaceOnUse" x1="172.4902" y1="28.5347" x2="175.6836" y2="28.5347">
				<stop  offset="0" style="stop-color:#FFFFFF"/>
				<stop  offset="1" style="stop-color:#000000"/>
			</linearGradient>
			
				<line fill="url(#SVGID_57_)" stroke="#9D9D9C" stroke-width="0.5" stroke-miterlimit="10" x1="175.684" y1="28.535" x2="172.49" y2="28.535"/>
		</g>
		<g>
			<linearGradient id="SVGID_58_" gradientUnits="userSpaceOnUse" x1="117.3594" y1="85.2617" x2="117.3594" y2="85.2617">
				<stop  offset="0" style="stop-color:#FFFFFF"/>
				<stop  offset="1" style="stop-color:#000000"/>
			</linearGradient>
			
				<line fill="url(#SVGID_58_)" stroke="#9D9D9C" stroke-width="0.5" stroke-miterlimit="10" x1="117.359" y1="83.666" x2="117.359" y2="86.857"/>
			<linearGradient id="SVGID_59_" gradientUnits="userSpaceOnUse" x1="115.7637" y1="85.2627" x2="118.9551" y2="85.2627">
				<stop  offset="0" style="stop-color:#FFFFFF"/>
				<stop  offset="1" style="stop-color:#000000"/>
			</linearGradient>
			
				<line fill="url(#SVGID_59_)" stroke="#9D9D9C" stroke-width="0.5" stroke-miterlimit="10" x1="118.955" y1="85.263" x2="115.764" y2="85.263"/>
		</g>
		<g>
			<linearGradient id="SVGID_60_" gradientUnits="userSpaceOnUse" x1="174.0869" y1="85.2617" x2="174.0869" y2="85.2617">
				<stop  offset="0" style="stop-color:#FFFFFF"/>
				<stop  offset="1" style="stop-color:#000000"/>
			</linearGradient>
			
				<line fill="url(#SVGID_60_)" stroke="#9D9D9C" stroke-width="0.5" stroke-miterlimit="10" x1="174.087" y1="83.666" x2="174.087" y2="86.857"/>
			<linearGradient id="SVGID_61_" gradientUnits="userSpaceOnUse" x1="172.4902" y1="85.2627" x2="175.6836" y2="85.2627">
				<stop  offset="0" style="stop-color:#FFFFFF"/>
				<stop  offset="1" style="stop-color:#000000"/>
			</linearGradient>
			
				<line fill="url(#SVGID_61_)" stroke="#9D9D9C" stroke-width="0.5" stroke-miterlimit="10" x1="175.684" y1="85.263" x2="172.49" y2="85.263"/>
		</g>
		<linearGradient id="SVGID_62_" gradientUnits="userSpaceOnUse" x1="88.9961" y1="56.9756" x2="88.9961" y2="56.9756">
			<stop  offset="0" style="stop-color:#FFFFFF"/>
			<stop  offset="1" style="stop-color:#000000"/>
		</linearGradient>
		
			<line fill="url(#SVGID_62_)" stroke="#9D9D9C" stroke-width="0.5" stroke-miterlimit="10" x1="88.996" y1="55.38" x2="88.996" y2="58.571"/>
		<linearGradient id="SVGID_63_" gradientUnits="userSpaceOnUse" x1="87.4014" y1="56.9751" x2="90.5918" y2="56.9751">
			<stop  offset="0" style="stop-color:#FFFFFF"/>
			<stop  offset="1" style="stop-color:#000000"/>
		</linearGradient>
		
			<line fill="url(#SVGID_63_)" stroke="#9D9D9C" stroke-width="0.5" stroke-miterlimit="10" x1="90.592" y1="56.975" x2="87.401" y2="56.975"/>
		<linearGradient id="SVGID_64_" gradientUnits="userSpaceOnUse" x1="88.9961" y1="113.627" x2="88.9961" y2="113.627">
			<stop  offset="0" style="stop-color:#FFFFFF"/>
			<stop  offset="1" style="stop-color:#000000"/>
		</linearGradient>
		
			<line fill="url(#SVGID_64_)" stroke="#9D9D9C" stroke-width="0.5" stroke-miterlimit="10" x1="88.996" y1="112.031" x2="88.996" y2="115.222"/>
		<linearGradient id="SVGID_65_" gradientUnits="userSpaceOnUse" x1="87.4014" y1="113.625" x2="90.5918" y2="113.625">
			<stop  offset="0" style="stop-color:#FFFFFF"/>
			<stop  offset="1" style="stop-color:#000000"/>
		</linearGradient>
		
			<line fill="url(#SVGID_65_)" stroke="#9D9D9C" stroke-width="0.5" stroke-miterlimit="10" x1="90.592" y1="113.625" x2="87.401" y2="113.625"/>
		<g>
			<linearGradient id="SVGID_66_" gradientUnits="userSpaceOnUse" x1="88.9961" y1="28.5352" x2="88.9961" y2="28.5352">
				<stop  offset="0" style="stop-color:#FFFFFF"/>
				<stop  offset="1" style="stop-color:#000000"/>
			</linearGradient>
			
				<line fill="url(#SVGID_66_)" stroke="#9D9D9C" stroke-width="0.5" stroke-miterlimit="10" x1="88.996" y1="26.94" x2="88.996" y2="30.131"/>
			<linearGradient id="SVGID_67_" gradientUnits="userSpaceOnUse" x1="87.4014" y1="28.5347" x2="90.5918" y2="28.5347">
				<stop  offset="0" style="stop-color:#FFFFFF"/>
				<stop  offset="1" style="stop-color:#000000"/>
			</linearGradient>
			
				<line fill="url(#SVGID_67_)" stroke="#9D9D9C" stroke-width="0.5" stroke-miterlimit="10" x1="90.592" y1="28.535" x2="87.401" y2="28.535"/>
		</g>
		<g>
			<linearGradient id="SVGID_68_" gradientUnits="userSpaceOnUse" x1="88.9961" y1="85.2617" x2="88.9961" y2="85.2617">
				<stop  offset="0" style="stop-color:#FFFFFF"/>
				<stop  offset="1" style="stop-color:#000000"/>
			</linearGradient>
			
				<line fill="url(#SVGID_68_)" stroke="#9D9D9C" stroke-width="0.5" stroke-miterlimit="10" x1="88.996" y1="83.666" x2="88.996" y2="86.857"/>
			<linearGradient id="SVGID_69_" gradientUnits="userSpaceOnUse" x1="87.4014" y1="85.2627" x2="90.5918" y2="85.2627">
				<stop  offset="0" style="stop-color:#FFFFFF"/>
				<stop  offset="1" style="stop-color:#000000"/>
			</linearGradient>
			
				<line fill="url(#SVGID_69_)" stroke="#9D9D9C" stroke-width="0.5" stroke-miterlimit="10" x1="90.592" y1="85.263" x2="87.401" y2="85.263"/>
		</g>
		<g>
			<linearGradient id="SVGID_70_" gradientUnits="userSpaceOnUse" x1="88.9961" y1="141.9902" x2="88.9961" y2="141.9902">
				<stop  offset="0" style="stop-color:#FFFFFF"/>
				<stop  offset="1" style="stop-color:#000000"/>
			</linearGradient>
			
				<line fill="url(#SVGID_70_)" stroke="#9D9D9C" stroke-width="0.5" stroke-miterlimit="10" x1="88.996" y1="140.394" x2="88.996" y2="143.587"/>
			<linearGradient id="SVGID_71_" gradientUnits="userSpaceOnUse" x1="87.4014" y1="141.9902" x2="90.5918" y2="141.9902">
				<stop  offset="0" style="stop-color:#FFFFFF"/>
				<stop  offset="1" style="stop-color:#000000"/>
			</linearGradient>
			
				<line fill="url(#SVGID_71_)" stroke="#9D9D9C" stroke-width="0.5" stroke-miterlimit="10" x1="90.592" y1="141.99" x2="87.401" y2="141.99"/>
		</g>
		<linearGradient id="SVGID_72_" gradientUnits="userSpaceOnUse" x1="145.7227" y1="56.9756" x2="145.7227" y2="56.9756">
			<stop  offset="0" style="stop-color:#FFFFFF"/>
			<stop  offset="1" style="stop-color:#000000"/>
		</linearGradient>
		
			<line fill="url(#SVGID_72_)" stroke="#9D9D9C" stroke-width="0.5" stroke-miterlimit="10" x1="145.723" y1="55.38" x2="145.723" y2="58.571"/>
		<linearGradient id="SVGID_73_" gradientUnits="userSpaceOnUse" x1="144.1279" y1="56.9751" x2="147.3174" y2="56.9751">
			<stop  offset="0" style="stop-color:#FFFFFF"/>
			<stop  offset="1" style="stop-color:#000000"/>
		</linearGradient>
		
			<line fill="url(#SVGID_73_)" stroke="#9D9D9C" stroke-width="0.5" stroke-miterlimit="10" x1="147.317" y1="56.975" x2="144.128" y2="56.975"/>
		<linearGradient id="SVGID_74_" gradientUnits="userSpaceOnUse" x1="145.7227" y1="113.627" x2="145.7227" y2="113.627">
			<stop  offset="0" style="stop-color:#FFFFFF"/>
			<stop  offset="1" style="stop-color:#000000"/>
		</linearGradient>
		
			<line fill="url(#SVGID_74_)" stroke="#9D9D9C" stroke-width="0.5" stroke-miterlimit="10" x1="145.723" y1="112.031" x2="145.723" y2="115.222"/>
		<linearGradient id="SVGID_75_" gradientUnits="userSpaceOnUse" x1="144.1279" y1="113.625" x2="147.3174" y2="113.625">
			<stop  offset="0" style="stop-color:#FFFFFF"/>
			<stop  offset="1" style="stop-color:#000000"/>
		</linearGradient>
		
			<line fill="url(#SVGID_75_)" stroke="#9D9D9C" stroke-width="0.5" stroke-miterlimit="10" x1="147.317" y1="113.625" x2="144.128" y2="113.625"/>
		<g>
			<linearGradient id="SVGID_76_" gradientUnits="userSpaceOnUse" x1="145.7227" y1="28.5352" x2="145.7227" y2="28.5352">
				<stop  offset="0" style="stop-color:#FFFFFF"/>
				<stop  offset="1" style="stop-color:#000000"/>
			</linearGradient>
			
				<line fill="url(#SVGID_76_)" stroke="#9D9D9C" stroke-width="0.5" stroke-miterlimit="10" x1="145.723" y1="26.94" x2="145.723" y2="30.131"/>
			<linearGradient id="SVGID_77_" gradientUnits="userSpaceOnUse" x1="144.1279" y1="28.5347" x2="147.3174" y2="28.5347">
				<stop  offset="0" style="stop-color:#FFFFFF"/>
				<stop  offset="1" style="stop-color:#000000"/>
			</linearGradient>
			
				<line fill="url(#SVGID_77_)" stroke="#9D9D9C" stroke-width="0.5" stroke-miterlimit="10" x1="147.317" y1="28.535" x2="144.128" y2="28.535"/>
		</g>
		<g>
			<linearGradient id="SVGID_78_" gradientUnits="userSpaceOnUse" x1="145.7227" y1="85.2617" x2="145.7227" y2="85.2617">
				<stop  offset="0" style="stop-color:#FFFFFF"/>
				<stop  offset="1" style="stop-color:#000000"/>
			</linearGradient>
			
				<line fill="url(#SVGID_78_)" stroke="#9D9D9C" stroke-width="0.5" stroke-miterlimit="10" x1="145.723" y1="83.666" x2="145.723" y2="86.857"/>
			<linearGradient id="SVGID_79_" gradientUnits="userSpaceOnUse" x1="144.1279" y1="85.2627" x2="147.3174" y2="85.2627">
				<stop  offset="0" style="stop-color:#FFFFFF"/>
				<stop  offset="1" style="stop-color:#000000"/>
			</linearGradient>
			
				<line fill="url(#SVGID_79_)" stroke="#9D9D9C" stroke-width="0.5" stroke-miterlimit="10" x1="147.317" y1="85.263" x2="144.128" y2="85.263"/>
		</g>
		<g>
			<linearGradient id="SVGID_80_" gradientUnits="userSpaceOnUse" x1="145.7227" y1="141.9902" x2="145.7227" y2="141.9902">
				<stop  offset="0" style="stop-color:#FFFFFF"/>
				<stop  offset="1" style="stop-color:#000000"/>
			</linearGradient>
			
				<line fill="url(#SVGID_80_)" stroke="#9D9D9C" stroke-width="0.5" stroke-miterlimit="10" x1="145.723" y1="140.394" x2="145.723" y2="143.587"/>
			<linearGradient id="SVGID_81_" gradientUnits="userSpaceOnUse" x1="144.1279" y1="141.9902" x2="147.3174" y2="141.9902">
				<stop  offset="0" style="stop-color:#FFFFFF"/>
				<stop  offset="1" style="stop-color:#000000"/>
			</linearGradient>
			
				<line fill="url(#SVGID_81_)" stroke="#9D9D9C" stroke-width="0.5" stroke-miterlimit="10" x1="147.317" y1="141.99" x2="144.128" y2="141.99"/>
		</g>
		<linearGradient id="SVGID_82_" gradientUnits="userSpaceOnUse" x1="202.4502" y1="56.9756" x2="202.4502" y2="56.9756">
			<stop  offset="0" style="stop-color:#FFFFFF"/>
			<stop  offset="1" style="stop-color:#000000"/>
		</linearGradient>
		
			<line fill="url(#SVGID_82_)" stroke="#9D9D9C" stroke-width="0.5" stroke-miterlimit="10" x1="202.45" y1="55.38" x2="202.45" y2="58.571"/>
		<linearGradient id="SVGID_83_" gradientUnits="userSpaceOnUse" x1="200.8555" y1="56.9751" x2="204.0449" y2="56.9751">
			<stop  offset="0" style="stop-color:#FFFFFF"/>
			<stop  offset="1" style="stop-color:#000000"/>
		</linearGradient>
		
			<line fill="url(#SVGID_83_)" stroke="#9D9D9C" stroke-width="0.5" stroke-miterlimit="10" x1="204.045" y1="56.975" x2="200.855" y2="56.975"/>
		<linearGradient id="SVGID_84_" gradientUnits="userSpaceOnUse" x1="202.4502" y1="113.627" x2="202.4502" y2="113.627">
			<stop  offset="0" style="stop-color:#FFFFFF"/>
			<stop  offset="1" style="stop-color:#000000"/>
		</linearGradient>
		
			<line fill="url(#SVGID_84_)" stroke="#9D9D9C" stroke-width="0.5" stroke-miterlimit="10" x1="202.45" y1="112.031" x2="202.45" y2="115.222"/>
		<linearGradient id="SVGID_85_" gradientUnits="userSpaceOnUse" x1="200.8555" y1="113.625" x2="204.0449" y2="113.625">
			<stop  offset="0" style="stop-color:#FFFFFF"/>
			<stop  offset="1" style="stop-color:#000000"/>
		</linearGradient>
		
			<line fill="url(#SVGID_85_)" stroke="#9D9D9C" stroke-width="0.5" stroke-miterlimit="10" x1="204.045" y1="113.625" x2="200.855" y2="113.625"/>
		<g>
			<linearGradient id="SVGID_86_" gradientUnits="userSpaceOnUse" x1="202.4502" y1="28.5352" x2="202.4502" y2="28.5352">
				<stop  offset="0" style="stop-color:#FFFFFF"/>
				<stop  offset="1" style="stop-color:#000000"/>
			</linearGradient>
			
				<line fill="url(#SVGID_86_)" stroke="#9D9D9C" stroke-width="0.5" stroke-miterlimit="10" x1="202.45" y1="26.94" x2="202.45" y2="30.131"/>
			<linearGradient id="SVGID_87_" gradientUnits="userSpaceOnUse" x1="200.8555" y1="28.5347" x2="204.0449" y2="28.5347">
				<stop  offset="0" style="stop-color:#FFFFFF"/>
				<stop  offset="1" style="stop-color:#000000"/>
			</linearGradient>
			
				<line fill="url(#SVGID_87_)" stroke="#9D9D9C" stroke-width="0.5" stroke-miterlimit="10" x1="204.045" y1="28.535" x2="200.855" y2="28.535"/>
		</g>
		<g>
			<linearGradient id="SVGID_88_" gradientUnits="userSpaceOnUse" x1="202.4502" y1="85.2617" x2="202.4502" y2="85.2617">
				<stop  offset="0" style="stop-color:#FFFFFF"/>
				<stop  offset="1" style="stop-color:#000000"/>
			</linearGradient>
			
				<line fill="url(#SVGID_88_)" stroke="#9D9D9C" stroke-width="0.5" stroke-miterlimit="10" x1="202.45" y1="83.666" x2="202.45" y2="86.857"/>
			<linearGradient id="SVGID_89_" gradientUnits="userSpaceOnUse" x1="200.8555" y1="85.2627" x2="204.0449" y2="85.2627">
				<stop  offset="0" style="stop-color:#FFFFFF"/>
				<stop  offset="1" style="stop-color:#000000"/>
			</linearGradient>
			
				<line fill="url(#SVGID_89_)" stroke="#9D9D9C" stroke-width="0.5" stroke-miterlimit="10" x1="204.045" y1="85.263" x2="200.855" y2="85.263"/>
		</g>
		<g>
			<linearGradient id="SVGID_90_" gradientUnits="userSpaceOnUse" x1="202.4502" y1="141.9902" x2="202.4502" y2="141.9902">
				<stop  offset="0" style="stop-color:#FFFFFF"/>
				<stop  offset="1" style="stop-color:#000000"/>
			</linearGradient>
			
				<line fill="url(#SVGID_90_)" stroke="#9D9D9C" stroke-width="0.5" stroke-miterlimit="10" x1="202.45" y1="140.394" x2="202.45" y2="143.587"/>
			<linearGradient id="SVGID_91_" gradientUnits="userSpaceOnUse" x1="200.8555" y1="141.9902" x2="204.0449" y2="141.9902">
				<stop  offset="0" style="stop-color:#FFFFFF"/>
				<stop  offset="1" style="stop-color:#000000"/>
			</linearGradient>
			
				<line fill="url(#SVGID_91_)" stroke="#9D9D9C" stroke-width="0.5" stroke-miterlimit="10" x1="204.045" y1="141.99" x2="200.855" y2="141.99"/>
		</g>
		<g>
			<linearGradient id="SVGID_92_" gradientUnits="userSpaceOnUse" x1="117.3594" y1="141.9902" x2="117.3594" y2="141.9902">
				<stop  offset="0" style="stop-color:#FFFFFF"/>
				<stop  offset="1" style="stop-color:#000000"/>
			</linearGradient>
			
				<line fill="url(#SVGID_92_)" stroke="#9D9D9C" stroke-width="0.5" stroke-miterlimit="10" x1="117.359" y1="140.394" x2="117.359" y2="143.587"/>
			<linearGradient id="SVGID_93_" gradientUnits="userSpaceOnUse" x1="115.7637" y1="141.9902" x2="118.9551" y2="141.9902">
				<stop  offset="0" style="stop-color:#FFFFFF"/>
				<stop  offset="1" style="stop-color:#000000"/>
			</linearGradient>
			
				<line fill="url(#SVGID_93_)" stroke="#9D9D9C" stroke-width="0.5" stroke-miterlimit="10" x1="118.955" y1="141.99" x2="115.764" y2="141.99"/>
		</g>
		<g>
			<linearGradient id="SVGID_94_" gradientUnits="userSpaceOnUse" x1="174.0869" y1="141.9902" x2="174.0869" y2="141.9902">
				<stop  offset="0" style="stop-color:#FFFFFF"/>
				<stop  offset="1" style="stop-color:#000000"/>
			</linearGradient>
			
				<line fill="url(#SVGID_94_)" stroke="#9D9D9C" stroke-width="0.5" stroke-miterlimit="10" x1="174.087" y1="140.394" x2="174.087" y2="143.587"/>
			<linearGradient id="SVGID_95_" gradientUnits="userSpaceOnUse" x1="172.4902" y1="141.9902" x2="175.6836" y2="141.9902">
				<stop  offset="0" style="stop-color:#FFFFFF"/>
				<stop  offset="1" style="stop-color:#000000"/>
			</linearGradient>
			
				<line fill="url(#SVGID_95_)" stroke="#9D9D9C" stroke-width="0.5" stroke-miterlimit="10" x1="175.684" y1="141.99" x2="172.49" y2="141.99"/>
		</g>
	</g>
</g>
</svg>
