<?xml version="1.0" encoding="UTF-8"?>
<svg id="Ebene_1" xmlns="http://www.w3.org/2000/svg" version="1.1" width="261.36" height="101.04" viewBox="0 0 261.36 101.04" preserveAspectRatio="xMidYMid meet">
  <!-- Generator: Adobe Illustrator 30.4.0, SVG Export Plug-In . SVG Version: 2.1.4 Build 226)  -->
  <defs>
    <style>
      .st0 {
        fill: #353a3b;
      }

      .st1 {
        fill: #cc1426;
      }
    </style>
  </defs>
  <g>
    <polygon class="st1" points="113.41 15.29 116.48 31.87 119.56 33.33 121.49 30.52 116.42 16.21 113.41 15.29 113.41 15.29"/>
    <path class="st1" d="M140.36,4.55,120.47,17.44l3.28,12.22c.7,2.62,7.05,3.19,14.17,1.28,7.12-1.91,12.33-5.58,11.63-8.2l-3-11.2-16.79,8.71-9.28-2.83h0Z"/>
    <polygon class="st1" points="129.28 18.52 154.44 5.46 132.41 1.44 110.61 12.83 129.28 18.52 129.28 18.52"/>
  </g>
  <g>
    <path class="st0" d="M4.77,56.83v7.49h-.94v-15.92h.94v7.49h1.92l7.59-7.35.14-.14h1.33l-.82.8-7.38,7.16,7.38,7.16.82.8h-1.33l-.14-.14-7.59-7.35h-1.92Z"/>
    <path class="st0" d="M20.65,64.32h-1.03l.3-.66,6.56-14.99.12-.28h.61l.12.28,6.56,14.99.3.66h-1.03l-.12-.28-6.13-14-6.13,14-.12.28Z"/>
    <path class="st0" d="M48.91,57.25c.97,1.09,1.94,3.25,2.9,6.46l.19.61h-.98l-.09-.33c-.69-2.22-1.32-3.86-1.9-4.92-.5-.89-1.17-1.64-2.01-2.25h-5.95v7.49h-.94v-7.96l.02-7.47v-.47h.47l6.51-.02c1.15,0,2.18.34,3.07,1.01,1.09.86,1.64,1.94,1.64,3.23,0,.67-.17,1.31-.51,1.92-.66,1.11-1.65,1.82-3,2.13.2.17.4.36.59.56ZM47.15,55.89c.84,0,1.61-.23,2.29-.68.97-.66,1.45-1.51,1.45-2.58,0-.72-.25-1.37-.75-1.97-.75-.89-1.76-1.33-3.02-1.33h-6.06v6.58h2.81l.02-.02h3.25Z"/>
    <path class="st0" d="M67.75,57.25c.97,1.09,1.94,3.25,2.9,6.46l.19.61h-.98l-.09-.33c-.69-2.22-1.32-3.86-1.9-4.92-.5-.89-1.17-1.64-2.01-2.25h-5.95v7.49h-.94v-7.96l.02-7.47v-.47h.47l6.51-.02c1.15,0,2.18.34,3.07,1.01,1.09.86,1.64,1.94,1.64,3.23,0,.67-.17,1.31-.51,1.92-.66,1.11-1.65,1.82-3,2.13.2.17.4.36.59.56ZM66,55.89c.84,0,1.61-.23,2.29-.68.97-.66,1.45-1.51,1.45-2.58,0-.72-.25-1.37-.75-1.97-.75-.89-1.76-1.33-3.02-1.33h-6.06v6.58h2.81l.02-.02h3.25Z"/>
    <path class="st0" d="M77.96,48.4h.94v15.92h-.94v-15.92Z"/>
    <path class="st0" d="M98.07,48.4v.94h-10.3v6.56h7.54v.94h-7.54v6.56h10.3v.94h-11.24v-15.92h11.24Z"/>
    <path class="st0" d="M114,57.25c.97,1.09,1.94,3.25,2.9,6.46l.19.61h-.98l-.09-.33c-.69-2.22-1.32-3.86-1.9-4.92-.5-.89-1.17-1.64-2.01-2.25h-5.95v7.49h-.94v-7.96l.02-7.47v-.47h.47l6.51-.02c1.15,0,2.18.34,3.07,1.01,1.09.86,1.64,1.94,1.64,3.23,0,.67-.17,1.31-.51,1.92-.66,1.11-1.65,1.82-3,2.13.2.17.4.36.59.56ZM112.24,55.89c.84,0,1.61-.23,2.29-.68.97-.66,1.45-1.51,1.45-2.58,0-.72-.25-1.37-.75-1.97-.75-.89-1.76-1.33-3.02-1.33h-6.06v6.58h2.81l.02-.02h3.25Z"/>
    <path class="st0" d="M135.3,48.4v.94h-10.3v6.56h7.54v.94h-7.54v6.56h10.3v.94h-11.24v-15.92h11.24Z"/>
    <path class="st0" d="M142.12,48.4h1.87v15.92h-1.87v-15.92Z"/>
    <path class="st0" d="M153.33,64.32h-1.87v-15.92h1.43l.28.4,8.1,11.61.02-11.08v-.94h1.87v.94l-.02,14.05v.94h-1.43l-.28-.4-8.1-11.61v12.01Z"/>
    <path class="st0" d="M178.78,52.85c0-.55-.2-1.04-.58-1.48-.67-.73-1.58-1.1-2.74-1.1-.67,0-1.3.16-1.9.47-.95.5-1.43,1.2-1.43,2.11,0,.16.04.32.12.49.27.51,1.15,1.06,2.65,1.64,1.86.73,2.97,1.19,3.35,1.36,1.89.95,2.83,2.13,2.83,3.54-.02,1-.44,1.92-1.27,2.76-1.14,1.12-2.59,1.69-4.35,1.69-1.53,0-2.85-.43-3.96-1.29-1.11-.89-1.66-1.94-1.66-3.16h1.87c.02.55.25,1.05.7,1.5.77.72,1.78,1.08,3.04,1.08.8,0,1.54-.17,2.22-.52,1.01-.52,1.52-1.2,1.52-2.06,0-.17-.05-.34-.14-.51-.27-.53-1.16-1.09-2.67-1.69-1.84-.72-2.94-1.16-3.3-1.33-1.89-.94-2.83-2.1-2.83-3.49,0-1.01.38-1.94,1.12-2.76,1.03-1.12,2.39-1.69,4.07-1.69,1.34,0,2.51.39,3.51,1.17,1.12.89,1.69,1.98,1.69,3.28h-1.87Z"/>
    <path class="st0" d="M197.12,48.4h.94v1.87h-5.13v14.05h-1.87v-14.05h-5.17v-1.87h11.24Z"/>
    <path class="st0" d="M203.93,48.4h1.87v15.92h-1.87v-15.92Z"/>
    <path class="st0" d="M222.64,48.4h.94v1.87h-5.13v14.05h-1.87v-14.05h-5.17v-1.87h11.24Z"/>
    <path class="st0" d="M229.33,48.42h1.9l-.02.94-.02,9.65c0,.77.26,1.46.77,2.08.75.91,1.74,1.36,2.97,1.36.84,0,1.61-.24,2.3-.73.97-.69,1.45-1.59,1.45-2.72v-9.67l.02-.91h1.9l-.02.94-.02,9.65c0,1.31-.47,2.48-1.41,3.51-1.12,1.2-2.53,1.8-4.21,1.8-1.47,0-2.75-.48-3.84-1.45-1.19-1.05-1.78-2.33-1.78-3.86v-9.67l.02-.91Z"/>
    <path class="st0" d="M257.52,48.4h.94v1.87h-5.13v14.05h-1.87v-14.05h-5.17v-1.87h11.24Z"/>
  </g>
  <g>
    <path class="st1" d="M77.21,94.07s-.12.02-.2.02c-.05,0-.1-.02-.15-.05-.15-.07-.29-.1-.44-.12-.02-.02-.1-.02-.12-.02,0,.05.05.05.1.17l-.1-.05c-1.37-.56-2.46-1.61-3.37-2.76l-.68-.9-.12-.07c-.27-.37-.56-.73-.66-.97-.02-.07-.07-.07-.07-.07-.24.8-.88,3.05-1.15,4.56-.02.17-.05.32-.05.44v.1c0,.12.02.2.15.22-.1.07-.1.12-.19.17,0,0-.34.17-.39.24l-.73-.1s-.05.02-.07.02-.1-.2-.15-.2c-.02.05-.05.1-.1.1-.02,0-.1-.02-.17-.07-.07.05-.15.07-.19.07-.2,0-.24-.27-.24-.58v-.17c.02-.46.12-1,.15-1.12.63-4.32,3.76-12.7,4.46-15.29.05-.17.1-.39.1-.61l.02-.15s-.02-.05-.02-.1c0-.17.27-.39.41-.41.1-.1.32-.1.44-.1.22,0,.85.32,1,.41.27.15.34.34.34.63,0,1.27-1.85,6.39-2.39,7.78,2.34-1.66,4.29-3.24,6.49-5.02l.95-.76c.19-.15.56-.54.85-.71.05-.02.1-.02.12-.02.15,0,.2.1.2.24-.07.29-.22.54-.22.83-.15.42-.44.73-.61,1.07-.61.83-1.05,1.19-1.83,1.8-1.71,1.39-3.68,2.88-5.22,4l-.68.51c-.12.1-.29.2-.41.32v.17c.9,1.85,2.68,3.97,4.32,5.68.34.34.63.49.78.9-.05-.02-.1-.05-.15-.05ZM68.43,94.44l.02-.07s-.02-.05-.02-.07v-.1s-.07.22-.07.32c.02-.02.07-.07.07-.07ZM68.73,92.63s-.07.1-.07.17c0,0,0,.02.02.07,0,.05-.02.12-.02.1,0-.07-.1-.1-.1-.2-.02.05-.05.07-.05.12v.15s0,.05-.05.1c0,0,.07.02.07.1.02.02.02.05.02.1l-.02.27c.07-.07.12-.15.15-.2.05-.07.05-.56.05-.78ZM68.77,91.88s-.02-.1-.05-.15c.02.02.02.05.02.07,0,.05-.02.1-.05.15-.02.1-.05.1-.05.15.07-.07.12-.15.12-.22ZM68.87,91.83c-.07.07-.1.15-.1.22,0,.05.02.1.02.12l-.07.07c-.02.1-.07.27-.07.37,0-.05.05-.15.07-.22l.05.22c0-.1.07-.61.07-.61l.02-.17ZM69.92,87.1l-.22.68c.05-.12.19-.39.19-.46l.02-.22ZM72.58,86.59c0-.07-.02-.07-.07-.07,0,0-.12.07-.17.07-.02,0-.07,0-.12.12.12-.02.27-.02.37-.12ZM72.58,86.42c.1,0,.15.02.22.02l-.05-.07-.07-.02c.05-.07.1-.07.12-.12-.02,0-.27.07-.39.12,0,.05.12.07.17.07ZM72.99,86.49s-.02,0-.07.02c-.07,0-.15.12-.22.17-.17,0-.17.1-.19.2.07-.07.15-.12.22-.12.02,0,.12-.15.2-.15.02-.02.07-.1.07-.12ZM73.16,86.2s-.2.1-.27.17c.15,0,.24-.05.24-.05l-.07-.02c.02-.07.05-.05.1-.1ZM73.48,86.1c.1-.05.17-.12.34-.17.07,0,.07-.07.17-.17l-.07-.02-.1.12.02-.12c-.07,0-.17.12-.17.2l-.1.05s-.02,0-.07.05l-.02.07ZM75.8,93s-.07-.1-.07-.12l.07.05c0-.07,0-.1-.05-.12l-.24-.05s-.1-.07-.1-.15c-.17,0-.56-.22-.66-.32.12.12.27.2.34.32l-.02.07c-.02-.07-.1-.1-.1-.1-.12,0-.15,0-.15.02,0,0,.15.17.27.22,0,.07.05.1.05.1l.07-.02s.05-.05.07-.05c.1,0,.24.1.32.12l.07.02c-.1-.15-.27-.22-.29-.32.12.15.29.17.41.32ZM74.87,92.27c.07,0,.1.02.27.12l.02-.07c-.07,0-.19-.15-.27-.15l-.02.1ZM75.26,92.39s.07-.02.1-.02.05.02.05.05l.02-.1h-.12s-.07,0-.1.02c0,.05.02.05.05.05ZM75.46,92.98h-.12s.1.17.12.17c.05,0,.1-.05.15-.1-.02,0-.1-.07-.15-.07ZM75.89,92.95s.02.07.07.12c.1,0,.12-.02.15-.05-.05,0-.12-.05-.19-.15,0,.02-.02.05-.02.07ZM76.21,93.29s.02.07.05.07c.1.07.27.15.39.2-.05-.05-.27-.29-.32-.32-.07-.02-.02-.15-.1-.17.02.02.02.07.02.15,0,.02-.02.05-.05.07ZM78.82,81.76c-.07.05-.12.05-.15.12h.1c0,.1-.05.1-.05.15.02,0,.22-.17.29-.24l-.2-.02Z"/>
    <path class="st1" d="M86.84,86.27l-.1.78.19-.27-.02.17-.07.12.12-.05.05.2-.02.19-.68,1.1c-.39.63-1.76,2.78-2.63,3.56-.22.19-.49.37-.78.46-.05.02-.17.02-.19.02-.07,0-.37-.02-.46-.02-.15,0-.27-.12-.44-.2-.54-.2-.85-.83-.85-1.44v-.22c0-.81.12-1.46.27-2.12-.61.95-1.73,3.07-2.78,3.19-.07,0-.49-.27-.58-.32-.37-.2-.54-.1-.76-.78,0,0-.02-.07-.05-.12v-.19s-.05-.07-.05-.12c0-.1.07-.22.07-.37v-.22c0-.12,0-.17.07-.22v-.32c.29-1.63,2.46-4.83,4.15-4.83.24,0,.76.29,1.1.37.12-.15.32-.68.71-.71l.19.1h.1c.37,0,.83.37.83.54-.02.24-.1.76-.24,1.02-.41.66-1.34,4.83-1.34,6,.05.2.07.2.07.2.88-.42,3.44-4.51,4.15-5.51ZM77.53,88.34c.1-.02.17-.24.2-.34-.1.07-.15.22-.2.34ZM77.73,88l.02-.2s-.02.1-.1.15c.02,0,.05.02.07.05ZM81.6,85.81c-.39.05-1.19.95-1.83,1.93-.46.68-.93,1.73-1.15,2.39-.05.12-.05.22-.05.32l-.07.22s.07-.02.12-.07c.07-.1.02,0,1.1-1.66.68-1.05,1.58-2.49,2.12-3.15-.07,0-.19.02-.24.02ZM82.28,89.42c.07,0,.1-.02.1-.15,0-.02,0-.05-.1-.1v.24ZM82.48,90.22s0-.1.02-.12l-.02-.22c-.02.12-.02.2-.1.27.05.05.07.07.1.07ZM82.67,89.86c-.1.34-.07.66-.12,1,0,.05-.02.1-.02.15v.12c.1-1.22.63-3.59,1.05-4.78-.22.22-.73,2.44-.78,2.95-.02.17-.12.24-.12.41v.15ZM82.65,89.44l-.05-.15s0,.02,0,.1c0,.05-.02.12-.05.15s-.02.1-.02.12,0,.07.02.1c0-.15.05-.19.1-.32ZM82.58,88.27l.07-.07c.05-.07.05-.15.05-.19,0-.02.05-.05.05-.07s-.02-.05-.02-.07c-.07.12-.07.22-.15.41ZM82.67,89.27s-.05.1-.02.1.07-.1.1-.12c-.05,0-.05.02-.07.02ZM82.82,87.15v-.22l-.12.46s-.02-.02.1-.02c0-.05.02-.17.02-.22Z"/>
    <path class="st1" d="M85.04,92.66c-.07,0-.07-.22-.07-.27s0-.07.02-.1c0-.07,0-.12.05-.27v-.44c.02-.07.05-.1.1-.12l.02-.34c.41-2.15,1-3.68,1.54-5.9.02-.12.1-.32.1-.51,0-.07.12-.17.12-.19.07-.1.17-.15.32-.17.05,0,.49.17.71.2.12,0,.34.12.37.27.15.15.17.29.17.49v.29c0,.37-.02.37-.07.76.61-.8,1.98-1.76,2.73-1.76.2,0,.37.12.44.27,0,.02.02.07.02.1,0,.05-.02.05-.07.05-.12.05-.27.07-.85.39-.1,0-.15.05-.15.1l-.2.17c-.07,0-.17.07-.17.15l-.56.61c-.07.1-.2.17-.22.22-.15.12-.2.24-.32.37,0,0,0,.05-.07.05-.02.07-.1.15-.1.22-.07.05-.12.17-.12.22-.05.05-.1.05-.1.1,0,0,0,.02-.02.1l-.07.05s-.05.07-.05.12c.02.02-.12.05-.12.07,0,.05-.02.1-.02.15-.07.05-.12.22-.12.27-.1.12-.19.2-.34.46,0-.02-.05-.07-.05-.05,0,.05,0,.07.02.07,0,.07-.02.07-.07.07,0,.05-.02.1-.02.12v.1c-.02.12-.05.02-.05.15-.07,0-.07.05-.12.12,0-.07,0-.1.02-.1,0-.05.02-.1.02-.1,0,.02-.05-.05-.07-.05,0,0-.02.02.02-.07,0-.05.02-.1.02-.12.05-.05.05-.07.05-.12-.07,0-.17.27-.2.29,0,0-.05.15-.05.2-.05,0-.05.07-.05.12-.02.07-.12.29-.12.34,0,.02.07-.22.17-.27.02-.12.05-.19.07-.19,0-.05,0-.12.05-.12,0,0-.02.22-.05.32l.1-.07c-.02.1-.07.12-.12.15v.12s0,.07-.07.07c-.02.12-.05.17-.07.17s-.02-.1-.02-.1c-.12.05-.17.15-.17.27l-.02.15c.07-.15.07-.22.07-.27.07,0,.07.02.07.05,0,0,0,.07-.07.15,0,.02-.02.05-.02.07s.02.05.05.05c0,0-.02.07-.05.05l-.17.29c0,.07,0,.15-.05.2v.17c-.07.07-.07.15-.1.22,0,0-.02.37-.1.37l-.05.24s-.1.37-.07.37c0,0,.05-.17.07-.2.05,0,.1-.29.1-.32,0,0,.07-.24.07-.29.02-.07.07-.22.1-.29,0-.07.05-.15.05-.2,0-.07.07-.12.07-.17,0-.07.07-.15.1-.2,0-.07.02-.12.05-.2,0-.05.07-.12.1-.15l-.02.17c0,.1-.07.19-.07.22-.02.02-.07.17-.07.2.02.02.02.05.02.07,0,.05-.02.07-.02.1l-.07-.05c0,.07-.05.1-.07.12.05.05.05.07.05.12,0,.02.1-.17.17-.24,0,.05,0,.12-.07.2-.02.07-.02.12-.02.12-.07.05-.07.07-.07.1s0,.07-.02.1l-.15.32v.22s.05-.05.05-.07c-.02-.02-.02-.05-.02-.07,0-.05.02-.1.02-.12.02,0,.05,0,.07-.02,0,.02.02.1.02.15s-.02.07-.02.07c0,0,0,.07.07.07,0-.07,0-.15.07-.15,0,.07-.07.15-.07.19l-.02.2s-.17.32-.17.37c-.02-.05-.05-.07-.05-.1l-.07.1v-.17s-.05.05-.07.05c0,0,0-.1.02-.12,0,0,0-.05.05-.05,0,0,.02-.1.05-.15.05-.02.07-.02.07-.05,0-.07-.24.22-.24.24,0,.07,0,.12-.07.17,0,.07,0,.15-.07.22.02-.02-.07.15-.15.17-.02.02-.07.07-.12.07h-.15c-.05-.07-.12-.07-.17-.12,0,0-.15,0-.19-.05-.1,0-.71-.05-.71-.15ZM85.99,92.07s-.07.02-.07.1c-.05,0-.07.07-.07.1s.02.05.05.07c0,.07,0,.12-.05.12.02.02.05.12.05.12.02,0,.07-.12.07-.17,0-.1.02-.12.05-.17-.02.05-.05.02-.1.05,0-.1.02-.1.1-.15,0-.05,0-.07-.02-.07ZM86.26,91.83c-.07,0-.12,0-.12.12,0-.02.02-.05.05-.05.07,0,.07-.05.07-.07ZM86.31,89.86s-.1.02-.1.07c-.02.02.07.02.07.02l.02-.1ZM86.85,90.42c0,.1-.02.17-.02.29,0-.05.12-.39.12-.39-.02,0-.07.02-.07.02,0,.02-.02.05-.02.07ZM88.55,87.15s.02-.15.02-.2c-.02,0-.05.15-.07.17l-.1.1.15-.07ZM88.77,87.12l.12-.07s-.07,0-.07-.05c0,.05-.02.05-.05.12ZM88.94,86.03s-.1.1-.1.1c0,0,.17-.15.22-.17-.1,0-.12.02-.12.07ZM89.82,85.59c-.1.02-.27.22-.29.32.1-.1.2-.17.29-.32Z"/>
    <path class="st1" d="M93.43,88.17c-.07.17-.27.51-.29.54-.07.15-.07.27-.17.44l-.12.22c-.32.88-.78,2.54-.95,3.44,0,.07-.02.15-.05.2,0,.15-.17.24-.29.24-.12-.05-.15-.05-.15-.05-.05,0-.1.05-.22.05-.07,0-.58-.12-.73-.17,0-.05-.02-.05-.02-.1l-.22-.1c-.07,0-.15-.07-.15-.12v-.1s.02-.05.02-.07c0-.05-.05-.12-.05-.17.39-2.22,1.39-5.36,1.93-7.83,0-.02.05-.12.05-.15l.02-.17c0-.07.1-.15.12-.24,0-.15.27-.17.39-.17.05,0,.51.19.56.19.19,0,.24.05.41.22l.1.12s.05,0,.05.07c.05.05.1.2.1.34v.19c-.05.44-.07.63-.15,1,.58-.66,2.07-1.85,2.93-1.85.15,0,.34.32.34.34-.05.02-.58.34-.58.29,0-.02.02-.07.05-.07-.07,0-.1.1-.12.15-.07.07-.1.05-.32.24-.05.02-.22.2-.22.17,0,0,.02-.02.02-.07.07-.07.2-.22.17-.2l-.1.05c-.07.07-.12.12-.22.17-.02.05-.1.07-.15.15-.32.27-.41.34-.41.39,0,0-.12.1-.12.12s-.07.1-.12.1l-.56.78c-.07.05-.22.17-.22.22,0,0,.02,0,.07-.02-.02.07-.1.12-.17.2-.05.02-.05.1-.05.12-.02.07-.12.1-.15.24-.27.37-.68,1.05-.83,1.61,0,0,.07-.1.07-.15.05,0,.05-.07.05-.12.05-.05.24-.54.37-.71.15-.29.41-.66.46-.76l.12-.17c.39-.54.95-1.41,1.73-1.98,0,0-.07.17-.1.15-.59.46-1.68,2.02-2.15,2.78ZM91.33,89.81s-.1.02-.1.07c-.02.02.07.02.07.02l.02-.1ZM91.29,92.95s-.02.07-.05.1c0,0,.15-.05.17-.1v-.1l-.12.1ZM91.48,92.49l.05-.1c-.07,0-.17.07-.22.1-.02.05-.05.12-.05.15.02.02.15-.12.22-.15ZM91.65,91.98l.12-.37s-.05-.05-.07-.05c-.02.15-.05.27-.05.41ZM91.87,92.02l.05-.12s.02-.02.02-.1c-.07.02-.1.17-.15.24,0,.12-.07.1-.15.22v.1s.05-.1.05-.1c.1-.12.17-.12.17-.24ZM92.43,89.88s-.05-.07-.05-.07c-.02,0-.07.17-.1.17,0,.02-.05.07-.07.24.02-.05.12-.2.17-.22.02-.02.02-.1.05-.12ZM92.24,90.29c0,.1-.02.17-.02.27l.12-.37s-.07.02-.07.02c0,.02-.02.05-.02.07ZM93.6,86.54s-.1.07-.1.1l-.07.22s0,.07.02.07.02-.02.05-.07c.02-.07.05-.17.07-.17.02-.05.02-.12.02-.15ZM93.58,87.1s.02-.15.02-.2c-.02,0-.05.15-.07.17l-.1.1.15-.07ZM93.77,87.08l.12-.07s-.07,0-.07-.05c0,.05-.02.05-.05.12ZM93.97,85.98s-.1.1-.1.1c0,0,.17-.15.22-.17-.1,0-.12.02-.12.07ZM94.85,85.54c-.1.02-.27.22-.29.32.1-.1.2-.17.29-.32Z"/>
    <path class="st1" d="M101.28,87.9c.17-.24.46-.58.46-.58.02,0,.1-.12.1-.07,0,.07-.1.2-.1.22l-1.97,2.76c-.46.63-1.83,2.27-2.76,2.27,0,0-.44,0-.49-.12-.12,0-.29-.17-.44-.22-.63-.29-.73-1.19-.73-1.9,0-1.88,1.17-3.56,1.76-5.22.05-.17.15-.24.34-.24.07,0,.17.1.22.1.63.19.9.36.9,1.02v.1c-.02.51-.49,1.56-.78,2.32l-.07.17c-.29.83-.51,1.59-.61,2.29l-.02.22c0,.12.02.58.05.58.07,0,.15-.02.19-.05.93-.56,3.41-4.17,4.27-5.29,0,.02-.05.24-.12.44l.07-.1-.02.17-.24.46c.12-.15.22-.27.29-.32l-.1.44s.07-.07.1-.07l-.29.63ZM96.16,88.44s-.05-.07-.07-.07c0,.02-.07.1-.07.15.05,0,.07,0,.07.02s-.02.05-.02.1c.05-.1.1-.15.1-.2ZM96.21,88.64c-.07,0-.12.1-.15.17.02.02.07.05.07.05.02,0,.15-.15.15-.19-.02,0-.05-.02-.07-.02ZM96.77,89.78v-.12s0-.07.02-.1c-.05.02-.1.07-.1.17,0,.02-.05.1-.05.1,0,.02.02.02.1.02.02,0,.02-.02.02-.07ZM96.75,90.37s-.02.17-.02.24c.05-.05.07-.07.07-.12.02-.37.02-.39.02-.46l-.07.05v.29ZM96.89,90.17c.1-.1.15-.29.12-.27-.05,0-.05-.15-.07-.1,0,.02,0,.27-.05.37ZM97.07,89.27s-.1.02-.1.05c-.02.02-.05.07-.05.1.07,0,.15-.07.15-.15ZM97.04,89.56s.05-.07.07-.12c-.07,0-.07.02-.1.05.02,0,.02.05.02.07ZM98.02,91.93c-.07.05-.07.02-.12.07-.07.02-.32.17-.32.22,0,0,.22-.12.27-.15.07-.02.17-.15.17-.15ZM99.65,83.51c-.12.37-.24.41-.44.59-.17.17-.44.22-.63.22-.07,0-.12,0-.22-.02-.22-.1-.39-.12-.46-.29-.12-.2-.15-.37-.15-.49,0-.68.93-.56,1.02-.63.34,0,.88.32.88.63ZM98.65,91.05l-.15.1s-.05.1-.07.17c.17-.15.34-.32.34-.41,0-.02-.02-.07-.02-.1-.02.02-.1.05-.07.07,0,.02,0,.15-.02.17ZM98.99,90.44s-.07.05-.1.05c0,.05-.05.07-.05.12,0,.02.05-.02.05-.07.05-.02.07-.07.1-.1ZM99.14,90.59l.15-.22-.1.05-.05.17ZM99.33,90.17s.02.12.02.12c.02.02.1-.24.17-.29-.1.05-.2.1-.2.17Z"/>
    <path class="st1" d="M102.11,92.1c.83,0,2.71-2.32,3.32-3.07.71-.93,1.44-1.95,1.95-2.54l-.02.24s.07-.1.12-.15c.02-.02-.02.17-.05.29l.1-.15s.1.17.1.22c.1.05.02.17.12.17.05,0-.39.71-.44.76l-.59.83c-.73,1.02-2.97,4.24-4.73,4.24-1.32,0-2.22-1.39-2.22-2.68,0-.15.02-.32.02-.46.15-1.97,1.58-5.12,3.61-5.63.49.05,1.97.59,1.97,1.24v.12c-.05,1.63-1.56,2.66-2.76,2.66h-.29s-.12.07-.15.1c-.15.34-.54,1.83-.54,2.78v.27c.02.39.22.76.46.76ZM101.11,90.93v.22s.12-.02.12-.02c0-.05,0-.12-.12-.2ZM101.31,90.71c.05.17.05.2.05.2.05,0,.05-.2.05-.32-.05.07-.1.1-.1.12ZM101.55,90.42c.07-.68.34-1.61.54-2.19-.05.1-.12.27-.15.37l-.12.32s.05-.05.05-.05c0,0-.02.12-.05.15-.02,0-.1.2-.1.27,0,0-.02.07-.05.07s-.05,0-.07.05l.07-.32c.05-.2.27-.85.27-.85-.02,0-.07.07-.07.07-.15.46-.32.95-.34,1.49l.07-.39s.05.05.05.12c0,.05-.02.17-.02.17,0,0-.07.44-.07.73ZM102.65,86.98s-.15-.05-.15-.05c-.02,0-.07.07-.1.07l.07.12s.02-.15.17-.15ZM102.77,87.03l-.12.22c.73-.17,1.58-1.1,1.58-1.78,0-.07-.07-.05-.1-.1-.51.39-.85.73-1.37,1.66ZM102.77,86.76s-.07-.05-.07-.05v.12s.07-.05.07-.07ZM106.41,88.9s-.05.02-.05.05.17-.07.17-.15c-.1,0-.1.02-.1.02,0,.05-.02.07-.02.07Z"/>
    <path class="st1" d="M105.65,92.66c-.07,0-.07-.22-.07-.27s0-.07.02-.1c0-.07,0-.12.05-.27v-.44c.02-.07.05-.1.1-.12l.02-.34c.41-2.15,1-3.68,1.54-5.9.02-.12.1-.32.1-.51,0-.07.12-.17.12-.19.07-.1.17-.15.32-.17.05,0,.49.17.71.2.12,0,.34.12.37.27.15.15.17.29.17.49v.29c0,.37-.02.37-.07.76.61-.8,1.98-1.76,2.73-1.76.2,0,.37.12.44.27,0,.02.02.07.02.1,0,.05-.02.05-.07.05-.12.05-.27.07-.85.39-.1,0-.15.05-.15.1l-.2.17c-.07,0-.17.07-.17.15l-.56.61c-.07.1-.2.17-.22.22-.15.12-.2.24-.32.37,0,0,0,.05-.07.05-.02.07-.1.15-.1.22-.07.05-.12.17-.12.22-.05.05-.1.05-.1.1,0,0,0,.02-.02.1l-.07.05s-.05.07-.05.12c.02.02-.12.05-.12.07,0,.05-.02.1-.02.15-.07.05-.12.22-.12.27-.1.12-.19.2-.34.46,0-.02-.05-.07-.05-.05,0,.05,0,.07.02.07,0,.07-.02.07-.07.07,0,.05-.02.1-.02.12v.1c-.02.12-.05.02-.05.15-.07,0-.07.05-.12.12,0-.07,0-.1.02-.1,0-.05.02-.1.02-.1,0,.02-.05-.05-.07-.05,0,0-.02.02.02-.07,0-.05.02-.1.02-.12.05-.05.05-.07.05-.12-.07,0-.17.27-.2.29,0,0-.05.15-.05.2-.05,0-.05.07-.05.12-.02.07-.12.29-.12.34,0,.02.07-.22.17-.27.02-.12.05-.19.07-.19,0-.05,0-.12.05-.12,0,0-.02.22-.05.32l.1-.07c-.02.1-.07.12-.12.15v.12s0,.07-.07.07c-.02.12-.05.17-.07.17s-.02-.1-.02-.1c-.12.05-.17.15-.17.27l-.02.15c.07-.15.07-.22.07-.27.07,0,.07.02.07.05,0,0,0,.07-.07.15,0,.02-.02.05-.02.07s.02.05.05.05c0,0-.02.07-.05.05l-.17.29c0,.07,0,.15-.05.2v.17c-.07.07-.07.15-.1.22,0,0-.02.37-.1.37l-.05.24s-.1.37-.07.37c0,0,.05-.17.07-.2.05,0,.1-.29.1-.32,0,0,.07-.24.07-.29.02-.07.07-.22.1-.29,0-.07.05-.15.05-.2,0-.07.07-.12.07-.17,0-.07.07-.15.1-.2,0-.07.02-.12.05-.2,0-.05.07-.12.1-.15l-.02.17c0,.1-.07.19-.07.22-.02.02-.07.17-.07.2.02.02.02.05.02.07,0,.05-.02.07-.02.1l-.07-.05c0,.07-.05.1-.07.12.05.05.05.07.05.12,0,.02.1-.17.17-.24,0,.05,0,.12-.07.2-.02.07-.02.12-.02.12-.07.05-.07.07-.07.1s0,.07-.02.1l-.15.32v.22s.05-.05.05-.07c-.02-.02-.02-.05-.02-.07,0-.05.02-.1.02-.12.02,0,.05,0,.07-.02,0,.02.02.1.02.15s-.02.07-.02.07c0,0,0,.07.07.07,0-.07,0-.15.07-.15,0,.07-.07.15-.07.19l-.02.2s-.17.32-.17.37c-.02-.05-.05-.07-.05-.1l-.07.1v-.17s-.05.05-.07.05c0,0,0-.1.02-.12,0,0,0-.05.05-.05,0,0,.02-.1.05-.15.05-.02.07-.02.07-.05,0-.07-.24.22-.24.24,0,.07,0,.12-.07.17,0,.07,0,.15-.07.22.02-.02-.07.15-.15.17-.02.02-.07.07-.12.07h-.15c-.05-.07-.12-.07-.17-.12,0,0-.15,0-.19-.05-.1,0-.71-.05-.71-.15ZM106.6,92.07s-.07.02-.07.1c-.05,0-.07.07-.07.1s.02.05.05.07c0,.07,0,.12-.05.12.02.02.05.12.05.12.02,0,.07-.12.07-.17,0-.1.02-.12.05-.17-.02.05-.05.02-.1.05,0-.1.02-.1.1-.15,0-.05,0-.07-.02-.07ZM106.87,91.83c-.07,0-.12,0-.12.12,0-.02.02-.05.05-.05.07,0,.07-.05.07-.07ZM106.92,89.86s-.1.02-.1.07c-.02.02.07.02.07.02l.02-.1ZM107.46,90.42c0,.1-.02.17-.02.29,0-.05.12-.39.12-.39-.02,0-.07.02-.07.02,0,.02-.02.05-.02.07ZM109.16,87.15s.02-.15.02-.2c-.02,0-.05.15-.07.17l-.1.1.15-.07ZM109.38,87.12l.12-.07s-.07,0-.07-.05c0,.05-.02.05-.05.12ZM109.55,86.03s-.1.1-.1.1c0,0,.17-.15.22-.17-.1,0-.12.02-.12.07ZM110.43,85.59c-.1.02-.27.22-.29.32.1-.1.2-.17.29-.32Z"/>
    <path class="st1" d="M118.97,86.95s.1.02.1.02c-.02.05-.05.19-.05.22.02,0-.24.71-.93,1.61,0-.02-.05-.05-.05-.07-.02.07-.12.12-.12.12.02,0,.05,0,.05.07,0,.15-.12.2-.17.29-.19.34-.73,1-.73.93,0-.05-.05-.12-.07-.12-.05.07-.07,0-.1.12.05,0,.05.05.1.05l-.05.07c0,.12-.46.17-.46.49l.12-.12s.02-.1.27-.22c-.58.76-1.41,1.66-1.88,2-.02,0,0-.15-.07-.15,0,.02-.12.17-.22.22.07,0,.12-.05.17-.05l-.12.12.07-.05c-.12.1-.85.88-1.83.88-1.32,0-2.12-1.54-2.12-2.66,0-.9.37-2.51.88-3.56.93-1.88,2.39-3.29,3.22-3.32h.15c.29,0,1.8.51,1.8,1.27v.2l-.02.12c-.19,1.27-1.61,2.63-3.32,2.63-.29.49-.83,2.32-.83,3.46,0,.54.1.95.37.97h.1c.93,0,3.61-3.44,4.68-4.9l.17-.22c.46-.63.61-.9.76-1.1l-.02.32h.17l-.1.17.15-.05s.05,0,.07.02l-.12.2ZM111.11,91.59c0,.12.15.34.15.32,0-.1-.15-.49-.15-.42v.1ZM112.19,86.98v.1c.07,0,.1-.07.12-.15-.07,0-.07.05-.12.05ZM112.28,91.07c0,.17.05.39.1.39v-.15c0-.1-.02-.15-.05-.15,0,.05-.05-.02-.05-.1ZM112.5,91.15s.05.15.05.2c-.02.05-.02.07-.02.12v.12c0,.24.05.68.15.68,0-.02-.07-.54-.07-.8-.02-.44-.05-.44-.05-.44,0,.02-.05.07-.05.12ZM112.63,90.93l.07-.44-.05-.1s-.07.41-.07.41c.02.07.02.1.05.12ZM112.67,89.98s.02,0,.02.12l.12-.34v-.22c-.05.12-.15.27-.17.32.02,0,.02.05.02.12ZM115.89,85c-.44.05-1.34,1.1-1.93,2.17.61-.07,1.8-1.27,1.93-2.17ZM114.87,92.49s-.02.02-.05.02l.05-.02ZM115.38,91.9l-.2.19s.17-.15.22-.17c0-.05.1-.15.15-.2-.02,0-.05.02-.12.05-.02.02-.05.07-.05.12ZM116.14,91.12s.02-.02.02-.07-.05.07-.1.1l.07-.02c-.1.12-.07.12-.07.12.07,0,.22-.27.24-.32-.07.02-.12.15-.17.2ZM118.65,87.25l.1-.2-.05-.05c-.15.24-.17.27-.15.27s.07,0,.1-.02Z"/>
    <path class="st1" d="M118.48,90.51c.12.07.32.07.44.12.07.05.17.22.17.24.05.12.05.22.05.32,0,.27-.07.56-.22.76-.05.07-.12.12-.2.17l-.44.22c-.07.02-.17.02-.2.02-.41,0-.8-.34-.8-.81.05-.61.37-.98,1.02-.98l.17-.07Z"/>
    <path class="st1" d="M126.41,87.51h.02l-.22.56s-.05.07-.05.1c-.02.02-.05.07-.05.12v.1c-.07.17-.46,1.29-.46,1.88,0,.1,0,.17.02.22.02.07.05.12.07.12.34,0,2.73-1.73,3.61-2.44l1.61-1.29c1.29-1.02,3.29-2.61,4.15-2.9.07-.15.22-.2.37-.2.12,0,.66-.02.73-.02.2,0,.39.17.61.39.12.1.22.37.22.63,0,.15-.05.32-.05.44,0,.1-.15,1.07-.15,1.07,1.24-.56,1.85-.71,2.44-.83.17-.05.42-.07.61-.07.29,0,.51.07.54.22,0,.1.15.29.15.32,0,.05-.07.1-.15.12-1.02.2-3,1.17-3.83,1.8-.95,3.75-1.85,5.66-3.9,8.63l-.24.12c.07,0,.07.02.07.05l-.1.1c-.1,0-.02.19-.17.19l-.15.1c-.02.29-.07.2-.22.34,0-.07.07-.07.07-.15-.07.07-.22.15-.29.32,0,.02.05.07.05.1,0,.05-.02.1-.1.1-.05,0-.1-.05-.15-.05-.02,0-.05.02-.05.1,0,.05.02.1.02.1-.07,0-.12-.05-.12-.07-.02.1-.07.17-.15.17.05.05.1.05.12.05s.05,0,.07.02c.02,0-.19.15-.29.24-.24.29-.68.58-.83.58-.07,0-.37.17-.46.22.12,0,.17.05.17.07,0,.05-.12.1-.19.1l-.17.05-.1-.05s-.05.02-.05.05c-.02,0-.07.05-.1.07-.05,0-.07.02-.1.02-.07,0-.2-.17-.27-.17,0,0,0,.07-.07.12.07,0,.07-.05.12-.05s.07.12.1.15c-.1.22-.29.22-.46.22-.05,0-.24.15-.29.15-.1,0-.05-.15-.12-.15-.02.1-.07.12-.12.12h-.24l-.41-.07c-.1-.02-.17-.07-.27-.12l-.22-.15s-.15-.02-.17-.05c-.05-.05-.44-.32-.49-.39,0-.05-.17-.12-.17-.19-.02-.05-.02-.12-.02-.2s0-.12.02-.2c.07-1.61,1.58-4.05,2.41-5.14,1.85-2.51,4.29-4.83,6.12-6.07.19-.54.41-1.8.41-2.05-.12.12-.15.2-.32.27-.05,0-.17.1-.22.17l-.17.1c-.02.07-.12.12-.12.12l-.1.1s-.1.05-.1.1c-.02.02-.07.05-.2.05-.05,0-.05.1-.1.15l-.17.2c-.07.02-.12.02-.15.07-.05.1-.27.2-.27.2-.05.02-.39.32-.39.34.05,0,.15-.05.17-.05,0,.02,0,.05-.05.07-.02.05-.15.05-.15.12-.07.05-.1.12-.2.12-.17.12-.29.27-.44.37-.12.17-1.05.88-1.15.9-2.19,1.71-4.29,3.1-5.17,3.1s-1.93-1.02-1.97-1.71v-.22c0-1.88,1.07-4.32,2.02-5.66.1-.12.17-.2.17-.2,0,0,.07.02.12.15,0-.07-.05-.24-.05-.27.1-.15.19-.29.29-.39.02-.07.07-.02.17-.15,0,0,0-.1-.02-.1-.02-.02.05-.05.05-.07s.1-.05.1-.12c.07-.07.1-.22.17-.22.02,0-.02.07-.02.1.07,0,.07-.07.17-.17-.05,0-.07.02-.07.05,0-.07.05-.1.1-.1s.1.02.15.02.12-.02.12-.12c0,0-.15,0-.12.02-.07,0-.19.05-.17.02.56-.88,4.39-5.27,7.63-5.27,1.22,0,3.44,1.05,3.51,2.46-.02.32-.36.9-.78,1.02-.02,0-.05.02-.07.02-.05,0-.12.02-.2.02-.1,0-.2-.02-.24-.32v-.12c0-.12,0-.29-.07-.51-.02-.02-.02-.07-.02-.27-.22-.66-.88-.85-1.1-.85-1.1,0-3,.98-4.97,2.83-1.27,1.19-2.54,2.76-3.66,4.66-.07,0-.1.02-.1.07s.02.1.02.12c-.19.27-.41.71-.58,1.07ZM125.65,88.68s0-.1-.02-.1c0,.15-.12.27-.15.24-.05.07-.1.17-.1.29.07,0,.07-.02.07-.05l.19-.39ZM125.58,89.88c-.02.1-.05.12-.05.12-.02,0-.05-.1-.1-.1v.17s0,.05-.02.07c.1,0,.07.1.1.15,0-.24.12-.22.15-.56,0-.02-.07-.1-.07-.1v.24ZM125.53,87.81c.12,0,.15,0,.15-.05-.1,0-.12-.05-.15-.07v.12ZM125.7,87.22s-.07.05-.07.05c0-.05-.02.07-.05.12.05,0,.1.07.1.1l.02-.27ZM125.8,88.22c-.07,0-.12,0-.12.02s.02.05.02.07l.1-.1ZM125.94,86.88s-.02-.07-.02-.1c-.02,0-.05.05-.12.12.05,0,.1-.02.15-.02ZM125.94,86.29l.07.07c.1,0,.1-.07.1-.07h-.17ZM126.02,88.22c0-.1,0-.17-.02-.17-.05,0-.05.05-.05.07,0,.05.02.07.07.1ZM126.92,83.61s.05.05.07.05.05,0,.05-.05h-.12ZM131.06,92.63c-1.41,1.76-2.66,3.63-3.34,5.12-.05-.07-.05-.1-.05-.15-.02.05-.1.1-.1.15,0,.02-.05.1-.05.12l.1.05c-.15.32-.17.51-.19.71v.15s.15.12.17.12l.41-.1c2.76-1.37,5.22-6.58,6.14-9.27l.07-.24-1.37,1.29-.05.15-.68.71c-.1.07-.17.2-.24.24l-.22.22s-.02.1-.02.12c-.07.12-.19.15-.24.22l-.34.39ZM127.6,82.25s.02.07.02.1c.02-.02.05.02.05-.15-.05,0-.07.02-.07.05ZM127.84,81.95s.02.07.05.07.02-.02.1-.07h-.15ZM129.58,98.39c.07,0,.15-.07.2-.1-.1,0-.1-.1-.1-.1-.07.1-.15.1-.17.17.02.02.05.02.07.02ZM129.62,99.07s.02-.07.05-.07h-.12l.07.07ZM130.4,98.22s-.2.2-.2.2c.02,0,.27-.1.29-.12-.05,0-.1-.1-.1-.07ZM131.38,87.93c.07-.1.1-.15.1-.15.02,0-.17.12-.24.15-.07.02-.1.1-.1.15l.24-.15ZM131.38,95.83c-.1.07-.15.1-.17.1-.02.02-.02.07-.02.1,0,0,.07,0,.07-.1,0,0,.12,0,.12-.1ZM132.18,96.83c-.12.07-.1.1-.15.17.02,0,.15,0,.15-.17ZM132.18,89.78s.07.1.07.1c.02,0,.07-.05.07-.05-.05,0-.15-.07-.15-.05ZM132.89,86.15s.05,0,.1-.05c-.17,0-.34.1-.51.32.17-.02.41-.27.41-.27ZM133.09,89.39c.07-.1.07-.12.07-.12,0-.05-.05-.05-.05-.05l-.02.17ZM134.06,85.37c-.15,0-.34.2-.34.17,0,.02,0,.1.02.1.02-.02.07-.1.1-.1.07-.07.15-.07.22-.17ZM133.92,89.03s.1-.02.1-.02c0-.17-.1-.24-.07-.24-.07.05-.1.07-.1.12,0,.02,0,.05.02.1l.05-.15v.19ZM134.16,88.34s-.07,0-.07.1c.02.02.05.02.07.02.07,0,.15-.17.15-.2-.02,0,.17-.27.15-.32-.05.12-.27.39-.29.39Z"/>
    <path class="st1" d="M139.94,92.1c.83,0,2.71-2.32,3.32-3.07.71-.93,1.44-1.95,1.95-2.54l-.02.24s.07-.1.12-.15c.02-.02-.02.17-.05.29l.1-.15s.1.17.1.22c.1.05.02.17.12.17.05,0-.39.71-.44.76l-.58.83c-.73,1.02-2.98,4.24-4.73,4.24-1.32,0-2.22-1.39-2.22-2.68,0-.15.02-.32.02-.46.15-1.97,1.59-5.12,3.61-5.63.49.05,1.97.59,1.97,1.24v.12c-.05,1.63-1.56,2.66-2.76,2.66h-.29s-.12.07-.15.1c-.15.34-.54,1.83-.54,2.78v.27c.02.39.22.76.46.76ZM138.94,90.93v.22s.12-.02.12-.02c0-.05,0-.12-.12-.2ZM139.14,90.71c.05.17.05.2.05.2.05,0,.05-.2.05-.32-.05.07-.1.1-.1.12ZM139.38,90.42c.07-.68.34-1.61.54-2.19-.05.1-.12.27-.15.37l-.12.32s.05-.05.05-.05c0,0-.02.12-.05.15-.02,0-.1.2-.1.27,0,0-.02.07-.05.07s-.05,0-.07.05l.07-.32c.05-.2.27-.85.27-.85-.02,0-.07.07-.07.07-.15.46-.32.95-.34,1.49l.07-.39s.05.05.05.12c0,.05-.02.17-.02.17,0,0-.07.44-.07.73ZM140.48,86.98s-.15-.05-.15-.05c-.02,0-.07.07-.1.07l.07.12s.02-.15.17-.15ZM140.6,87.03l-.12.22c.73-.17,1.58-1.1,1.58-1.78,0-.07-.07-.05-.1-.1-.51.39-.85.73-1.37,1.66ZM140.6,86.76s-.07-.05-.07-.05v.12s.07-.05.07-.07ZM144.23,88.9s-.05.02-.05.05.17-.07.17-.15c-.1,0-.1.02-.1.02,0,.05-.02.07-.02.07Z"/>
    <path class="st1" d="M143.89,91.54c.02-.15.58-.59.71-.66-.12.15-.49.44-.49.54.1-.12.41-.39.44-.41.07,0,.02-.02.07-.02,0-.02.05-.1.05-.1,0-.02,0-.05.02-.07l.07-.07c.2-.17.78-.58.95-.71l-.19-.44c-.51-1.05-.9-2.1-.9-3.19,0-1.78,1.95-3.14,3.41-3.14.05,0,.44.1.44.1l.76.32c.54,0,1,1.1,1,1.46,0,.44-.32.9-.56,1.12h-.1s-.12.2-.32.2-.24-.02-.27-.02c-.05,0-.27-.07-.29-.07-.12-.05-.27-.12-.27-.2,0-.12.34-1,.34-1.46-.02-.17-.07-.17-.12-.17h-.1c-.93,0-2.1.68-2.1,1.78,0,.81.68,2.17.95,2.73,1.22-.76,3.29-1.83,4.05-2.51,0,.12-.49.54-.61.56.2,0,.12-.05.51-.29-.15.2-.32.29-.32.32l-.15.15c-.07.07.37-.27.39-.27s.1-.02.12,0c-.22.1-.12.17-.39.39.22,0,.39-.15.44-.22-.02.17-.24.34-.46.49,0,.07,0,.17.1.12,0,.12-.56.46-1,.73l-2.34,1.44c.1.27.15.44.19.88.02.12.02.22.02.34,0,1.68-1.73,2.78-3.05,2.78l-.32-.05c-.66-.05-1.22-.73-1.22-1.22,0-.32.05-.44.22-.68.07-.12.29-.32.29-.44ZM144.62,92.83c.76-.05,1.66-.93,1.37-1.73-.63.44-1.56,1.29-1.56,1.51,0,.05-.2.1-.17.15.1.07.24.07.37.07ZM145.92,86.68s-.07.07-.07.12c0,.02.05.05.07.07v-.2ZM146.84,88.88s.02.15.05.24l.12.12-.17-.37ZM147.04,92.46s-.05.1-.05.12c0,0,.02.02.05.1v-.22ZM147.31,89.05c-.07-.1-.2-.34-.27-.49.05.17.12.46.2.54l.07-.05ZM147.11,91.51s.07.07.1.07c.02-.02.05-.15.05-.17l-.15.1ZM147.28,92.15c-.05.07-.12.22-.12.32.07-.12.07-.17.07-.2l.05-.12ZM147.43,92.59s.05-.02.07-.1c.05-.05.05-.15.05-.17-.05.1-.15.27-.12.27ZM147.6,90.03c.17.51.2.93.2,1.46-.02.22-.07.44-.15.59l-.02.12c.12-.22.24-.63.24-1.07,0-.29-.05-.73-.2-1.15l-.07.05Z"/>
    <path class="st1" d="M156.09,81.95c-.54,0-1.07.02-1.61.07-.32,1-.71,2.07-1.07,2.97l-.02-.1.63-1.76c-.07.1-.63,1.41-1.17,3-.02.05-.07.15-.07.32l-.07.22s-.02.05-.02.1l-.07.1s-.07.15-.07.22v.1l-.22.81c-.22.83-.59,2.34-.59,3.14v.27l.1-.83c.1-.66.27-1.46.46-2.24.02-.02.02-.05.02-.07.02-.02.02-.05.02-.07l.05-.15c.22-.9.46-1.66.59-1.93.02-.15.1-.41.19-.56l.07-.1v-.22s.12-.07.15-.07c-.78,2.17-1.49,4.41-1.54,6.46,0,.12.02.22.12.22.02,0,.07,0,.12-.02,1.07-.59,3.34-3.54,4.49-5.02l.27-.34c.07-.07.1-.17.15-.22.02-.02.05-.07.12-.07l-.1.2s.12-.02.2-.15c0,.02-.02.05-.02.1-.02.1-.07.22-.12.32l.2-.24s0,.07,0,.1c-.05.1-.1.19-.17.29l.22-.22v.24s-.02.12-.12.15l-.02.2c-.02.17-.27.49-.34.63l-1.27,1.8c-.22.32-1.49,1.9-1.85,2.07-.12.22-.24.29-.41.44,0,.07-.07.07-.07.07-.17.15-.36.24-.54.37-.17.07-.19.15-.39.2-.1.02-.22.12-.39.12-.1,0-.39-.05-.46-.12-.05,0-.27-.05-.29-.07-.07,0-.56-.29-.66-.37-.02-.02-.07-.05-.07-.07-.1-.05-.1-.15-.15-.17l-.1-.22s-.02-.07-.02-.1c-.02-.15-.05-.19-.05-.37v-.15c0-.07-.05-.15-.05-.22,0-.02,0-.05.02-.07,0,0-.02-.07-.02-.1,0,0,.02-.12.05-.15v-.12s0-.1.02-.15c-.05-.05-.07-.07-.07-.1.02-.12.07-.2.07-.27l.02-.32s-.02-.05-.02-.07c0,0,0-.02.02-.1,0-.17.05-.42.12-.56.02-.05.02-.07.05-.22,0-.12.02-.2.05-.27.05-.07.07-.22.07-.34v-.12c.02-.12.12-.27.15-.39.44-1.78,1.15-3.63,1.88-5.41-1.12.15-2.15.32-2.9.37h-.46c-.51,0-1.34-.1-1.54-.68-.02-.07-.05-.17-.05-.32,0-.07.02-.15.07-.22,0-.05.12-.07.17-.07,0,0,0,.02.07.05.12.02.34.05.63.05.71,0,1.8-.07,2.51-.15.8-.1,1.44-.15,1.97-.2l.78-2.05.17-.37s.1-.07.15-.07c.07,0,.34.15.44.15.39,0,.44.32.46.66.02.1.15.22.15.24v.12c-.05.37-.12.78-.24,1.02l-.05.2h1.07c1.15.02,2,.32,2.22.56-.02.15-.15.1-.15.15,0,.02,0,.12.05.15-.02.02-.29.1-.34.2-.1,0-.24-.02-.76-.05-.27-.02-.51-.02-.8-.02ZM153.01,92.15s-.68.51-.98.59c.22,0,.95-.46.98-.59ZM155.45,89.51s-.12.15-.12.2c-.02.07-.07.17-.22.17-.02,0-.05.02-.07.05l-.1.2s-.05.1-.07.1,0,.07-.05.07l-.1.07c-.02.07-.05.12-.12.17l-.1.12s-.17.17-.2.24c.02,0,.22-.2.22-.22l.19-.2c.02-.1.15-.15.2-.22,0,0,.02-.05.02-.07,0-.05.07-.15.1-.17.1,0,.15-.05.2-.12.05-.05.07-.12.15-.17l.2-.24.2-.32s-.1.05-.1.07c-.02.07,0,.1-.12.15,0,.02-.1.07-.17.15l.07-.02ZM156.06,88.37c.15-.05.32-.27.32-.29.02-.05.05-.15.02-.12l-.34.41ZM157.45,81.78h.1s-.02-.07-.05-.07c-.02.05-.05.07-.05.07Z"/>
    <path class="st1" d="M164.87,86.27l-.1.78.2-.27-.02.17-.07.12.12-.05.05.2-.02.19-.68,1.1c-.39.63-1.76,2.78-2.63,3.56-.22.19-.49.37-.78.46-.05.02-.17.02-.2.02-.07,0-.37-.02-.46-.02-.15,0-.27-.12-.44-.2-.54-.2-.85-.83-.85-1.44v-.22c0-.81.12-1.46.27-2.12-.61.95-1.73,3.07-2.78,3.19-.07,0-.49-.27-.58-.32-.37-.2-.54-.1-.76-.78,0,0-.02-.07-.05-.12v-.19s-.05-.07-.05-.12c0-.1.07-.22.07-.37v-.22c0-.12,0-.17.07-.22v-.32c.29-1.63,2.46-4.83,4.14-4.83.24,0,.76.29,1.1.37.12-.15.32-.68.71-.71l.2.1h.1c.36,0,.83.37.83.54-.02.24-.1.76-.24,1.02-.41.66-1.34,4.83-1.34,6,.05.2.07.2.07.2.88-.42,3.44-4.51,4.15-5.51ZM155.55,88.34c.1-.02.17-.24.2-.34-.1.07-.15.22-.2.34ZM155.75,88l.02-.2s-.02.1-.1.15c.02,0,.05.02.07.05ZM159.62,85.81c-.39.05-1.19.95-1.83,1.93-.46.68-.93,1.73-1.15,2.39-.05.12-.05.22-.05.32l-.07.22s.07-.02.12-.07c.07-.1.02,0,1.1-1.66.68-1.05,1.59-2.49,2.12-3.15-.07,0-.2.02-.24.02ZM160.31,89.42c.07,0,.1-.02.1-.15,0-.02,0-.05-.1-.1v.24ZM160.5,90.22s0-.1.02-.12l-.02-.22c-.02.12-.02.2-.1.27.05.05.07.07.1.07ZM160.7,89.86c-.1.34-.07.66-.12,1,0,.05-.02.1-.02.15v.12c.1-1.22.63-3.59,1.05-4.78-.22.22-.73,2.44-.78,2.95-.02.17-.12.24-.12.41v.15ZM160.67,89.44l-.05-.15s0,.02,0,.1c0,.05-.02.12-.05.15-.02.02-.02.1-.02.12s0,.07.02.1c0-.15.05-.19.1-.32ZM160.6,88.27l.07-.07c.05-.07.05-.15.05-.19,0-.02.05-.05.05-.07s-.02-.05-.02-.07c-.07.12-.07.22-.15.41ZM160.7,89.27s-.05.1-.02.1.07-.1.1-.12c-.05,0-.05.02-.07.02ZM160.84,87.15v-.22l-.12.46s-.02-.02.1-.02c0-.05.02-.17.02-.22Z"/>
    <path class="st1" d="M169.77,86.9l.07.37.15-.22s-.02.15-.02.15c0,.02-.05.12-.12.24l.12.17s.12-.12.12-.07c0,.02-.05.12-.22.41-.17.24-.46.78-.76.85.05.02.07.05.12.05.02-.05.05-.1.1-.1-.76,1.22-2.73,4.24-3.97,4.68-.22.05-.1.12-.42.12-.05,0-.12,0-.19-.05-.15-.12-.56-.24-.71-.39-.49-.46-.46-1.27-.51-1.46,0-.07.02-.15.07-.24,0,.05,0,.1.02.15.05-.07.05-.17.05-.27-.02,0-.07,0-.1.02-.02-.07-.05-.07-.05-.15s.02-.12.02-.29v-.15c.02-.2,0-.34.07-.66,0,0-.07-.1-.07-.17-.02.05-.02.07-.02.1-.05.34-.07.61-.07,1v.46c.02.54.12,1.17.37,1.51-.29,0-.46-.95-.49-1.66v-.29c0-1.07.37-2.24.63-3.12.66-2.17,2.05-5.68,3-8.63.07-.12.17-.2.32-.2.07,0,.12.05.15.12.49.17.78.56.78,1,.05.07.05.15.05.22,0,.1,0,.17-.02.24-.41,1.85-.81,3-1.46,4.9-.58,1.61-1.73,4.8-1.73,6.61v.1c.05.17,0,.29.1.29.02,0,.07-.02.12-.05,1.34-1.02,3.76-4.8,4.34-5.53.1-.15.15-.24.29-.27l-.12.2ZM163.67,92.07s0,.05.02.07l.05-.12c0-.07-.02-.15-.02-.22l-.05.27ZM163.92,88.51s.02.1.05.12c0-.07.05-.17.05-.27-.05.02-.1.07-.1.15ZM164.01,88.15s0,.07.02.07c.05-.05.05-.1.05-.15-.05,0-.07.02-.07.07ZM164.26,87.42c-.1.15-.12.32-.17.51l.1-.05s.02-.1.02-.1l.05-.37ZM164.77,91.73c.05-.15.05-.32.05-.51l-.1.41v.39l.05.07v-.37ZM165.01,89.68s.05-.05.05-.07v-.1s.02-.17.05-.24c-.05.05-.07.07-.12.07,0,.07.02.17.02.34ZM165.14,88.68s-.07.02-.07.1l.02.1.05-.2ZM165.16,88.61h.17l-.05-.07.05-.15s.05-.07.05-.15c-.07.02-.07.1-.1.17,0,0-.05.17-.12.19ZM165.99,92.73l-.2.19s.17-.15.22-.17c0-.05.1-.15.15-.19-.02,0-.05.02-.12.05-.02.02-.05.07-.05.12ZM166.62,91.39s.07-.05.1-.05c0-.05.05-.07.05-.12,0-.02-.05.02-.05.07-.05.02-.07.07-.1.1Z"/>
    <path class="st1" d="M168.72,81.78c.02-.17.1-.27.22-.27.02,0,.05.02.1.05.12.05.22.05.32.05h.17c.1,0,.17-.02.29-.02.44-.07.95-.12,1.49-.19.34-.81.66-1.61.93-2.37l.17-.37s.1-.07.15-.07c.07,0,.34.15.44.15.39,0,.44.32.46.66.02.1.15.22.15.24v.12c-.05.37-.12.78-.24,1.02l-.12.46c.17-.02.37-.02.54-.02.56,0,1.1.05,1.68.15.22.05.56.17.66.39l.05.1c0,.07-.02.2-.02.29.02,0,.1.12.15.15-.05,0-.22-.05-.27-.05h-.39c-.12,0-.24-.02-.41-.05h-.39c-.17,0-.39.02-.58.02-.41.05-.9.07-1.37.15-.29.9-.63,1.83-.95,2.63l-.02-.1.63-1.76c-.07.1-.63,1.41-1.17,3-.02.05-.07.15-.07.32l-.07.22s-.02.05-.02.1l-.07.1s-.07.15-.07.22v.1l-.22.81c-.22.83-.59,2.34-.59,3.14v.27l.1-.83c.1-.66.27-1.46.46-2.24.02-.02.02-.05.02-.07.02-.02.02-.05.02-.07l.05-.15c.22-.9.46-1.66.59-1.93.02-.15.1-.41.19-.56l.07-.1v-.22s.12-.07.15-.07c-.78,2.17-1.49,4.41-1.54,6.46,0,.12.02.22.12.22.02,0,.07,0,.12-.02,1.07-.59,3.34-3.54,4.49-5.02l.27-.34c.07-.07.1-.17.15-.22.02-.02.05-.07.12-.07l-.1.2s.12-.02.2-.15c0,.02-.02.05-.02.1-.02.1-.07.22-.12.32l.2-.24s0,.07,0,.1c-.05.1-.1.19-.17.29l.22-.22v.24s-.02.12-.12.15l-.02.2c-.02.17-.27.49-.34.63l-1.27,1.8c-.22.32-1.49,1.9-1.85,2.07-.12.22-.24.29-.41.44,0,.07-.07.07-.07.07-.17.15-.36.24-.54.37-.17.07-.19.15-.39.2-.1.02-.22.12-.39.12-.1,0-.39-.05-.46-.12-.05,0-.27-.05-.29-.07-.07,0-.56-.29-.66-.37-.02-.02-.07-.05-.07-.07-.1-.05-.1-.15-.15-.17l-.1-.22s-.02-.07-.02-.1c-.02-.15-.05-.19-.05-.37v-.15c0-.07-.05-.15-.05-.22,0-.02,0-.05.02-.07,0,0-.02-.07-.02-.1,0,0,.02-.12.05-.15v-.12s0-.1.02-.15c-.05-.05-.07-.07-.07-.1.02-.12.07-.2.07-.27l.02-.32s-.02-.05-.02-.07c0,0,0-.02.02-.1,0-.17.05-.42.12-.56.02-.05.02-.07.05-.22,0-.12.02-.2.05-.27.05-.07.07-.22.07-.34v-.12c.02-.12.12-.27.15-.39.39-1.63,1.05-3.34,1.71-4.97h-.17c-.27.07-.54.07-.83.1-.32,0-1.07-.27-1.07-1ZM171.53,92.15s-.68.51-.98.59c.22,0,.95-.46.98-.59ZM173.96,89.51s-.12.15-.12.2c-.02.07-.07.17-.22.17-.02,0-.05.02-.07.05l-.1.2s-.05.1-.07.1,0,.07-.05.07l-.1.07c-.02.07-.05.12-.12.17l-.1.12s-.17.17-.2.24c.02,0,.22-.2.22-.22l.19-.2c.02-.1.15-.15.2-.22,0,0,.02-.05.02-.07,0-.05.07-.15.1-.17.1,0,.15-.05.2-.12.05-.05.07-.12.15-.17l.2-.24.2-.32s-.1.05-.1.07c-.02.07,0,.1-.12.15,0,.02-.1.07-.17.15l.07-.02ZM174.57,88.37c.15-.05.32-.27.32-.29.02-.05.05-.15.02-.12l-.34.41Z"/>
    <path class="st1" d="M175.99,92.1c.83,0,2.71-2.32,3.32-3.07.71-.93,1.44-1.95,1.95-2.54l-.02.24s.07-.1.12-.15c.02-.02-.02.17-.05.29l.1-.15s.1.17.1.22c.1.05.02.17.12.17.05,0-.39.71-.44.76l-.58.83c-.73,1.02-2.98,4.24-4.73,4.24-1.32,0-2.22-1.39-2.22-2.68,0-.15.02-.32.02-.46.15-1.97,1.59-5.12,3.61-5.63.49.05,1.97.59,1.97,1.24v.12c-.05,1.63-1.56,2.66-2.76,2.66h-.29s-.12.07-.15.1c-.15.34-.54,1.83-.54,2.78v.27c.02.39.22.76.46.76ZM174.99,90.93v.22s.12-.02.12-.02c0-.05,0-.12-.12-.2ZM175.18,90.71c.05.17.05.2.05.2.05,0,.05-.2.05-.32-.05.07-.1.1-.1.12ZM175.43,90.42c.07-.68.34-1.61.54-2.19-.05.1-.12.27-.15.37l-.12.32s.05-.05.05-.05c0,0-.02.12-.05.15-.02,0-.1.2-.1.27,0,0-.02.07-.05.07s-.05,0-.07.05l.07-.32c.05-.2.27-.85.27-.85-.02,0-.07.07-.07.07-.15.46-.32.95-.34,1.49l.07-.39s.05.05.05.12c0,.05-.02.17-.02.17,0,0-.07.44-.07.73ZM176.53,86.98s-.15-.05-.15-.05c-.02,0-.07.07-.1.07l.07.12s.02-.15.17-.15ZM176.65,87.03l-.12.22c.73-.17,1.58-1.1,1.58-1.78,0-.07-.07-.05-.1-.1-.51.39-.85.73-1.37,1.66ZM176.65,86.76s-.07-.05-.07-.05v.12s.07-.05.07-.07ZM180.28,88.9s-.05.02-.05.05.17-.07.17-.15c-.1,0-.1.02-.1.02,0,.05-.02.07-.02.07Z"/>
    <path class="st1" d="M189.84,86.54s0,.22-.05.41l.02-.05.1.22.22-.27-.34.54c.1-.07.22-.17.34-.29v.22l-.68,1.19-.34.46s-.12.15-.12.15c0-.02.07-.12.07-.22,0-.02-.17.2-.17.24s.05.02.05.05-.02.07-.07.15c-.1.17-.24.2-.24.2,0,.05,0,.07-.02.07,0,.1-.15.22-.15.22t.02.02s.19-.22.22-.22c-.51.76-1.05,1.51-1.63,2.22-.71.9-1.27,1.27-1.68,1.34-.29,0-.61-.07-.88-.17-.61-.37-.71-.73-.73-1.19v-.41s0-.12.02-.17v-.15c0-.17.02-.29.05-.41,0-.1.24-.98.29-1.15.32-1,.9-2.68.98-3.27l.02-.39s0-.07-.02-.07c-.41.17-1.73,1.73-3,4.12-.29.51-.29.88-.63,1.44,0,.07-.05.15-.07.22-.12.29-.36.32-.63.32-.32-.07-.9-.66-.98-.63-.07,0-.15-.02-.17-.1-.02-.05-.12-.07-.12-.12s.02-.1.05-.17c.66-2.41,1.37-5.17,1.63-6.36.02-.07.07-.22.22-.22.12,0,.76.27.83.32.12.1.39.34.41.49.02.17,0,.22.05.44v.12c0,.34-.1.85-.27,1.49.56-.95,1.46-2.02,2.12-2.32.22-.15.39-.19.63-.19.61.24,1.46.49,1.59,1.17.07.22.07.46.07.73,0,.61-.41,1.97-.58,2.51-.29.95-.83,2.37-.88,3.17,0,.12,0,.15.02.15.44,0,4.05-5.29,4.44-5.83ZM180.23,89.64s.02-.1.02-.17c0-.02-.07.02-.07.02,0,0,.05.1.05.15ZM180.7,88.85s-.05-.05-.05-.1c-.02.05-.02.1-.07.15.07-.02.1-.05.12-.05ZM185.06,91.85s.07.12.07.12c0,.05-.07.17-.07.29l.07-.05s.02-.07.02-.07c0-.07,0-.17.02-.27,0-.05.02-.07.02-.1.02,0,.02-.07.02-.12.02-.07.02-.17.1-.24v-.12s-.07.02-.1.1c0,.05,0,.12-.02.12,0,0-.07.07-.07.05,0-.07.07-.27.07-.29s.02-.05.02-.12c0,0,.05,0,.05-.1.05,0,.05-.1.05-.12,0,.02.05-.05.05-.07,0,0,.1-.07.07-.07,0-.05-.05-.05-.07-.05l-.05-.15v.12h-.1s0,.05.02.07c-.02,0-.1.07-.1.1l.1-.02s-.1.07-.1.15c0,.05,0,.07-.05.1,0,.02.02.1.02.1,0,.05-.07.05-.07.07v.34s.07.07.07.1-.07.1-.07.15ZM185.33,91.2s.02,0,.02-.05l.02-.12c-.05.07-.05.12-.05.17ZM185.48,90.12l-.07-.05s.05.1.1.1c.02,0,.05-.02.07-.05,0-.07.02-.2.02-.2-.02,0-.05.02-.05.05-.02.02-.07.07-.07.15ZM185.67,88.59c-.02.07-.07.15-.07.22.02-.12.17-.32.22-.37-.1.02-.12.1-.15.15ZM186.06,88.22s-.1.24-.12.29c0,.02.12-.17.12-.17.02,0,.05-.02.05-.12v-.1s-.05.07-.05.1ZM187.23,91.37s-.05.07-.05.12l-.2.2s.17-.15.22-.17c0-.05.1-.15.15-.2-.02,0-.05.02-.12.05ZM187.79,90.64s.02-.02.02-.07-.05.07-.1.1l.07-.02c-.1.12-.07.12-.07.12.07,0,.22-.27.24-.32-.07.02-.12.15-.17.2ZM188.23,90.15s.07-.12.15-.2c-.19.2-.34.2-.34.41,0,0,.02-.02.2-.22ZM189.38,88.42l-.1.12.12-.05.07-.22s-.1.12-.1.15Z"/>
    <path class="st1" d="M188.4,90.83s.05,0,.07-.02c.02-.02.12-.12.22-.1.05,0,.1.02.15.05h.15c.15.02.15.05.2.07h.15c.37.1.61.37.59.68-.02.2-.05.39-.15.51-.27.24-.46.37-.83.37-.61-.19-1-.05-.95-.95.05-.24.17-.63.41-.61ZM192.21,79.52c.46.05.83.12,1.24.37.05,0,.1.05.1.07-.02.19-.02.34-.07.51l-.51,1.46c-.56,1.51-1.1,3.12-1.54,4.68l-.27.61-.17.61s-.07.05-.1.1l-.05.37s-.02-.02,0-.12c0-.02-.05.02-.07.05l-.15.41s-.05-.05-.02-.07c0-.05.05-.1.05-.17v-.15c-.02.12-.05.24-.1.32-.12.15-.1.12-.17.34-.02-.07-.02-.12-.02-.17,0,.05-.05.1-.05.12-.02.07-.05.17-.1.27-.05-.05-.07-.1-.07-.15,0,0-.58.15-.66.22-.02,0-.05,0-.05-.07,0,.02-.02.05-.02.07-.02.07-.07.12-.15.19,0-.05,0-.1-.02-.1-.05,0-.12.32-.12.34-.02,0-.05-.02-.05-.05,0-.05-.05-.1-.02-.22-.05.07-.1.15-.15.22v-.1l.02-.32c.07-.22.05-.41.12-.63v-.1c.07-.54.22-1.1.34-1.56.27-1.22.51-2.22.9-3.22l1.29-3.58c.07-.32.12-.46.41-.56h.22Z"/>
  </g>
</svg>